<svg id="Layer_1" data-name="Layer 1" xmlns="http://www.w3.org/2000/svg" viewBox="0 0 300 66.27"><defs><style>.cls-1{fill:#0071bc;}.cls-2{font-size:43.03px;fill:#fff;font-family:Ubuntu-Medium, Ubuntu;font-weight:500;}.cls-3{letter-spacing:-0.01em;}.cls-4{letter-spacing:0em;}.cls-5{letter-spacing:-0.01em;}.cls-6{letter-spacing:0em;}.cls-7{fill:#ccc;}.cls-8{fill:#2b1058;}.cls-9{fill:#c1272d;}.cls-10{fill:#dd482d;}.cls-11{fill:#ff0;}</style></defs><circle class="cls-1" cx="33.13" cy="33.13" r="33.13"/><text class="cls-2" transform="translate(90.01 45.69)">je<tspan class="cls-3" x="36.4" y="0">tc</tspan><tspan class="cls-4" x="73.76" y="0">on</tspan><tspan class="cls-5" x="124.66" y="0">t</tspan><tspan class="cls-6" x="142.26" y="0">ent</tspan></text><path class="cls-7" d="M296.61,163.65c-4.47,4.7-1.88,12.56.61,15.68.52.66,0,1.46-.91.89-13.36-7.93-10.38-22.87-10.38-22.87s.68.59,4.48,3.13A23.47,23.47,0,0,0,296.61,163.65Z" transform="translate(-258.59 -116.87)"/><path class="cls-7" d="M304,157.22c5.26-3.79,12.7-.15,15.45,2.74.58.6,1.44.24,1-.79-6-14.31-21.24-13.39-21.24-13.39s.49.76,2.49,4.87A23.47,23.47,0,0,1,304,157.22Z" transform="translate(-258.59 -116.87)"/><path class="cls-7" d="M265.19,120.15c-2,1.74,1.81,15.13,1.81,15.13l12.64-11S267.18,118.41,265.19,120.15Z" transform="translate(-258.59 -116.87)"/><polygon class="cls-7" points="48.95 44.77 41.66 51.13 37.65 48.24 46.63 40.41 48.95 44.77"/><path class="cls-8" d="M279.64,124.25l-6.32,5.52L267,135.28c5.12,11.41,11.45,21.2,29.24,29.83l9-7.84C299.1,138.47,290.26,130.87,279.64,124.25Z" transform="translate(-258.59 -116.87)"/><path class="cls-7" d="M276.3,133.17a7.07,7.07,0,0,0,8.73,11.1c.19-.14.38-.28.56-.44a7.07,7.07,0,0,0-9.29-10.66Zm7.89,9.06a4.95,4.95,0,1,1,.48-7A5,5,0,0,1,284.19,142.23Z" transform="translate(-258.59 -116.87)"/><path d="M284.67,135.25a4.95,4.95,0,1,1-7-.48A4.94,4.94,0,0,1,284.67,135.25Z" transform="translate(-258.59 -116.87)"/><path class="cls-7" d="M280.21,143.39l4.14-8.48a4.92,4.92,0,0,0-2.43-1.26l-4.2,8.6A5,5,0,0,0,280.21,143.39Z" transform="translate(-258.59 -116.87)"/><path class="cls-9" d="M300.9,167.43l6-5.22c10.51,5.66,9.18,15.85,9.18,15.85C304.19,178.48,300.9,167.43,300.9,167.43Z" transform="translate(-258.59 -116.87)"/><path class="cls-10" d="M305.94,163l-4.11,3.58c1.65,2.48,4.92,6.22,10.05,7C311.88,173.58,311.6,168,305.94,163Z" transform="translate(-258.59 -116.87)"/><path class="cls-11" d="M307.9,169.19a12.08,12.08,0,0,0-2.77-5.46l-2.48,2.17A10.78,10.78,0,0,0,307.9,169.19Z" transform="translate(-258.59 -116.87)"/></svg>