<svg id="Layer_1" data-name="Layer 1" xmlns="http://www.w3.org/2000/svg" viewBox="0 0 697.17 154"><defs><style>.cls-1{fill:#0071bc;}.cls-2{font-size:100px;fill:#fff;font-family:Ubuntu-Medium, Ubuntu;font-weight:500;}.cls-3{letter-spacing:-0.01em;}.cls-4{letter-spacing:-0.01em;}.cls-5{letter-spacing:0em;}.cls-6{fill:#ccc;}.cls-7{fill:#2b1058;}.cls-8{fill:#c1272d;}.cls-9{fill:#dd482d;}.cls-10{fill:#ff0;}</style></defs><circle class="cls-1" cx="77" cy="77" r="77"/><text class="cls-2" transform="translate(209.18 106.17)">je<tspan class="cls-3" x="84.6" y="0">tc</tspan><tspan x="171.4" y="0">on</tspan><tspan class="cls-4" x="289.7" y="0">t</tspan><tspan class="cls-5" x="330.6" y="0">ent</tspan></text><path class="cls-6" d="M148.35,181.73c-10.37,10.91-4.35,29.18,1.43,36.44,1.2,1.52.11,3.37-2.13,2.05-31-18.43-24.12-53.13-24.12-53.13s1.58,1.36,10.43,7.26S148.35,181.73,148.35,181.73Z" transform="translate(-60 -73)"/><path class="cls-6" d="M165.5,166.78c12.22-8.8,29.5-.35,35.9,6.36,1.34,1.4,3.33.57,2.32-1.82-14-33.27-49.36-31.12-49.36-31.12s1.14,1.75,5.78,11.31S165.5,166.78,165.5,166.78Z" transform="translate(-60 -73)"/><path class="cls-6" d="M75.34,80.63c-4.63,4,4.22,35.15,4.22,35.15l29.37-25.61S80,76.59,75.34,80.63Z" transform="translate(-60 -73)"/><polygon class="cls-6" points="113.76 104.03 96.81 118.82 87.5 112.11 108.37 93.91 113.76 104.03"/><path class="cls-7" d="M108.93,90.17,94.25,103l-14.69,12.8c11.88,26.53,26.59,49.28,67.94,69.33l20.88-18.21C154.14,123.2,133.6,105.54,108.93,90.17Z" transform="translate(-60 -73)"/><path class="cls-6" d="M101.15,110.89a16.43,16.43,0,0,0,20.29,25.79,14.1,14.1,0,0,0,1.31-1,16.43,16.43,0,1,0-21.6-24.76Zm18.35,21a11.49,11.49,0,1,1,1.11-16.21A11.48,11.48,0,0,1,119.5,131.93Z" transform="translate(-60 -73)"/><path d="M120.61,115.72a11.49,11.49,0,1,1-16.22-1.11A11.48,11.48,0,0,1,120.61,115.72Z" transform="translate(-60 -73)"/><path class="cls-6" d="M110.24,134.63l9.63-19.69a11.39,11.39,0,0,0-5.64-2.93l-9.77,20A11.37,11.37,0,0,0,110.24,134.63Z" transform="translate(-60 -73)"/><path class="cls-8" d="M158.32,190.5l13.9-12.12c24.42,13.15,21.33,36.83,21.33,36.83C166,216.18,158.32,190.5,158.32,190.5Z" transform="translate(-60 -73)"/><path class="cls-9" d="M170,180.28l-9.53,8.32c3.81,5.76,11.42,14.46,23.34,16.2C183.84,204.8,183.19,191.71,170,180.28Z" transform="translate(-60 -73)"/><path class="cls-10" d="M174.59,194.59s-.83-6-6.42-12.68l-5.78,5A25.12,25.12,0,0,0,174.59,194.59Z" transform="translate(-60 -73)"/></svg>