<?xml version="1.0" encoding="UTF-8" standalone="no"?>
<!DOCTYPE svg PUBLIC "-//W3C//DTD SVG 1.1//EN" "http://www.w3.org/Graphics/SVG/1.1/DTD/svg11.dtd">
<svg width="100%" height="100%" viewBox="0 0 500 356" version="1.1" xmlns="http://www.w3.org/2000/svg" xmlns:xlink="http://www.w3.org/1999/xlink" xml:space="preserve" xmlns:serif="http://www.serif.com/" style="fill-rule:evenodd;clip-rule:evenodd;stroke-linejoin:round;stroke-miterlimit:2;">
    <g transform="matrix(1,0,0,1,1.83399,-3.36103)">
        <g id="freepik--background-simple--inject-37" transform="matrix(0.741955,0,0,0.741955,-51.7068,-5.39075)">
            <path d="M686.36,90.43C663.58,63 638.73,53.71 605.12,44.08C571.51,34.45 532.72,41.39 506.88,65C465.46,102.78 461.8,174.35 412.77,201.54C387.56,215.54 355.77,207.08 327.6,201.11C292.52,193.68 272.1,164.49 236.43,160.81C175.01,154.46 148.61,172.67 120.16,194.51C71.7,231.67 73.31,310.23 86.84,359.84C101.28,412.77 165.33,458.61 249.33,462.84L429.28,463.52C542.93,462.84 611.05,449.45 660.91,407.93C710.77,366.41 729.69,302 729.69,215.87C729.69,169.41 708.68,117.34 686.36,90.43Z" style="fill:rgb(235,235,235);fill-rule:nonzero;"/>
        </g>
        <g id="freepik--Dasboard--inject-37" transform="matrix(0.741955,0,0,0.741955,-51.7068,-5.39075)">
            <path d="M638.88,78.692C638.88,72.228 633.632,66.98 627.168,66.98L145.632,66.98C139.168,66.98 133.92,72.228 133.92,78.692L133.92,411.508C133.92,417.972 139.168,423.22 145.632,423.22L627.168,423.22C633.632,423.22 638.88,417.972 638.88,411.508L638.88,78.692Z" style="fill:rgb(250,250,250);"/>
            <path d="M621.9,351.4L532,351.4C528.041,351.395 524.785,348.139 524.78,344.18L524.78,155.18C524.785,151.221 528.041,147.965 532,147.96L621.9,147.96C625.859,147.965 629.115,151.221 629.12,155.18L629.12,344.18C629.115,348.139 625.859,351.395 621.9,351.4ZM532,148.92C528.59,148.925 525.785,151.73 525.78,155.14L525.78,344.14C525.78,344.15 525.78,344.16 525.78,344.17C525.78,347.584 528.586,350.395 532,350.4L621.9,350.4C625.31,350.395 628.115,347.59 628.12,344.18L628.12,155.18C628.115,151.77 625.31,148.965 621.9,148.96L532,148.92Z" style="fill:rgb(224,224,224);fill-rule:nonzero;"/>
            <path d="M180.62,80.346C180.62,73.168 174.792,67.34 167.614,67.34L146.726,67.34C139.548,67.34 133.72,73.168 133.72,80.346L133.72,410.494C133.72,417.672 139.548,423.5 146.726,423.5L167.614,423.5C174.792,423.5 180.62,417.672 180.62,410.494L180.62,80.346Z" style="fill:rgb(237,50,55);"/>
            <path d="M178.1,220.87L142.1,220.87C140.569,220.87 139.31,222.129 139.31,223.66C139.31,223.663 139.31,223.667 139.31,223.67L139.31,252.09C139.31,252.093 139.31,252.097 139.31,252.1C139.31,253.631 140.569,254.89 142.1,254.89L181.1,254.89C182.634,254.887 183.895,253.624 183.895,252.09C183.895,251.993 183.89,251.896 183.88,251.8L187.39,220.69L178.1,220.87Z" style="fill:rgb(250,250,250);fill-rule:nonzero;"/>
            <path d="M575.73,100.58L575.98,100.43C576.206,100.293 576.404,100.113 576.56,99.9C577.108,99.075 577.388,98.1 577.36,97.11C577.403,96.397 577.53,95.692 577.74,95.01C578.067,93.778 579.191,92.914 580.465,92.914C581.077,92.914 581.671,93.113 582.16,93.48C582.911,94.178 583.377,95.129 583.47,96.15C583.535,96.587 583.575,97.028 583.59,97.47C583.562,97.859 583.609,98.249 583.73,98.62C584.022,99.313 584.486,99.919 585.08,100.38L585.62,100.82L584.93,100.82C582.17,100.82 579.78,100.7 578.18,100.65L575.73,100.58L578.45,100.51C580.11,100.45 582.32,100.34 584.93,100.33L584.79,100.77C584.109,100.251 583.577,99.561 583.25,98.77C583.104,98.346 583.042,97.898 583.07,97.45C583.059,97.031 583.022,96.614 582.96,96.2C582.879,95.31 582.486,94.477 581.85,93.85C581.187,93.381 580.334,93.265 579.57,93.54C578.882,93.823 578.358,94.405 578.15,95.12C577.936,95.769 577.792,96.44 577.72,97.12C577.68,97.705 577.57,98.282 577.39,98.84C577.243,99.266 577.016,99.66 576.72,100C576.532,100.216 576.295,100.383 576.03,100.49C575.964,100.507 575.896,100.507 575.83,100.49L575.73,100.58Z" style="fill:rgb(38,50,56);fill-rule:nonzero;"/>
            <circle cx="582.96" cy="94.45" r="1.97" style="fill:rgb(237,50,55);"/>
            <path d="M579.1,101.83L581.81,101.83C581.811,101.85 581.811,101.869 581.811,101.889C581.811,102.618 581.211,103.219 580.481,103.219C580.431,103.219 580.38,103.216 580.33,103.21C580.283,103.216 580.235,103.219 580.187,103.219C579.573,103.219 579.067,102.714 579.067,102.099C579.067,102.008 579.078,101.918 579.1,101.83Z" style="fill:rgb(38,50,56);"/>
            <path d="M616.71,93.889C616.71,90.534 613.986,87.81 610.631,87.81L601.869,87.81C598.514,87.81 595.79,90.534 595.79,93.889L595.79,102.651C595.79,106.006 598.514,108.73 601.869,108.73L610.631,108.73C613.986,108.73 616.71,106.006 616.71,102.651L616.71,93.889Z" style="fill:rgb(237,50,55);"/>
            <path d="M373,269.54C364,269.54 360,262.48 356.16,255.65C352.96,250.02 349.66,244.2 344.25,244.2C338.25,244.2 335.25,246.47 331.81,249.1C328.07,251.97 323.81,255.22 315.51,255.22C306.38,255.22 302.6,246.66 298.59,237.6C295.51,230.6 292.01,222.72 286.77,222.72C281.53,222.72 278.03,230.62 274.95,237.59C270.95,246.66 267.15,255.22 258.03,255.22C249.43,255.22 245.2,250.66 241.45,246.65C238.03,242.97 235.06,239.79 229.28,239.79L229.28,238.94C235.43,238.94 238.51,242.24 242.08,246.07C245.65,249.9 249.81,254.36 258.03,254.36C266.6,254.36 270.27,246.05 274.17,237.25C277.35,230.04 280.97,221.87 286.77,221.87C292.57,221.87 296.18,230.04 299.37,237.25C303.26,246.05 306.94,254.36 315.51,254.36C323.51,254.36 327.65,251.21 331.28,248.43C334.91,245.65 337.91,243.35 344.28,243.35C350.19,243.35 353.61,249.35 356.93,255.23C360.68,261.85 364.56,268.68 373.03,268.68C381.5,268.68 385.35,262.28 389.11,256.08C392.57,250.38 395.83,245 401.77,245C407.9,245 410.98,248.42 414.55,252.38C418.12,256.34 422.28,260.97 430.55,260.97C439.14,260.97 442.81,252.12 446.7,242.74C449.9,235.02 453.52,226.27 459.3,226.27C465.08,226.27 468.6,232.99 471.92,239.49C475.67,246.81 479.53,254.36 488.05,254.36C496.27,254.36 500.38,249.96 504.05,246.07C507.72,242.18 510.7,238.94 516.85,238.94L516.85,239.79C511.07,239.79 508.11,242.97 504.68,246.65C500.93,250.65 496.68,255.22 488.1,255.22C479.1,255.22 475.1,247.42 471.22,239.88C468,233.61 464.69,227.12 459.35,227.12C454.01,227.12 450.63,235.59 447.54,243.06C443.54,252.71 439.76,261.82 430.6,261.82C421.98,261.82 417.74,257.11 414,252.96C410.56,249.14 407.6,245.85 401.85,245.85C396.39,245.85 393.25,251.03 389.92,256.52C386,262.92 381.94,269.54 373,269.54Z" style="fill:rgb(237,50,55);fill-rule:nonzero;"/>
            <path d="M230.4,281.36L230.62,281.1C230.786,281.372 231.082,281.538 231.4,281.54C231.84,281.54 232.06,281.28 232.06,280.75L232.06,278.59L230.75,278.59L230.75,278.26L232.43,278.26L232.43,280.74C232.43,281.5 232.08,281.87 231.43,281.87C231.023,281.886 230.634,281.694 230.4,281.36Z" style="fill:rgb(224,224,224);fill-rule:nonzero;"/>
            <path d="M235.52,280.17L235.52,281.84L235.18,281.84L235.18,281.42C234.975,281.727 234.617,281.896 234.25,281.86C233.64,281.86 233.25,281.55 233.25,281.08C233.25,280.61 233.51,280.32 234.25,280.32L235.1,280.32L235.1,280.16C235.1,279.7 234.84,279.45 234.34,279.45C234.013,279.445 233.695,279.555 233.44,279.76L233.28,279.49C233.591,279.247 233.976,279.12 234.37,279.13C234.42,279.122 234.471,279.118 234.521,279.118C235.07,279.118 235.521,279.57 235.521,280.118C235.521,280.136 235.521,280.153 235.52,280.17ZM235.16,281.03L235.16,280.59L234.32,280.59C233.8,280.59 233.63,280.8 233.63,281.07C233.63,281.34 233.88,281.58 234.31,281.58C234.689,281.596 235.037,281.359 235.16,281L235.16,281.03Z" style="fill:rgb(224,224,224);fill-rule:nonzero;"/>
            <path d="M239,280.28L239,281.84L238.63,281.84L238.63,280.31C238.636,280.273 238.639,280.235 238.639,280.197C238.639,279.791 238.305,279.457 237.899,279.457C237.876,279.457 237.853,279.458 237.83,279.46C237.807,279.458 237.784,279.457 237.761,279.457C237.279,279.457 236.881,279.855 236.881,280.337C236.881,280.378 236.884,280.419 236.89,280.46L236.89,281.87L236.52,281.87L236.52,279.18L236.87,279.18L236.87,279.67C237.09,279.337 237.471,279.143 237.87,279.16C237.916,279.154 237.962,279.15 238.008,279.15C238.557,279.15 239.008,279.602 239.008,280.15C239.008,280.194 239.006,280.237 239,280.28Z" style="fill:rgb(224,224,224);fill-rule:nonzero;"/>
            <path d="M269.45,278.59L269.45,280L271.31,280L271.31,280.33L269.45,280.33L269.45,281.85L269.08,281.85L269.08,278.27L271.53,278.27L271.53,278.6L269.45,278.59Z" style="fill:rgb(224,224,224);fill-rule:nonzero;"/>
            <path d="M274.49,280.61L272.24,280.61C272.277,281.155 272.755,281.574 273.3,281.54C273.611,281.546 273.909,281.418 274.12,281.19L274.32,281.42C274.068,281.706 273.702,281.867 273.32,281.86C273.293,281.862 273.266,281.862 273.239,281.862C272.51,281.862 271.909,281.262 271.909,280.532C271.909,280.518 271.91,280.504 271.91,280.49C271.909,280.467 271.908,280.443 271.908,280.42C271.908,279.712 272.49,279.13 273.198,279.13C273.205,279.13 273.213,279.13 273.22,279.13C273.228,279.13 273.235,279.13 273.243,279.13C273.945,279.13 274.523,279.708 274.523,280.41C274.523,280.437 274.522,280.463 274.52,280.49L274.49,280.61ZM272.24,280.34L274.15,280.34C274.02,279.923 273.632,279.637 273.195,279.637C272.758,279.637 272.37,279.923 272.24,280.34Z" style="fill:rgb(224,224,224);fill-rule:nonzero;"/>
            <path d="M278,280.49C278.001,280.514 278.002,280.537 278.002,280.561C278.002,281.274 277.415,281.861 276.702,281.861C276.688,281.861 276.674,281.86 276.66,281.86C276.254,281.863 275.875,281.654 275.66,281.31L275.66,281.84L275.32,281.84L275.32,278.05L275.68,278.05L275.68,279.66C275.898,279.322 276.278,279.121 276.68,279.13C276.687,279.13 276.694,279.13 276.701,279.13C277.415,279.13 278.001,279.717 278.001,280.43C278.001,280.45 278.001,280.47 278,280.49ZM277.64,280.49C277.614,279.961 277.171,279.54 276.641,279.54C276.093,279.54 275.641,279.991 275.641,280.54C275.641,281.088 276.092,281.539 276.64,281.54C277.174,281.519 277.601,281.075 277.601,280.541C277.601,280.524 277.601,280.507 277.6,280.49L277.64,280.49Z" style="fill:rgb(224,224,224);fill-rule:nonzero;"/>
            <path d="M312.7,278.26L312.7,281.84L312.33,281.84L312.33,279L310.93,281.4L310.75,281.4L309.34,279L309.34,281.85L309,281.85L309,278.27L309.31,278.27L310.87,280.92L312.41,278.27L312.7,278.26Z" style="fill:rgb(224,224,224);fill-rule:nonzero;"/>
            <path d="M315.82,280.17L315.82,281.84L315.47,281.84L315.47,281.42C315.267,281.723 314.914,281.892 314.55,281.86C313.94,281.86 313.55,281.55 313.55,281.08C313.55,280.61 313.81,280.32 314.55,280.32L315.41,280.32L315.41,280.16C315.41,279.7 315.15,279.45 314.65,279.45C314.323,279.445 314.005,279.555 313.75,279.76L313.59,279.49C313.901,279.247 314.286,279.12 314.68,279.13C314.727,279.123 314.774,279.12 314.821,279.12C315.37,279.12 315.821,279.571 315.821,280.12C315.821,280.137 315.821,280.153 315.82,280.17ZM315.46,281.03L315.46,280.59L314.61,280.59C314.09,280.59 313.92,280.8 313.92,281.07C313.92,281.34 314.17,281.58 314.6,281.58C314.981,281.594 315.33,281.359 315.46,281L315.46,281.03Z" style="fill:rgb(224,224,224);fill-rule:nonzero;"/>
            <path d="M318.16,279.13L318.16,279.48L318.08,279.48C318.063,279.479 318.047,279.479 318.03,279.479C317.553,279.479 317.16,279.871 317.16,280.349C317.16,280.393 317.163,280.437 317.17,280.48L317.17,281.85L316.81,281.85L316.81,279.16L317.16,279.16L317.16,279.69C317.342,279.313 317.743,279.088 318.16,279.13Z" style="fill:rgb(224,224,224);fill-rule:nonzero;"/>
            <path d="M349.3,280.88L347.3,280.88L346.87,281.88L346.48,281.88L348.12,278.3L348.49,278.3L350.13,281.88L349.73,281.88L349.3,280.88ZM349.16,280.58L348.3,278.65L347.44,280.58L349.16,280.58Z" style="fill:rgb(224,224,224);fill-rule:nonzero;"/>
            <path d="M353.37,280.49C353.371,280.514 353.372,280.537 353.372,280.561C353.372,281.274 352.785,281.861 352.072,281.861C352.058,281.861 352.044,281.86 352.03,281.86C351.628,281.869 351.248,281.668 351.03,281.33L351.03,282.83L350.66,282.83L350.66,279.15L351,279.15L351,279.68C351.214,279.334 351.594,279.125 352,279.13C352.024,279.129 352.048,279.128 352.071,279.128C352.785,279.128 353.371,279.715 353.371,280.428C353.371,280.449 353.371,280.469 353.37,280.49ZM353.01,280.49C352.984,279.961 352.541,279.54 352.011,279.54C351.463,279.54 351.011,279.991 351.011,280.54C351.011,281.088 351.462,281.539 352.01,281.54C352.555,281.535 353.001,281.085 353.001,280.54C353.001,280.523 353.001,280.507 353,280.49L353.01,280.49Z" style="fill:rgb(224,224,224);fill-rule:nonzero;"/>
            <path d="M355.47,279.13L355.47,279.48L355.38,279.48C354.82,279.48 354.48,279.83 354.48,280.48L354.48,281.85L354.11,281.85L354.11,279.16L354.46,279.16L354.46,279.69C354.644,279.309 355.05,279.084 355.47,279.13Z" style="fill:rgb(224,224,224);fill-rule:nonzero;"/>
            <path d="M392.51,278.26L392.51,281.84L392.15,281.84L392.15,279L390.74,281.4L390.56,281.4L389.15,279L389.15,281.85L388.79,281.85L388.79,278.27L389.1,278.27L390.66,280.92L392.2,278.27L392.51,278.26Z" style="fill:rgb(224,224,224);fill-rule:nonzero;"/>
            <path d="M395.63,280.17L395.63,281.84L395.28,281.84L395.28,281.42C395.077,281.723 394.724,281.892 394.36,281.86C393.75,281.86 393.36,281.55 393.36,281.08C393.36,280.61 393.62,280.32 394.36,280.32L395.22,280.32L395.22,280.16C395.22,279.7 394.96,279.45 394.46,279.45C394.133,279.445 393.815,279.555 393.56,279.76L393.4,279.49C393.711,279.247 394.096,279.12 394.49,279.13C394.537,279.123 394.584,279.12 394.631,279.12C395.18,279.12 395.631,279.571 395.631,280.12C395.631,280.137 395.631,280.153 395.63,280.17ZM395.27,281.03L395.27,280.59L394.42,280.59C393.9,280.59 393.73,280.8 393.73,281.07C393.73,281.34 393.98,281.58 394.41,281.58C394.791,281.594 395.14,281.359 395.27,281L395.27,281.03Z" style="fill:rgb(224,224,224);fill-rule:nonzero;"/>
            <path d="M398.83,279.15L397.48,282.15C397.26,282.68 396.97,282.85 396.59,282.85C396.349,282.855 396.115,282.765 395.94,282.6L396.1,282.33C396.231,282.458 396.407,282.53 396.59,282.53C396.83,282.53 397,282.42 397.15,282.08L397.27,281.82L396.07,279.14L396.45,279.14L397.45,281.42L398.45,279.14L398.83,279.15Z" style="fill:rgb(224,224,224);fill-rule:nonzero;"/>
            <path d="M426.26,281.36L426.48,281.1C426.641,281.371 426.934,281.539 427.25,281.54C427.69,281.54 427.92,281.28 427.92,280.75L427.92,278.59L426.61,278.59L426.61,278.26L428.29,278.26L428.29,280.74C428.29,281.5 427.93,281.87 427.29,281.87C426.882,281.89 426.491,281.697 426.26,281.36Z" style="fill:rgb(224,224,224);fill-rule:nonzero;"/>
            <path d="M431.77,279.15L431.77,281.84L431.43,281.84L431.43,281.35C431.217,281.691 430.831,281.888 430.43,281.86C430.379,281.868 430.328,281.872 430.277,281.872C429.728,281.872 429.277,281.42 429.277,280.872C429.277,280.818 429.281,280.763 429.29,280.71L429.29,279.15L429.66,279.15L429.66,280.67C429.66,281.25 429.95,281.54 430.47,281.54C430.483,281.541 430.496,281.541 430.508,281.541C430.991,281.541 431.388,281.144 431.388,280.661C431.388,280.62 431.386,280.58 431.38,280.54L431.38,279.13L431.77,279.15Z" style="fill:rgb(224,224,224);fill-rule:nonzero;"/>
            <path d="M435.27,280.28L435.27,281.84L434.9,281.84L434.9,280.31C434.906,280.273 434.909,280.235 434.909,280.197C434.909,279.791 434.575,279.457 434.169,279.457C434.146,279.457 434.123,279.458 434.1,279.46C434.077,279.458 434.054,279.457 434.031,279.457C433.549,279.457 433.151,279.855 433.151,280.337C433.151,280.378 433.154,280.419 433.16,280.46L433.16,281.87L432.79,281.87L432.79,279.18L433.14,279.18L433.14,279.67C433.362,279.338 433.741,279.145 434.14,279.16C434.186,279.154 434.232,279.15 434.278,279.15C434.827,279.15 435.278,279.602 435.278,280.15C435.278,280.194 435.276,280.237 435.27,280.28Z" style="fill:rgb(224,224,224);fill-rule:nonzero;"/>
            <path d="M466.16,281.36L466.39,281.1C466.55,281.373 466.844,281.541 467.16,281.54C467.6,281.54 467.82,281.28 467.82,280.75L467.82,278.59L466.51,278.59L466.51,278.26L468.19,278.26L468.19,280.74C468.19,281.5 467.84,281.87 467.19,281.87C466.783,281.886 466.394,281.694 466.16,281.36Z" style="fill:rgb(224,224,224);fill-rule:nonzero;"/>
            <path d="M471.68,279.15L471.68,281.84L471.33,281.84L471.33,281.35C471.117,281.691 470.731,281.888 470.33,281.86C470.283,281.867 470.235,281.87 470.187,281.87C469.638,281.87 469.187,281.419 469.187,280.87C469.187,280.817 469.191,280.763 469.2,280.71L469.2,279.15L469.56,279.15L469.56,280.67C469.56,281.25 469.86,281.54 470.37,281.54C470.386,281.541 470.402,281.541 470.418,281.541C470.901,281.541 471.298,281.144 471.298,280.661C471.298,280.621 471.296,280.58 471.29,280.54L471.29,279.13L471.68,279.15Z" style="fill:rgb(224,224,224);fill-rule:nonzero;"/>
            <rect x="472.7" y="278.05" width="0.36" height="3.79" style="fill:rgb(224,224,224);fill-rule:nonzero;"/>
            <path d="M507.08,280.88L505.08,280.88L504.65,281.88L504.26,281.88L505.89,278.3L506.27,278.3L507.9,281.88L507.5,281.88L507.08,280.88ZM506.95,280.58L506.09,278.65L505.23,280.58L506.95,280.58Z" style="fill:rgb(224,224,224);fill-rule:nonzero;"/>
            <path d="M510.8,279.15L510.8,281.84L510.46,281.84L510.46,281.35C510.247,281.691 509.861,281.888 509.46,281.86C509.413,281.867 509.365,281.87 509.317,281.87C508.768,281.87 508.317,281.419 508.317,280.87C508.317,280.817 508.321,280.763 508.33,280.71L508.33,279.15L508.69,279.15L508.69,280.67C508.69,281.25 508.98,281.54 509.5,281.54C509.513,281.541 509.526,281.541 509.538,281.541C510.021,281.541 510.418,281.144 510.418,280.661C510.418,280.62 510.416,280.58 510.41,280.54L510.41,279.13L510.8,279.15Z" style="fill:rgb(224,224,224);fill-rule:nonzero;"/>
            <path d="M514.31,279.15L514.31,281.51C514.319,281.571 514.324,281.632 514.324,281.693C514.324,282.34 513.792,282.873 513.144,282.873C513.086,282.873 513.028,282.869 512.97,282.86C512.516,282.878 512.071,282.729 511.72,282.44L511.9,282.17C512.198,282.414 512.575,282.542 512.96,282.53C513.64,282.53 513.96,282.22 513.96,281.53L513.96,281.18C513.727,281.527 513.328,281.729 512.91,281.71C512.872,281.713 512.834,281.715 512.796,281.715C512.077,281.715 511.486,281.124 511.486,280.405C511.486,279.686 512.077,279.095 512.796,279.095C512.834,279.095 512.872,279.097 512.91,279.1C513.336,279.08 513.743,279.286 513.98,279.64L513.98,279.12L514.31,279.15ZM513.96,280.43C513.96,279.881 513.509,279.43 512.96,279.43C512.411,279.43 511.96,279.881 511.96,280.43C511.96,280.979 512.411,281.43 512.96,281.43C512.973,281.431 512.987,281.431 513,281.431C513.549,281.431 514,280.979 514,280.431C514,280.431 514,280.43 514,280.43L513.96,280.43Z" style="fill:rgb(224,224,224);fill-rule:nonzero;"/>
            <path d="M211.66,279.69C211.66,278.91 212.07,278.44 212.66,278.44C213.25,278.44 213.66,278.91 213.66,279.69C213.66,280.47 213.25,280.94 212.66,280.94C212.07,280.94 211.66,280.48 211.66,279.69ZM213.36,279.69C213.36,279.04 213.07,278.69 212.64,278.69C212.21,278.69 211.91,279.05 211.91,279.69C211.91,280.33 212.21,280.69 212.64,280.69C213.07,280.69 213.36,280.35 213.36,279.69Z" style="fill:rgb(224,224,224);fill-rule:nonzero;"/>
            <path d="M209.43,266.84L209.43,269.3L209.18,269.3L209.18,267.06L208.6,267.06L208.6,266.84L209.43,266.84Z" style="fill:rgb(224,224,224);fill-rule:nonzero;"/>
            <path d="M210,268.07C210,267.29 210.41,266.82 211,266.82C211.59,266.82 212,267.29 212,268.07C212,268.85 211.59,269.32 211,269.32C210.41,269.32 210,268.85 210,268.07ZM211.7,268.07C211.7,267.41 211.41,267.07 210.98,267.07C210.55,267.07 210.25,267.43 210.25,268.07C210.25,268.71 210.55,269.07 210.98,269.07C211.41,269.07 211.72,268.72 211.72,268.07L211.7,268.07Z" style="fill:rgb(224,224,224);fill-rule:nonzero;"/>
            <path d="M210.43,259.46L210.43,259.68L208.71,259.68L208.71,259.5L209.71,258.5C209.98,258.23 210.04,258.06 210.04,257.9C210.04,257.74 209.84,257.44 209.46,257.44C209.207,257.42 208.958,257.52 208.79,257.71L208.61,257.56C208.832,257.318 209.152,257.19 209.48,257.21C209.98,257.21 210.3,257.46 210.3,257.87C210.288,258.176 210.137,258.46 209.89,258.64L209.06,259.46L210.43,259.46Z" style="fill:rgb(224,224,224);fill-rule:nonzero;"/>
            <path d="M210.73,258.45C210.73,257.67 211.14,257.21 211.73,257.21C212.32,257.21 212.73,257.67 212.73,258.45C212.73,259.23 212.32,259.7 211.73,259.7C211.14,259.7 210.73,259.24 210.73,258.45ZM212.43,258.45C212.43,257.8 212.14,257.45 211.71,257.45C211.28,257.45 210.99,257.81 210.99,258.45C210.99,259.09 211.28,259.45 211.71,259.45C212.14,259.45 212.43,259.11 212.43,258.45Z" style="fill:rgb(224,224,224);fill-rule:nonzero;"/>
            <path d="M210.38,249C210.38,249.41 210.08,249.73 209.48,249.73C209.157,249.737 208.843,249.623 208.6,249.41L208.72,249.21C208.925,249.403 209.198,249.507 209.48,249.5C209.89,249.5 210.12,249.31 210.12,249C210.12,248.69 209.91,248.51 209.45,248.51L209.28,248.51L209.28,248.33L209.96,247.47L208.7,247.47L208.7,247.25L210.28,247.25L210.28,247.43L209.59,248.3C210.11,248.36 210.38,248.64 210.38,249Z" style="fill:rgb(224,224,224);fill-rule:nonzero;"/>
            <path d="M210.73,248.51C210.73,247.73 211.14,247.26 211.73,247.26C212.32,247.26 212.73,247.73 212.73,248.51C212.73,249.29 212.32,249.76 211.73,249.76C211.14,249.76 210.73,249.29 210.73,248.51ZM212.43,248.51C212.43,247.85 212.14,247.51 211.71,247.51C211.28,247.51 210.99,247.87 210.99,248.51C210.99,249.15 211.28,249.51 211.71,249.51C212.14,249.51 212.43,249.16 212.43,248.51Z" style="fill:rgb(224,224,224);fill-rule:nonzero;"/>
            <path d="M210.84,239.48L210.35,239.48L210.35,240.12L210.1,240.12L210.1,239.48L208.71,239.48L208.71,239.3L210.01,237.67L210.29,237.67L209,239.25L210.06,239.25L210.06,238.69L210.31,238.69L210.31,239.25L210.8,239.25L210.84,239.48Z" style="fill:rgb(224,224,224);fill-rule:nonzero;"/>
            <path d="M211.07,238.9C211.07,238.11 211.48,237.65 212.07,237.65C212.66,237.65 213.07,238.11 213.07,238.9C213.07,239.69 212.66,240.15 212.07,240.15C211.48,240.15 211.07,239.68 211.07,238.9ZM212.77,238.9C212.77,238.24 212.48,237.9 212.05,237.9C211.62,237.9 211.33,238.26 211.33,238.9C211.33,239.54 211.62,239.9 212.05,239.9C212.48,239.9 212.77,239.55 212.77,238.9Z" style="fill:rgb(224,224,224);fill-rule:nonzero;"/>
            <path d="M210.42,230.18C210.42,230.6 210.13,230.92 209.53,230.92C209.208,230.932 208.893,230.821 208.65,230.61L208.77,230.41C208.975,230.595 209.244,230.695 209.52,230.69C209.94,230.69 210.16,230.49 210.16,230.19C210.16,229.89 209.97,229.68 209.34,229.68L208.82,229.68L208.94,228.44L210.29,228.44L210.29,228.67L209.17,228.67L209.08,229.45L209.4,229.45C210.14,229.45 210.42,229.74 210.42,230.18Z" style="fill:rgb(224,224,224);fill-rule:nonzero;"/>
            <path d="M210.74,229.67C210.74,228.89 211.15,228.42 211.74,228.42C212.33,228.42 212.74,228.89 212.74,229.67C212.74,230.45 212.32,230.92 211.74,230.92C211.16,230.92 210.74,230.46 210.74,229.67ZM212.44,229.67C212.44,229.02 212.14,228.67 211.72,228.67C211.3,228.67 210.99,229.03 210.99,229.67C210.99,230.31 211.29,230.67 211.72,230.67C212.15,230.67 212.44,230.33 212.44,229.67Z" style="fill:rgb(224,224,224);fill-rule:nonzero;"/>
            <path d="M210.6,220.56C210.597,220.975 210.255,221.314 209.84,221.314C209.813,221.314 209.787,221.313 209.76,221.31C209.11,221.31 208.76,220.86 208.76,220.08C208.76,219.3 209.22,218.81 209.88,218.81C210.085,218.802 210.288,218.847 210.47,218.94L210.37,219.15C210.226,219.063 210.058,219.021 209.89,219.03C209.36,219.03 209.02,219.37 209.02,220.03C209.015,220.097 209.015,220.163 209.02,220.23C209.163,219.953 209.459,219.787 209.77,219.81C209.797,219.807 209.823,219.806 209.85,219.806C210.261,219.806 210.6,220.144 210.6,220.556C210.6,220.557 210.6,220.559 210.6,220.56ZM210.35,220.56C210.35,220.24 210.11,220.03 209.73,220.03C209.71,220.028 209.69,220.027 209.669,220.027C209.367,220.027 209.114,220.268 209.1,220.57C209.1,220.84 209.32,221.1 209.75,221.1C209.77,221.102 209.79,221.103 209.81,221.103C210.106,221.103 210.35,220.86 210.35,220.563C210.35,220.562 210.35,220.561 210.35,220.56Z" style="fill:rgb(224,224,224);fill-rule:nonzero;"/>
            <path d="M210.89,220.06C210.89,219.28 211.3,218.81 211.89,218.81C212.48,218.81 212.89,219.28 212.89,220.06C212.89,220.84 212.48,221.31 211.89,221.31C211.3,221.31 210.89,220.84 210.89,220.06ZM212.59,220.06C212.59,219.4 212.3,219.06 211.87,219.06C211.44,219.06 211.14,219.42 211.14,220.06C211.14,220.7 211.44,221.06 211.87,221.06C212.3,221.06 212.59,220.72 212.59,220.06Z" style="fill:rgb(224,224,224);fill-rule:nonzero;"/>
            <g opacity="0.62">
                <rect x="223.47" y="220.66" width="294.25" height="0.25" style="fill:rgb(224,224,224);"/>
                <rect x="223.47" y="230.25" width="294.25" height="0.25" style="fill:rgb(224,224,224);"/>
                <rect x="223.47" y="239.84" width="294.25" height="0.25" style="fill:rgb(224,224,224);"/>
                <rect x="223.47" y="249.43" width="294.25" height="0.25" style="fill:rgb(224,224,224);"/>
                <rect x="223.47" y="259.02" width="294.25" height="0.25" style="fill:rgb(224,224,224);"/>
                <rect x="223.47" y="268.62" width="294.25" height="0.25" style="fill:rgb(224,224,224);"/>
            </g>
            <path d="M289.63,222.72C289.63,222.717 289.63,222.713 289.63,222.71C289.63,221.103 288.307,219.78 286.7,219.78C285.093,219.78 283.77,221.103 283.77,222.71C283.77,224.317 285.093,225.64 286.7,225.64C288.304,225.64 289.625,224.324 289.63,222.72Z" style="fill:rgb(237,50,55);fill-rule:nonzero;"/>
            <path d="M375.68,268.83C375.675,267.232 374.358,265.92 372.76,265.92C371.158,265.92 369.84,267.238 369.84,268.84C369.84,270.442 371.158,271.76 372.76,271.76C372.76,271.76 372.76,271.76 372.76,271.76C374.362,271.76 375.68,270.442 375.68,268.84C375.68,268.837 375.68,268.833 375.68,268.83Z" style="fill:rgb(69,90,100);fill-rule:nonzero;"/>
            <path d="M164.14,143.46C164.049,143.461 163.96,143.429 163.89,143.37L157.17,137.28L150.44,143.37C150.291,143.508 150.059,143.508 149.91,143.37C149.839,143.3 149.798,143.205 149.798,143.105C149.798,143.005 149.839,142.91 149.91,142.84L156.91,136.53C157.054,136.4 157.276,136.4 157.42,136.53L164.42,142.84C164.491,142.91 164.532,143.005 164.532,143.105C164.532,143.205 164.491,143.3 164.42,143.37C164.343,143.436 164.242,143.469 164.14,143.46Z" style="fill:rgb(250,250,250);fill-rule:nonzero;"/>
            <path d="M162.23,148.79L152.1,148.79C151.897,148.79 151.73,148.623 151.73,148.42L151.73,141.42C151.73,141.417 151.73,141.413 151.73,141.41C151.73,141.207 151.897,141.04 152.1,141.04C152.1,141.04 152.1,141.04 152.1,141.04C152.308,141.04 152.48,141.212 152.48,141.42L152.48,148L161.86,148L161.86,141.33C161.86,141.327 161.86,141.323 161.86,141.32C161.86,141.117 162.027,140.95 162.23,140.95C162.23,140.95 162.23,140.95 162.23,140.95C162.438,140.95 162.61,141.122 162.61,141.33L162.61,148.33C162.616,148.356 162.619,148.383 162.619,148.41C162.619,148.619 162.447,148.79 162.239,148.79C162.236,148.79 162.233,148.79 162.23,148.79Z" style="fill:rgb(250,250,250);fill-rule:nonzero;"/>
            <path d="M163.46,192.46L150.26,192.46C150.055,192.46 149.885,192.295 149.88,192.09L149.88,183.66C149.88,182.623 150.733,181.77 151.77,181.77L155.21,181.77C156.08,181.756 156.875,182.277 157.21,183.08L157.8,184.49L161.97,184.49C163.007,184.49 163.86,185.343 163.86,186.38L163.86,192.09C163.86,192.09 163.86,192.091 163.86,192.091C163.86,192.294 163.693,192.461 163.49,192.461C163.48,192.461 163.47,192.461 163.46,192.46ZM150.63,191.71L163.08,191.71L163.08,186.38C163.08,185.755 162.565,185.24 161.94,185.24L157.52,185.24C157.368,185.24 157.23,185.15 157.17,185.01L156.48,183.37C156.271,182.854 155.766,182.516 155.21,182.52L151.77,182.52C151.145,182.52 150.63,183.035 150.63,183.66L150.63,191.71Z" style="fill:rgb(250,250,250);fill-rule:nonzero;"/>
            <path d="M153.12,347.12C152.912,347.119 152.709,347.052 152.54,346.93C152.224,346.703 152.067,346.312 152.14,345.93L152.69,342.42C152.704,342.343 152.678,342.263 152.62,342.21L150.11,339.69C149.925,339.503 149.821,339.25 149.821,338.987C149.821,338.499 150.178,338.079 150.66,338L154.17,337.44C154.248,337.43 154.316,337.381 154.35,337.31L155.97,334.14C156.141,333.807 156.485,333.596 156.86,333.596C157.235,333.596 157.579,333.807 157.75,334.14L159.36,337.31C159.398,337.378 159.464,337.426 159.54,337.44L163.05,338C163.532,338.079 163.889,338.499 163.889,338.987C163.889,339.25 163.785,339.503 163.6,339.69L161.09,342.21C161.037,342.266 161.011,342.343 161.02,342.42L161.58,345.93C161.653,346.312 161.496,346.703 161.18,346.93C160.885,347.134 160.503,347.164 160.18,347.01L157.01,345.41C156.938,345.371 156.852,345.371 156.78,345.41L153.62,347.01C153.466,347.089 153.293,347.127 153.12,347.12ZM156.86,344.63C157.017,344.631 157.171,344.669 157.31,344.74L160.48,346.35C160.515,346.368 160.554,346.377 160.593,346.377C160.73,346.377 160.843,346.264 160.843,346.127C160.843,346.115 160.842,346.102 160.84,346.09L160.28,342.58C160.231,342.265 160.335,341.945 160.56,341.72L163.07,339.2C163.116,339.153 163.141,339.091 163.141,339.025C163.141,338.906 163.057,338.803 162.94,338.78L159.43,338.22C159.113,338.172 158.837,337.975 158.69,337.69L157.08,334.52C157.038,334.438 156.952,334.387 156.86,334.39C156.767,334.385 156.68,334.436 156.64,334.52L155,337.69C154.855,337.972 154.583,338.169 154.27,338.22L150.76,338.78C150.665,338.789 150.585,338.857 150.56,338.95C150.53,339.038 150.553,339.135 150.62,339.2L153.13,341.72C153.355,341.945 153.459,342.265 153.41,342.58L152.86,346.09C152.846,346.182 152.885,346.275 152.96,346.33C153.04,346.376 153.14,346.376 153.22,346.33L156.38,344.72C156.531,344.653 156.695,344.623 156.86,344.63Z" style="fill:rgb(250,250,250);fill-rule:nonzero;"/>
            <path d="M164.27,294.42L149.44,294.42C149.235,294.415 149.07,294.245 149.07,294.04L149.07,284.69C149.07,284.487 149.237,284.32 149.44,284.32L164.27,284.32C164.273,284.32 164.277,284.32 164.28,284.32C164.483,284.32 164.65,284.487 164.65,284.69L164.65,294C164.651,294.013 164.652,294.027 164.652,294.04C164.652,294.248 164.481,294.42 164.272,294.42C164.271,294.42 164.271,294.42 164.27,294.42ZM149.82,293.67L163.9,293.67L163.9,285.07L149.82,285.07L149.82,293.67Z" style="fill:rgb(250,250,250);fill-rule:nonzero;"/>
            <path d="M157,291.79C156.907,291.791 156.817,291.755 156.75,291.69L149.15,284.97C149.042,284.9 148.976,284.78 148.976,284.651C148.976,284.442 149.147,284.271 149.356,284.271C149.47,284.271 149.578,284.322 149.65,284.41L156.99,290.91L163.99,284.42C164.06,284.349 164.155,284.308 164.255,284.308C164.355,284.308 164.45,284.349 164.52,284.42C164.663,284.567 164.663,284.803 164.52,284.95L157.28,291.67C157.207,291.746 157.106,291.79 157,291.79Z" style="fill:rgb(250,250,250);fill-rule:nonzero;"/>
            <path d="M149.66,294C149.559,294 149.462,293.96 149.39,293.89C149.319,293.82 149.278,293.725 149.278,293.625C149.278,293.525 149.319,293.43 149.39,293.36L153.9,288.85C153.97,288.78 154.066,288.74 154.165,288.74C154.371,288.74 154.54,288.909 154.54,289.115C154.54,289.214 154.5,289.31 154.43,289.38L149.92,293.89C149.851,293.959 149.758,293.998 149.66,294Z" style="fill:rgb(250,250,250);fill-rule:nonzero;"/>
            <path d="M164.37,294.32C164.269,294.319 164.173,294.279 164.1,294.21L159.28,289.39C159.21,289.32 159.17,289.224 159.17,289.125C159.17,288.919 159.339,288.75 159.545,288.75C159.644,288.75 159.74,288.79 159.81,288.86L164.63,293.68C164.701,293.75 164.742,293.845 164.742,293.945C164.742,294.045 164.701,294.14 164.63,294.21C164.561,294.279 164.468,294.318 164.37,294.32Z" style="fill:rgb(250,250,250);fill-rule:nonzero;"/>
            <rect x="156.07" y="234.43" width="2.19" height="2.19" style="fill:rgb(237,50,55);"/>
            <rect x="160.2" y="234.43" width="2.19" height="2.19" style="fill:rgb(237,50,55);"/>
            <rect x="151.94" y="234.43" width="2.19" height="2.19" style="fill:rgb(237,50,55);"/>
            <rect x="160.2" y="237.88" width="2.19" height="2.19" style="fill:rgb(237,50,55);"/>
            <rect x="156.07" y="237.88" width="2.19" height="2.19" style="fill:rgb(237,50,55);"/>
            <rect x="151.94" y="237.88" width="2.19" height="2.19" style="fill:rgb(237,50,55);"/>
            <path d="M164.94,243.81L149.39,243.81C149.387,243.81 149.383,243.81 149.38,243.81C149.177,243.81 149.01,243.643 149.01,243.44L149.01,230.65C149.015,230.445 149.185,230.28 149.39,230.28L164.94,230.28C165.145,230.28 165.315,230.445 165.32,230.65L165.32,243.44C165.32,243.643 165.153,243.81 164.95,243.81C164.947,243.81 164.943,243.81 164.94,243.81ZM149.76,243.06L164.57,243.06L164.57,231L149.76,231L149.76,243.06Z" style="fill:rgb(237,50,55);fill-rule:nonzero;"/>
            <path d="M153.59,232.57C153.385,232.565 153.22,232.395 153.22,232.19L153.22,228.07C153.217,228.05 153.215,228.029 153.215,228.009C153.215,227.8 153.387,227.629 153.595,227.629C153.803,227.629 153.975,227.8 153.975,228.009C153.975,228.029 153.973,228.05 153.97,228.07L153.97,232.19C153.97,232.398 153.798,232.57 153.59,232.57Z" style="fill:rgb(237,50,55);fill-rule:nonzero;"/>
            <path d="M160.35,232.57C160.145,232.565 159.98,232.395 159.98,232.19L159.98,228.07C159.977,228.05 159.975,228.029 159.975,228.009C159.975,227.8 160.147,227.629 160.355,227.629C160.563,227.629 160.735,227.8 160.735,228.009C160.735,228.029 160.733,228.05 160.73,228.07L160.73,232.19C160.73,232.398 160.558,232.57 160.35,232.57Z" style="fill:rgb(237,50,55);fill-rule:nonzero;"/>
            <rect x="267.27" y="368.26" width="4.98" height="16.7" style="fill:rgb(237,50,55);"/>
            <rect x="225.63" y="365.84" width="4.98" height="19.12" style="fill:rgb(237,50,55);"/>
            <rect x="236.04" y="361.85" width="4.98" height="23.1" style="fill:rgb(237,50,55);"/>
            <rect x="246.45" y="363.12" width="4.98" height="21.83" style="fill:rgb(237,50,55);"/>
            <rect x="256.86" y="355.74" width="4.98" height="29.22" style="fill:rgb(237,50,55);"/>
            <rect x="277.68" y="355.88" width="4.98" height="29.08" style="fill:rgb(237,50,55);"/>
            <rect x="288.09" y="365.43" width="4.98" height="19.53" style="fill:rgb(237,50,55);"/>
            <rect x="298.49" y="357.16" width="4.98" height="27.8" style="fill:rgb(237,50,55);"/>
            <rect x="308.9" y="350.9" width="4.98" height="34.06" style="fill:rgb(237,50,55);"/>
            <rect x="319.31" y="357.02" width="4.98" height="27.94" style="fill:rgb(237,50,55);"/>
            <path d="M334.72,405.66L212.1,405.66C206.558,405.644 202.005,401.082 202,395.54L202,322.23C202.005,316.68 206.57,312.115 212.12,312.11L334.72,312.11C340.27,312.115 344.835,316.68 344.84,322.23L344.84,395.54C344.835,401.09 340.27,405.655 334.72,405.66ZM212.1,313.11C207.099,313.115 202.985,317.229 202.98,322.23L202.98,395.54C202.985,400.541 207.099,404.655 212.1,404.66L334.72,404.66C339.721,404.655 343.835,400.541 343.84,395.54L343.84,322.23C343.835,317.229 339.721,313.115 334.72,313.11L212.1,313.11Z" style="fill:rgb(224,224,224);fill-rule:nonzero;"/>
            <path d="M281.9,336.48C281.9,336.63 267.72,336.74 250.23,336.74C232.74,336.74 218.55,336.63 218.55,336.48C218.55,336.33 232.73,336.22 250.23,336.22C267.73,336.22 281.9,336.34 281.9,336.48Z" style="fill:rgb(224,224,224);fill-rule:nonzero;"/>
            <path d="M393.77,350.79C392.49,351.524 391.313,352.426 390.27,353.47C389.225,354.515 388.321,355.691 387.58,356.97C386.84,358.25 386.271,359.622 385.89,361.05C385.13,363.92 385.13,366.94 385.89,369.81C386.271,371.238 386.84,372.61 387.58,373.89C388.321,375.169 389.225,376.345 390.27,377.39C391.313,378.437 392.49,379.342 393.77,380.08C395.049,380.814 396.417,381.382 397.84,381.77C400.712,382.543 403.738,382.543 406.61,381.77C408.034,381.386 409.402,380.818 410.68,380.08C411.947,379.352 413.111,378.457 414.14,377.42C415.188,376.378 416.093,375.201 416.83,373.92C417.573,372.641 418.145,371.269 418.53,369.84C419.303,366.971 419.303,363.949 418.53,361.08C418.145,359.651 417.573,358.279 416.83,357C416.093,355.719 415.188,354.542 414.14,353.5C413.099,352.453 411.922,351.552 410.64,350.82C406.76,348.564 402.134,347.952 397.8,349.12C396.39,349.501 395.036,350.062 393.77,350.79Z" style="fill:none;fill-rule:nonzero;"/>
            <path d="M410.68,380.08C409.402,380.818 408.034,381.386 406.61,381.77C403.738,382.543 400.712,382.543 397.84,381.77C396.417,381.382 395.049,380.814 393.77,380.08C392.49,379.342 391.313,378.437 390.27,377.39C389.225,376.345 388.321,375.169 387.58,373.89C386.84,372.61 386.271,371.238 385.89,369.81C385.13,366.94 385.13,363.92 385.89,361.05C386.271,359.622 386.84,358.25 387.58,356.97C388.321,355.691 389.225,354.515 390.27,353.47C391.313,352.426 392.49,351.524 393.77,350.79C395.047,350.048 396.415,349.477 397.84,349.09C399.271,348.703 400.747,348.508 402.23,348.51L402.23,345.18C396.858,345.178 391.7,347.312 387.9,351.11C386.652,352.361 385.573,353.769 384.69,355.3C383.811,356.831 383.138,358.472 382.69,360.18C381.783,363.618 381.783,367.232 382.69,370.67C383.137,372.381 383.81,374.026 384.69,375.56C387.391,380.202 391.817,383.596 397,385C400.434,385.907 404.046,385.907 407.48,385C409.188,384.552 410.829,383.879 412.36,383C413.881,382.129 415.28,381.06 416.52,379.82L414.15,377.46C413.115,378.484 411.948,379.365 410.68,380.08Z" style="fill:rgb(237,50,55);fill-rule:nonzero;"/>
            <path d="M421.79,360.18C419.907,353.207 414.443,347.743 407.47,345.86C405.76,345.41 403.999,345.181 402.23,345.18L402.23,348.51C405.199,348.509 408.115,349.296 410.68,350.79C411.962,351.522 413.139,352.423 414.18,353.47C415.228,354.512 416.133,355.689 416.87,356.97C417.613,358.249 418.185,359.621 418.57,361.05C419.343,363.919 419.343,366.941 418.57,369.81C418.185,371.239 417.613,372.611 416.87,373.89C416.133,375.171 415.228,376.348 414.18,377.39L416.55,379.75C420.345,375.953 422.479,370.799 422.48,365.43C422.476,363.658 422.244,361.893 421.79,360.18Z" style="fill:rgb(224,224,224);fill-rule:nonzero;"/>
            <path d="M399,367.58C398.989,368.57 398.171,369.379 397.18,369.379C397.12,369.379 397.06,369.376 397,369.37C395.44,369.37 394.6,368.3 394.6,366.45C394.6,364.6 395.69,363.45 397.27,363.45C397.754,363.428 398.235,363.538 398.66,363.77L398.41,364.25C398.069,364.047 397.676,363.949 397.28,363.97C396.02,363.97 395.21,364.78 395.21,366.37C395.202,366.53 395.202,366.69 395.21,366.85C395.548,366.191 396.251,365.796 396.99,365.85C397.07,365.839 397.15,365.834 397.23,365.834C398.192,365.834 398.987,366.618 399,367.58ZM398.41,367.58C398.41,366.82 397.84,366.32 396.94,366.32C396.89,366.314 396.839,366.311 396.789,366.311C396.071,366.311 395.473,366.883 395.44,367.6C395.44,368.24 395.97,368.85 396.98,368.85C397.023,368.854 397.067,368.857 397.11,368.857C397.807,368.857 398.383,368.287 398.39,367.59L398.41,367.58Z" style="fill:rgb(38,50,56);fill-rule:nonzero;"/>
            <path d="M403.64,367.6C403.64,368.6 402.95,369.37 401.52,369.37C400.753,369.397 400.005,369.128 399.43,368.62L399.72,368.14C400.201,368.597 400.847,368.842 401.51,368.82C402.51,368.82 403.03,368.34 403.03,367.63C403.03,366.92 402.57,366.41 401.08,366.41L399.84,366.41L400.14,363.48L403.33,363.48L403.33,364L400.66,364L400.46,365.86L401.21,365.86C403,365.87 403.64,366.57 403.64,367.6Z" style="fill:rgb(38,50,56);fill-rule:nonzero;"/>
            <path d="M404.24,365C404.24,364.05 404.77,363.42 405.55,363.42C406.33,363.42 406.87,364.04 406.87,365C406.87,365.96 406.33,366.59 405.55,366.59C404.77,366.59 404.24,366 404.24,365ZM406.46,365C406.46,364.24 406.1,363.79 405.55,363.79C405,363.79 404.65,364.25 404.65,365C404.65,365.75 405,366.21 405.55,366.21C406.1,366.21 406.46,365.78 406.46,365ZM409.09,363.46L409.59,363.46L405.59,369.3L405.09,369.3L409.09,363.46ZM407.82,367.76C407.82,366.81 408.36,366.17 409.14,366.17C409.92,366.17 410.45,366.81 410.45,367.76C410.45,368.71 409.92,369.34 409.14,369.34C408.36,369.34 407.82,368.73 407.82,367.78L407.82,367.76ZM410.04,367.76C410.04,367.01 409.69,366.55 409.14,366.55C408.59,366.55 408.23,367 408.23,367.76C408.23,368.52 408.59,368.97 409.14,368.97C409.69,368.97 410,368.53 410,367.78L410.04,367.76Z" style="fill:rgb(38,50,56);fill-rule:nonzero;"/>
            <path d="M480.8,365.44C480.8,367.205 480.571,368.963 480.12,370.67C478.738,375.87 475.339,380.31 470.68,383C469.146,383.881 467.502,384.554 465.79,385C462.356,385.907 458.744,385.907 455.31,385C453.602,384.554 451.96,383.881 450.43,383C447.346,381.233 444.787,378.674 443.02,375.59C442.139,374.06 441.466,372.419 441.02,370.71C440.69,369.456 440.475,368.174 440.38,366.88L443.73,366.88C443.816,367.892 443.987,368.896 444.24,369.88C444.62,371.306 445.189,372.674 445.93,373.95C446.671,375.234 447.579,376.414 448.63,377.46C449.677,378.502 450.854,379.406 452.13,380.15C453.408,380.888 454.776,381.456 456.2,381.84C459.07,382.6 462.09,382.6 464.96,381.84C466.388,381.458 467.76,380.89 469.04,380.15C470.316,379.406 471.493,378.502 472.54,377.46C473.588,376.414 474.492,375.234 475.23,373.95C475.975,372.676 476.544,371.307 476.92,369.88C477.693,367.011 477.693,363.989 476.92,361.12C476.539,359.674 475.96,358.288 475.2,357C474.462,355.716 473.558,354.536 472.51,353.49C470.413,351.388 467.798,349.877 464.93,349.11C463.502,348.726 462.029,348.535 460.55,348.54L460.55,345.2C462.319,345.199 464.08,345.428 465.79,345.88C467.502,346.326 469.146,346.999 470.68,347.88C475.325,350.568 478.721,354.989 480.12,360.17C480.574,361.89 480.803,363.661 480.8,365.44Z" style="fill:rgb(224,224,224);fill-rule:nonzero;"/>
            <path d="M456,363.15L456,363.57L453.54,369L452.89,369L455.29,363.69L452.29,363.69L452.29,364.78L451.7,364.78L451.7,363.16L456,363.15Z" style="fill:rgb(38,50,56);fill-rule:nonzero;"/>
            <path d="M460.58,367.27C460.58,368.27 459.89,369.04 458.46,369.04C457.693,369.067 456.945,368.798 456.37,368.29L456.66,367.81C457.146,368.267 457.794,368.511 458.46,368.49C459.46,368.49 459.97,368 459.97,367.3C459.97,366.6 459.51,366.08 457.97,366.08L456.73,366.08L457.03,363.15L460.23,363.15L460.23,363.68L457.6,363.68L457.4,365.54L458.15,365.54C459.92,365.54 460.58,366.24 460.58,367.27Z" style="fill:rgb(38,50,56);fill-rule:nonzero;"/>
            <path d="M461.18,364.69C461.18,363.74 461.71,363.1 462.5,363.1C463.29,363.1 463.82,363.73 463.82,364.69C463.82,365.65 463.27,366.28 462.5,366.28C461.73,366.28 461.18,365.64 461.18,364.69ZM463.4,364.69C463.4,363.93 463.04,363.48 462.5,363.48C461.96,363.48 461.6,363.94 461.6,364.69C461.6,365.44 461.95,365.9 462.5,365.9C463.05,365.9 463.4,365.45 463.4,364.69ZM466.04,363.15L466.53,363.15L462.53,368.99L462.04,368.99L466.04,363.15ZM464.76,367.45C464.76,366.45 465.3,365.86 466.08,365.86C466.86,365.86 467.4,366.49 467.4,367.45C467.4,368.41 466.86,369.03 466.08,369.03C465.3,369.03 464.76,368.4 464.76,367.45ZM466.98,367.45C466.98,366.69 466.63,366.24 466.08,366.24C465.53,366.24 465.18,366.69 465.18,367.45C465.18,368.21 465.54,368.66 466.08,368.66C466.62,368.66 467,368.2 467,367.45L466.98,367.45Z" style="fill:rgb(38,50,56);fill-rule:nonzero;"/>
            <path d="M477.47,365.44C477.471,366.916 477.276,368.386 476.89,369.81C476.514,371.237 475.945,372.606 475.2,373.88C474.462,375.164 473.558,376.344 472.51,377.39C471.463,378.432 470.286,379.336 469.01,380.08C467.73,380.82 466.358,381.388 464.93,381.77C462.06,382.53 459.04,382.53 456.17,381.77C454.746,381.386 453.378,380.818 452.1,380.08C450.824,379.336 449.647,378.432 448.6,377.39C447.549,376.344 446.641,375.164 445.9,373.88C445.159,372.604 444.59,371.236 444.21,369.81C443.957,368.826 443.786,367.822 443.7,366.81C443.7,366.34 443.64,365.88 443.64,365.4C443.64,363.922 443.832,362.449 444.21,361.02C444.988,358.156 446.498,355.544 448.59,353.44C451.764,350.244 456.086,348.443 460.59,348.44L460.59,345.11C455.221,345.111 450.067,347.245 446.27,351.04C443.752,353.551 441.944,356.684 441.03,360.12C440.571,361.829 440.339,363.591 440.34,365.36C440.34,365.83 440.34,366.3 440.39,366.77C440.485,368.064 440.7,369.346 441.03,370.6C441.476,372.309 442.149,373.95 443.03,375.48C444.797,378.564 447.356,381.123 450.44,382.89C451.97,383.771 453.612,384.444 455.32,384.89C458.754,385.797 462.366,385.797 465.8,384.89C467.512,384.444 469.156,383.771 470.69,382.89C475.335,380.202 478.731,375.781 480.13,370.6C480.581,368.893 480.81,367.135 480.81,365.37L477.47,365.44Z" style="fill:rgb(237,50,55);fill-rule:nonzero;"/>
            <path d="M496.75,404.38L366,404.38C361.176,404.375 357.21,400.404 357.21,395.58L357.21,322.19C357.215,317.37 361.18,313.405 366,313.4L496.75,313.4C501.574,313.4 505.545,317.366 505.55,322.19L505.55,395.58C505.545,400.405 501.575,404.375 496.75,404.38ZM366,314.4C361.729,314.405 358.215,317.919 358.21,322.19L358.21,395.58C358.215,399.853 361.727,403.369 366,403.38L496.75,403.38C501.027,403.375 504.545,399.857 504.55,395.58L504.55,322.19C504.545,317.915 501.025,314.4 496.75,314.4L366,314.4Z" style="fill:rgb(224,224,224);fill-rule:nonzero;"/>
            <path d="M432.76,334C432.76,334.15 419.09,334.26 402.23,334.26C385.37,334.26 371.7,334.15 371.7,334C371.7,333.85 385.37,333.74 402.23,333.74C419.09,333.74 432.76,333.87 432.76,334Z" style="fill:rgb(224,224,224);fill-rule:nonzero;"/>
            <path d="M540.79,233.88C539.647,233.88 538.705,232.943 538.7,231.8L538.7,192.74C538.705,191.597 539.647,190.66 540.79,190.66C541.931,190.66 542.87,191.599 542.87,192.74L542.87,231.8C542.87,232.941 541.931,233.88 540.79,233.88Z" style="fill:rgb(224,224,224);fill-rule:nonzero;"/>
            <path d="M540.79,234.07C539.651,234.07 538.711,233.139 538.7,232L538.7,206.81C538.705,205.666 539.646,204.725 540.79,204.72C541.933,204.725 542.87,205.667 542.87,206.81L542.87,232C542.865,233.137 541.927,234.07 540.79,234.07Z" style="fill:rgb(237,50,55);fill-rule:nonzero;"/>
            <path d="M539.48,235.7L539.48,239.17L539.12,239.17L539.12,236L538.3,236L538.3,235.68L539.48,235.7Z" style="fill:rgb(38,50,56);fill-rule:nonzero;"/>
            <path d="M540.3,237.43C540.3,236.33 540.88,235.67 541.69,235.67C542.5,235.67 543.08,236.33 543.08,237.43C543.08,238.53 542.49,239.2 541.69,239.2C540.89,239.2 540.3,238.54 540.3,237.43ZM542.71,237.43C542.71,236.51 542.29,236 541.71,236C541.13,236 540.71,236.51 540.71,237.43C540.71,238.35 541.12,238.87 541.71,238.87C542.3,238.87 542.71,238.36 542.71,237.43Z" style="fill:rgb(38,50,56);fill-rule:nonzero;"/>
            <path d="M549.11,233.88C549.1,233.88 549.09,233.88 549.08,233.88C547.939,233.88 547,232.941 547,231.8L547,192.74C547,191.599 547.939,190.66 549.08,190.66C550.221,190.66 551.16,191.599 551.16,192.74L551.16,231.8C551.16,232.93 550.24,233.864 549.11,233.88Z" style="fill:rgb(224,224,224);fill-rule:nonzero;"/>
            <path d="M549.11,234.07C549.1,234.07 549.09,234.07 549.08,234.07C547.943,234.07 547.005,233.137 547,232L547,198.88C547,197.737 547.937,196.795 549.08,196.79C550.223,196.795 551.16,197.737 551.16,198.88L551.16,232C551.155,233.126 550.236,234.054 549.11,234.07Z" style="fill:rgb(237,50,55);fill-rule:nonzero;"/>
            <path d="M548.61,238.85L548.61,239.17L546.18,239.17L546.18,238.92L547.62,237.5C548.01,237.12 548.09,236.88 548.09,236.65C548.09,236.24 547.8,236 547.27,236C546.915,235.977 546.569,236.117 546.33,236.38L546.07,236.16C546.389,235.826 546.839,235.647 547.3,235.67C548.01,235.67 548.45,236.03 548.45,236.61C548.435,237.038 548.225,237.436 547.88,237.69L546.7,238.85L548.61,238.85Z" style="fill:rgb(38,50,56);fill-rule:nonzero;"/>
            <path d="M549,237.43C549,236.33 549.58,235.67 550.38,235.67C551.18,235.67 551.77,236.33 551.77,237.43C551.77,238.53 551.18,239.2 550.38,239.2C549.58,239.2 549,238.54 549,237.43ZM551.4,237.43C551.4,236.51 550.99,236 550.4,236C549.81,236 549.4,236.51 549.4,237.43C549.4,238.35 549.82,238.87 550.4,238.87C550.98,238.87 551.44,238.36 551.44,237.43L551.4,237.43Z" style="fill:rgb(38,50,56);fill-rule:nonzero;"/>
            <path d="M557.43,233.88C556.289,233.88 555.35,232.941 555.35,231.8L555.35,192.74C555.35,191.599 556.289,190.66 557.43,190.66C558.571,190.66 559.51,191.599 559.51,192.74L559.51,231.8C559.51,232.941 558.571,233.88 557.43,233.88Z" style="fill:rgb(224,224,224);fill-rule:nonzero;"/>
            <path d="M557.43,234.07C556.289,234.07 555.35,233.131 555.35,231.99L555.35,212.75C555.35,211.609 556.289,210.67 557.43,210.67C558.571,210.67 559.51,211.609 559.51,212.75L559.51,232C559.505,233.137 558.567,234.07 557.43,234.07Z" style="fill:rgb(237,50,55);fill-rule:nonzero;"/>
            <path d="M556.89,238.17C556.89,238.75 556.47,239.17 555.63,239.17C555.171,239.187 554.723,239.026 554.38,238.72L554.55,238.44C554.846,238.706 555.232,238.849 555.63,238.84C556.21,238.84 556.52,238.57 556.52,238.14C556.52,237.71 556.23,237.45 555.59,237.45L555.34,237.45L555.34,237.19L556.34,235.99L554.56,235.99L554.56,235.67L556.8,235.67L556.8,236L555.8,237.24C556.52,237.23 556.89,237.62 556.89,238.17Z" style="fill:rgb(38,50,56);fill-rule:nonzero;"/>
            <path d="M557.39,237.43C557.39,236.33 557.97,235.67 558.77,235.67C559.57,235.67 560.16,236.33 560.16,237.43C560.16,238.53 559.58,239.2 558.77,239.2C557.96,239.2 557.39,238.54 557.39,237.43ZM559.79,237.43C559.79,236.51 559.38,236 558.79,236C558.2,236 557.79,236.51 557.79,237.43C557.79,238.35 558.21,238.87 558.79,238.87C559.37,238.87 559.79,238.36 559.79,237.43Z" style="fill:rgb(38,50,56);fill-rule:nonzero;"/>
            <path d="M565.75,233.88C564.609,233.88 563.67,232.941 563.67,231.8L563.67,192.74C563.67,191.599 564.609,190.66 565.75,190.66C566.891,190.66 567.83,191.599 567.83,192.74L567.83,231.8C567.83,232.941 566.891,233.88 565.75,233.88Z" style="fill:rgb(224,224,224);fill-rule:nonzero;"/>
            <path d="M565.75,234.07C564.609,234.07 563.67,233.131 563.67,231.99L563.67,198.88C563.67,197.737 564.607,196.795 565.75,196.79C566.893,196.795 567.83,197.737 567.83,198.88L567.83,232C567.825,233.137 566.887,234.07 565.75,234.07Z" style="fill:rgb(237,50,55);fill-rule:nonzero;"/>
            <path d="M565.77,238.26L565.08,238.26L565.08,239.17L564.72,239.17L564.72,238.26L562.72,238.26L562.72,238L564.56,235.7L564.96,235.7L563.18,237.94L564.69,237.94L564.69,237.14L565.04,237.14L565.04,237.94L565.73,237.94L565.77,238.26Z" style="fill:rgb(38,50,56);fill-rule:nonzero;"/>
            <path d="M566.1,237.43C566.1,236.33 566.68,235.67 567.48,235.67C568.28,235.67 568.87,236.33 568.87,237.43C568.87,238.53 568.28,239.2 567.48,239.2C566.68,239.2 566.1,238.54 566.1,237.43ZM568.5,237.43C568.5,236.51 568.08,236 567.5,236C566.92,236 566.5,236.51 566.5,237.43C566.5,238.35 566.91,238.87 567.5,238.87C568.09,238.87 568.5,238.36 568.5,237.43Z" style="fill:rgb(38,50,56);fill-rule:nonzero;"/>
            <path d="M574.08,233.88C572.941,233.875 572.005,232.939 572,231.8L572,192.74C572.005,191.597 572.947,190.66 574.09,190.66C575.231,190.66 576.17,191.599 576.17,192.74L576.17,231.8C576.17,232.941 575.231,233.88 574.09,233.88C574.087,233.88 574.083,233.88 574.08,233.88Z" style="fill:rgb(224,224,224);fill-rule:nonzero;"/>
            <path d="M574.08,234.07C572.945,234.065 572.011,233.135 572,232L572,205.22C572.005,204.077 572.947,203.14 574.09,203.14C575.231,203.14 576.17,204.079 576.17,205.22L576.17,232C576.165,233.137 575.227,234.07 574.09,234.07C574.087,234.07 574.083,234.07 574.08,234.07Z" style="fill:rgb(237,50,55);fill-rule:nonzero;"/>
            <path d="M573.89,238.15C573.89,238.74 573.48,239.15 572.63,239.15C572.174,239.169 571.728,239.007 571.39,238.7L571.56,238.42C571.85,238.688 572.235,238.832 572.63,238.82C573.22,238.82 573.53,238.53 573.53,238.11C573.53,237.69 573.25,237.39 572.37,237.39L571.63,237.39L571.81,235.65L573.71,235.65L573.71,236L572.12,236L572,237.1L572.45,237.1C573.49,237.12 573.89,237.53 573.89,238.15Z" style="fill:rgb(38,50,56);fill-rule:nonzero;"/>
            <path d="M574.34,237.43C574.34,236.33 574.92,235.67 575.72,235.67C576.52,235.67 577.11,236.33 577.11,237.43C577.11,238.53 576.53,239.2 575.72,239.2C574.91,239.2 574.34,238.54 574.34,237.43ZM576.75,237.43C576.75,236.51 576.33,236 575.75,236C575.17,236 574.75,236.51 574.75,237.43C574.75,238.35 575.17,238.87 575.75,238.87C576.33,238.87 576.75,238.36 576.75,237.43Z" style="fill:rgb(38,50,56);fill-rule:nonzero;"/>
            <path d="M582.4,233.88C581.259,233.88 580.32,232.941 580.32,231.8L580.32,192.74C580.32,191.599 581.259,190.66 582.4,190.66C583.541,190.66 584.48,191.599 584.48,192.74L584.48,231.8C584.48,232.941 583.541,233.88 582.4,233.88Z" style="fill:rgb(224,224,224);fill-rule:nonzero;"/>
            <path d="M582.4,233.88C581.313,233.925 580.379,233.076 580.32,231.99L580.32,212.75C580.317,212.703 580.315,212.657 580.315,212.61C580.315,211.46 581.251,210.509 582.4,210.49C583.541,210.49 584.48,211.429 584.48,212.57L584.48,231.8C584.48,232.941 583.541,233.88 582.4,233.88Z" style="fill:rgb(237,50,55);fill-rule:nonzero;"/>
            <path d="M582.12,238.13C582.117,238.72 581.63,239.205 581.04,239.205C581.007,239.205 580.973,239.203 580.94,239.2C580.02,239.2 579.52,238.56 579.52,237.46C579.52,236.36 580.16,235.67 581.1,235.67C581.389,235.655 581.677,235.72 581.93,235.86L581.78,236.14C581.576,236.026 581.344,235.971 581.11,235.98C580.36,235.98 579.88,236.46 579.88,237.4L579.88,237.69C580.08,237.296 580.499,237.058 580.94,237.09C580.983,237.085 581.027,237.082 581.07,237.082C581.645,237.082 582.119,237.555 582.12,238.13ZM581.77,238.13C581.77,237.68 581.44,237.38 580.9,237.38C580.85,237.37 580.8,237.365 580.749,237.365C580.326,237.365 579.979,237.713 579.979,238.135C579.979,238.557 580.326,238.905 580.749,238.905C580.8,238.905 580.85,238.9 580.9,238.89C580.936,238.895 580.973,238.898 581.01,238.898C581.426,238.898 581.769,238.556 581.77,238.14L581.77,238.13Z" style="fill:rgb(38,50,56);fill-rule:nonzero;"/>
            <path d="M582.53,237.43C582.53,236.33 583.11,235.67 583.92,235.67C584.73,235.67 585.31,236.33 585.31,237.43C585.31,238.53 584.72,239.2 583.92,239.2C583.12,239.2 582.53,238.54 582.53,237.43ZM584.94,237.43C584.94,236.51 584.52,236 583.94,236C583.36,236 582.94,236.51 582.94,237.43C582.94,238.35 583.35,238.87 583.94,238.87C584.53,238.87 584.94,238.36 584.94,237.43Z" style="fill:rgb(38,50,56);fill-rule:nonzero;"/>
            <path d="M590.72,233.88C589.579,233.88 588.64,232.941 588.64,231.8L588.64,192.74C588.64,191.599 589.579,190.66 590.72,190.66C591.861,190.66 592.8,191.599 592.8,192.74L592.8,231.8C592.8,232.941 591.861,233.88 590.72,233.88Z" style="fill:rgb(224,224,224);fill-rule:nonzero;"/>
            <path d="M590.72,234.07C589.579,234.07 588.64,233.131 588.64,231.99L588.64,196.89C588.64,195.749 589.579,194.81 590.72,194.81C591.861,194.81 592.8,195.749 592.8,196.89L592.8,232C592.795,233.137 591.857,234.07 590.72,234.07Z" style="fill:rgb(237,50,55);fill-rule:nonzero;"/>
            <path d="M590.28,235.7L590.28,236L588.82,239.22L588.44,239.22L589.86,236.07L588.08,236.07L588.08,236.71L587.73,236.71L587.73,235.71L590.28,235.7Z" style="fill:rgb(38,50,56);fill-rule:nonzero;"/>
            <path d="M590.65,237.43C590.65,236.33 591.23,235.67 592.03,235.67C592.83,235.67 593.42,236.33 593.42,237.43C593.42,238.53 592.83,239.2 592.03,239.2C591.23,239.2 590.65,238.54 590.65,237.43ZM593.05,237.43C593.05,236.51 592.64,236 592.05,236C591.46,236 591.05,236.51 591.05,237.43C591.05,238.35 591.47,238.87 592.05,238.87C592.63,238.87 593.05,238.36 593.05,237.43Z" style="fill:rgb(38,50,56);fill-rule:nonzero;"/>
            <path d="M599,233.88C597.889,233.837 596.999,232.911 597,231.8L597,192.74C597,191.599 597.939,190.66 599.08,190.66C600.221,190.66 601.16,191.599 601.16,192.74L601.16,231.8C601.16,231.801 601.16,231.801 601.16,231.802C601.16,232.943 600.221,233.882 599.08,233.882C599.053,233.882 599.027,233.881 599,233.88Z" style="fill:rgb(224,224,224);fill-rule:nonzero;"/>
            <path d="M599,234.07C597.893,234.027 597.005,233.108 597,232L597,216.72C597,215.579 597.939,214.64 599.08,214.64C600.221,214.64 601.16,215.579 601.16,216.72L601.16,232C601.155,233.138 600.218,234.072 599.08,234.072C599.053,234.072 599.027,234.071 599,234.07Z" style="fill:rgb(237,50,55);fill-rule:nonzero;"/>
            <path d="M598.63,238.2C598.63,238.82 598.11,239.2 597.28,239.2C596.45,239.2 595.94,238.82 595.94,238.2C595.938,237.797 596.218,237.443 596.61,237.35C596.281,237.245 596.057,236.936 596.06,236.59C596.06,236.02 596.55,235.67 597.28,235.67C598.01,235.67 598.5,236.02 598.5,236.59C598.507,236.937 598.281,237.248 597.95,237.35C598.346,237.439 598.63,237.794 598.63,238.2ZM598.26,238.2C598.26,237.77 597.89,237.5 597.26,237.5C596.63,237.5 596.26,237.77 596.26,238.2C596.26,238.63 596.62,238.9 597.26,238.9C597.9,238.9 598.26,238.63 598.26,238.2ZM597.26,237.2C597.8,237.2 598.12,236.96 598.12,236.58C598.12,236.2 597.78,235.95 597.26,235.95C596.74,235.95 596.4,236.19 596.4,236.58C596.4,236.97 596.74,237.22 597.28,237.22L597.26,237.2Z" style="fill:rgb(38,50,56);fill-rule:nonzero;"/>
            <path d="M599.12,237.43C599.12,236.33 599.7,235.67 600.51,235.67C601.32,235.67 601.89,236.33 601.89,237.43C601.89,238.53 601.31,239.2 600.51,239.2C599.71,239.2 599.12,238.54 599.12,237.43ZM601.53,237.43C601.53,236.51 601.11,236 600.53,236C599.95,236 599.53,236.51 599.53,237.43C599.53,238.35 599.95,238.87 600.53,238.87C601.11,238.87 601.53,238.36 601.53,237.43Z" style="fill:rgb(38,50,56);fill-rule:nonzero;"/>
            <path d="M607.36,233.88C606.219,233.88 605.28,232.941 605.28,231.8L605.28,192.74C605.28,191.599 606.219,190.66 607.36,190.66C608.503,190.66 609.445,191.597 609.45,192.74L609.45,231.8C609.445,232.943 608.503,233.88 607.36,233.88Z" style="fill:rgb(224,224,224);fill-rule:nonzero;"/>
            <path d="M607.36,233.88C606.273,233.925 605.339,233.076 605.28,231.99L605.28,226.63C605.277,226.583 605.275,226.537 605.275,226.49C605.275,225.34 606.211,224.389 607.36,224.37C608.503,224.37 609.445,225.307 609.45,226.45L609.45,231.8C609.445,232.943 608.503,233.88 607.36,233.88Z" style="fill:rgb(237,50,55);fill-rule:nonzero;"/>
            <path d="M606.74,237.4C606.74,238.58 606.09,239.2 605.15,239.2C604.864,239.215 604.58,239.149 604.33,239.01L604.47,238.72C604.675,238.841 604.912,238.9 605.15,238.89C605.89,238.89 606.38,238.41 606.38,237.46L606.38,237.18C606.178,237.573 605.76,237.809 605.32,237.78C605.28,237.785 605.24,237.787 605.2,237.787C604.624,237.787 604.15,237.313 604.15,236.737C604.15,236.735 604.15,236.732 604.15,236.73C604.152,236.145 604.635,235.664 605.22,235.664C605.257,235.664 605.293,235.666 605.33,235.67C606.24,235.67 606.74,236.31 606.74,237.4ZM606.25,236.71C606.25,236.33 605.93,235.97 605.33,235.97C605.3,235.966 605.27,235.965 605.24,235.965C604.825,235.965 604.483,236.305 604.48,236.72C604.48,237.18 604.82,237.47 605.35,237.47C605.383,237.474 605.417,237.476 605.451,237.476C605.877,237.476 606.232,237.136 606.25,236.71Z" style="fill:rgb(38,50,56);fill-rule:nonzero;"/>
            <path d="M607.25,237.43C607.25,236.33 607.83,235.67 608.64,235.67C609.45,235.67 610.02,236.33 610.02,237.43C610.02,238.53 609.44,239.2 608.64,239.2C607.84,239.2 607.25,238.54 607.25,237.43ZM609.66,237.43C609.66,236.51 609.24,236 608.66,236C608.08,236 607.66,236.51 607.66,237.43C607.66,238.35 608.08,238.87 608.66,238.87C609.24,238.87 609.66,238.36 609.66,237.43Z" style="fill:rgb(38,50,56);fill-rule:nonzero;"/>
            <path d="M615.69,233.88C614.549,233.88 613.61,232.941 613.61,231.8L613.61,192.74C613.61,191.599 614.549,190.66 615.69,190.66C616.831,190.66 617.77,191.599 617.77,192.74L617.77,231.8C617.77,232.941 616.831,233.88 615.69,233.88Z" style="fill:rgb(224,224,224);fill-rule:nonzero;"/>
            <path d="M615.69,233.88C614.603,233.925 613.669,233.076 613.61,231.99L613.61,212.75C613.607,212.703 613.605,212.657 613.605,212.61C613.605,211.46 614.541,210.509 615.69,210.49C616.831,210.49 617.77,211.429 617.77,212.57L617.77,231.8C617.77,232.941 616.831,233.88 615.69,233.88Z" style="fill:rgb(237,50,55);fill-rule:nonzero;"/>
            <path d="M612.7,235.7L612.7,239.17L612.35,239.17L612.35,236L611.53,236L611.53,235.68L612.7,235.7Z" style="fill:rgb(38,50,56);fill-rule:nonzero;"/>
            <path d="M613.53,237.43C613.53,236.33 614.11,235.67 614.92,235.67C615.73,235.67 616.3,236.33 616.3,237.43C616.3,238.53 615.72,239.2 614.92,239.2C614.12,239.2 613.53,238.54 613.53,237.43ZM615.94,237.43C615.94,236.51 615.52,236 614.94,236C614.36,236 613.94,236.51 613.94,237.43C613.94,238.35 614.36,238.87 614.94,238.87C615.52,238.87 615.94,238.36 615.94,237.43Z" style="fill:rgb(38,50,56);fill-rule:nonzero;"/>
            <path d="M616.81,237.43C616.81,236.33 617.39,235.67 618.2,235.67C619.01,235.67 619.58,236.33 619.58,237.43C619.58,238.53 619,239.2 618.2,239.2C617.4,239.2 616.81,238.54 616.81,237.43ZM619.22,237.43C619.22,236.51 618.8,236 618.22,236C617.64,236 617.22,236.51 617.22,237.43C617.22,238.35 617.64,238.87 618.22,238.87C618.8,238.87 619.22,238.36 619.22,237.43Z" style="fill:rgb(38,50,56);fill-rule:nonzero;"/>
            <path d="M599,171.14C599,171.28 585.45,171.4 568.74,171.4C552.03,171.4 538.48,171.28 538.48,171.14C538.48,171 552.03,170.88 568.74,170.88C585.45,170.88 599,171 599,171.14Z" style="fill:rgb(224,224,224);fill-rule:nonzero;"/>
            <path d="M617.77,262.52C617.77,262.66 600.01,262.78 578.1,262.78C556.19,262.78 538.43,262.66 538.43,262.52C538.43,262.38 556.19,262.26 578.1,262.26C600.01,262.26 617.77,262.37 617.77,262.52Z" style="fill:rgb(224,224,224);fill-rule:nonzero;"/>
            <path d="M617.77,276.15C617.77,276.29 600.01,276.41 578.1,276.41C556.19,276.41 538.43,276.29 538.43,276.15C538.43,276.01 556.19,275.89 578.1,275.89C600.01,275.89 617.77,276 617.77,276.15Z" style="fill:rgb(224,224,224);fill-rule:nonzero;"/>
            <path d="M617.77,289.78C617.77,289.92 600.01,290.04 578.1,290.04C556.19,290.04 538.43,289.92 538.43,289.78C538.43,289.64 556.19,289.52 578.1,289.52C600.01,289.52 617.77,289.63 617.77,289.78Z" style="fill:rgb(224,224,224);fill-rule:nonzero;"/>
            <path d="M617.77,303.41C617.77,303.55 600.01,303.67 578.1,303.67C556.19,303.67 538.43,303.55 538.43,303.41C538.43,303.27 556.19,303.15 578.1,303.15C600.01,303.15 617.77,303.26 617.77,303.41Z" style="fill:rgb(224,224,224);fill-rule:nonzero;"/>
            <path d="M617.77,317C617.77,317.14 600.01,317.26 578.1,317.26C556.19,317.26 538.43,317.14 538.43,317C538.43,316.86 556.19,316.74 578.1,316.74C600.01,316.74 617.77,316.9 617.77,317Z" style="fill:rgb(224,224,224);fill-rule:nonzero;"/>
            <path d="M614.62,363.43C621.952,363.43 627.989,369.458 628,376.79L628,387.91C627.989,395.239 621.959,401.265 614.63,401.27L540,401.27C532.673,401.265 526.645,395.237 526.64,387.91L526.64,376.79C526.645,369.463 532.673,363.435 540,363.43L614.66,363.43M614.66,362.43L540,362.43C532.122,362.43 525.64,368.912 525.64,376.79L525.64,387.91C525.64,395.788 532.122,402.27 540,402.27L614.66,402.27C622.53,402.259 629,395.78 629,387.91L629,376.79C629,368.912 622.518,362.43 614.64,362.43C614.637,362.43 614.633,362.43 614.63,362.43L614.66,362.43Z" style="fill:rgb(237,50,55);fill-rule:nonzero;"/>
            <path d="M608.36,383.47C608.36,383.61 594.45,383.73 577.29,383.73C560.13,383.73 546.22,383.61 546.22,383.47C546.22,383.33 560.13,383.21 577.29,383.21C594.45,383.21 608.36,383.33 608.36,383.47Z" style="fill:rgb(237,50,55);fill-rule:nonzero;"/>
            <path d="M316.41,111.27C324.11,105.27 330.91,97.81 339.75,93.61C354.94,86.39 372.87,90.05 389.09,94.52C405.31,98.99 422.44,104.17 438.62,99.52C453.62,95.27 465.55,82.08 468.88,66.93L190.52,66.93C194.23,97.71 217.43,123.08 248.27,128.42L250.2,128.73C273.714,132.107 297.619,125.803 316.41,111.27Z" style="fill:rgb(237,50,55);fill-rule:nonzero;"/>
            <path d="M505.31,95.53C513.15,102.64 524.58,104.53 535.09,103.36C542.17,102.54 549.36,100.29 554.47,95.36C560.27,89.74 562.65,81.01 561.09,73.09C560.672,70.99 560.001,68.948 559.09,67.01L501.09,67.01C494.72,75.37 497.49,88.43 505.31,95.53Z" style="fill:rgb(237,50,55);fill-rule:nonzero;"/>
            <g opacity="0.8">
                <path d="M316.41,111.27C324.11,105.27 330.91,97.81 339.75,93.61C354.94,86.39 372.87,90.05 389.09,94.52C405.31,98.99 422.44,104.17 438.62,99.52C453.62,95.27 465.55,82.08 468.88,66.93L190.52,66.93C194.23,97.71 217.43,123.08 248.27,128.42L250.2,128.73C273.714,132.107 297.619,125.803 316.41,111.27Z" style="fill:white;fill-rule:nonzero;"/>
                <path d="M505.31,95.53C513.15,102.64 524.58,104.53 535.09,103.36C542.17,102.54 549.36,100.29 554.47,95.36C560.27,89.74 562.65,81.01 561.09,73.09C560.672,70.99 560.001,68.948 559.09,67.01L501.09,67.01C494.72,75.37 497.49,88.43 505.31,95.53Z" style="fill:white;fill-rule:nonzero;"/>
            </g>
            <path d="M563.15,94.26C563.493,94.307 563.829,94.398 564.15,94.53L564.91,93.89L566.21,94.89L565.8,95.79C566.02,96.071 566.202,96.381 566.34,96.71L567.34,96.8L567.56,98.43L566.63,98.78C566.584,99.124 566.493,99.46 566.36,99.78L566.99,100.54L565.99,101.85L565.09,101.44C564.806,101.659 564.493,101.837 564.16,101.97L564.08,102.97L562.45,103.19L562.1,102.26C561.755,102.219 561.418,102.128 561.1,101.99L560.34,102.63L559.03,101.63L559.44,100.73C559.22,100.449 559.038,100.139 558.9,99.81L557.9,99.72L557.68,98.09L558.61,97.75C558.661,97.406 558.755,97.07 558.89,96.75L558.25,95.99L559.25,94.68L560.16,95.1C560.441,94.88 560.751,94.698 561.08,94.56L561.17,93.56L562.79,93.34L563.14,94.27L563.15,94.26ZM562.66,96.5C561.717,96.531 560.958,97.315 560.958,98.259C560.958,99.225 561.753,100.019 562.718,100.019C563.684,100.019 564.478,99.225 564.478,98.259C564.478,98.121 564.462,97.984 564.43,97.85C564.236,97.04 563.493,96.472 562.66,96.5Z" style="fill:none;fill-rule:nonzero;"/>
            <path d="M562.66,96.5C562.66,96.5 562.82,96.41 563.12,96.44C563.548,96.498 563.942,96.707 564.23,97.03C564.672,97.537 564.819,98.238 564.62,98.88C564.353,99.701 563.582,100.261 562.718,100.261C561.901,100.261 561.162,99.76 560.86,99C560.621,98.371 560.727,97.661 561.14,97.13C561.403,96.785 561.784,96.55 562.21,96.47L562.66,96.47C562.66,96.47 561.96,96.54 561.44,97.32C561.153,97.757 561.104,98.31 561.31,98.79C561.556,99.373 562.138,99.747 562.77,99.73C563.393,99.705 563.944,99.311 564.17,98.73C564.338,98.236 564.252,97.689 563.94,97.27C563.603,96.888 563.156,96.619 562.66,96.5Z" style="fill:rgb(38,50,56);fill-rule:nonzero;"/>
            <path d="M563.15,94.26C562.983,93.973 562.842,93.672 562.73,93.36L562.82,93.36L561.2,93.63L561.31,93.51C561.31,93.82 561.31,94.15 561.24,94.51L561.24,94.6L561.15,94.6C560.833,94.735 560.537,94.913 560.27,95.13L560.19,95.19L560.09,95.19L559.19,94.79L559.41,94.79L558.41,96.1L558.41,95.85L559.05,96.6L559.13,96.7L559.13,96.82C559.002,97.14 558.918,97.477 558.88,97.82L558.88,97.96L558.75,97.96L557.82,98.31L557.97,98.06C558.05,98.57 558.12,99.12 558.2,99.69L558,99.5L559,99.58L559.15,99.58L559.21,99.72C559.344,100.03 559.515,100.322 559.72,100.59L559.81,100.71L559.75,100.85L559.34,101.75L559.26,101.44L560.57,102.44L560.25,102.44L561.01,101.8L561.13,101.7L561.28,101.76C561.601,101.888 561.937,101.976 562.28,102.02L562.5,102.18L562.5,102.36L562.59,102.59L562.76,103.05L562.48,102.89L564.11,102.67L563.89,102.9L563.98,101.9L563.98,101.75L564.12,101.69C564.431,101.563 564.724,101.395 564.99,101.19L565.11,101.09L565.25,101.16L566.15,101.57L565.85,101.65L566.85,100.35L566.85,100.65L566.13,99.77L566.13,99.64C566.265,99.321 566.356,98.984 566.4,98.64L566.4,98.5L566.52,98.5L567.45,98.17L567.31,98.4C567.24,97.83 567.18,97.29 567.11,96.77L567.29,96.94L566.29,96.84L566.18,96.84L566.18,96.74C566.052,96.423 565.884,96.124 565.68,95.85L565.61,95.76L565.66,95.67L566.08,94.77L566.08,94.96L564.8,93.96L565,93.96L564.22,94.57L564.17,94.57C563.52,94.28 563.17,94.26 563.17,94.22C563.258,94.194 563.352,94.194 563.44,94.22C563.714,94.249 563.982,94.313 564.24,94.41L564.15,94.41L564.89,93.74L564.96,93.68L565.04,93.74L566.37,94.74L566.46,94.82L566.41,94.93L566.02,95.84L566.02,95.67C566.255,95.976 566.447,96.312 566.59,96.67L566.44,96.56L567.44,96.63L567.59,96.63L567.59,96.79C567.66,97.31 567.74,97.85 567.82,98.42L567.82,98.59L567.66,98.65L566.73,99.01L566.87,98.82C566.829,99.198 566.735,99.569 566.59,99.92L566.59,99.68L567.23,100.44L567.35,100.58L567.24,100.74C566.91,101.16 566.58,101.6 566.24,102.05L566.12,102.21L565.94,102.12L565.03,101.72L565.29,101.72C564.988,101.963 564.651,102.158 564.29,102.3L564.45,102.09C564.45,102.41 564.42,102.743 564.36,103.09L564.36,103.29L564.15,103.29L562.52,103.51L562.32,103.51L562.25,103.31L561.98,102.62L561.98,102.44L562.19,102.6C561.812,102.553 561.442,102.456 561.09,102.31L561.35,102.31L560.59,102.95L560.43,103.08L560.27,102.95L558.97,101.95L558.8,101.82L558.89,101.64L559.3,100.74L559.3,101C559.07,100.691 558.879,100.355 558.73,100L558.94,100.15L557.94,100.06L557.75,100.06L557.75,99.87C557.68,99.31 557.61,98.76 557.54,98.24L557.54,98.06L557.71,98L558.64,97.66L558.5,97.84C558.549,97.464 558.65,97.098 558.8,96.75L558.8,96.97L558.17,96.2L558,96L558.1,95.88L559.1,94.58L559.19,94.46L559.32,94.53L560.22,94.95L560.04,94.95C560.345,94.723 560.682,94.541 561.04,94.41L560.95,94.53C560.95,94.18 561.02,93.85 561.06,93.53L561.06,93.42L561.16,93.42L562.79,93.25L562.86,93.25L562.86,93.31C562.986,93.617 563.084,93.935 563.15,94.26Z" style="fill:rgb(38,50,56);fill-rule:nonzero;"/>
            <path d="M630.19,423.22L630.47,423.22C630.65,423.22 630.93,423.22 631.3,423.15C635.482,422.606 638.684,419.075 638.82,414.86L638.82,410.86C638.82,399.48 638.82,382.71 638.77,361.11C638.77,317.9 638.77,255.39 638.68,178.11L638.68,77C638.772,75.65 638.616,74.294 638.22,73C637.786,71.706 637.041,70.539 636.05,69.6C635.06,68.658 633.855,67.972 632.54,67.6C631.19,67.289 629.803,67.174 628.42,67.26L142.67,67.26C138.986,67.255 135.701,69.651 134.58,73.16C134.03,74.86 134.24,76.71 134.2,78.55L134.2,413.36C134.179,414.138 134.209,414.916 134.29,415.69C134.611,417.989 135.867,420.056 137.76,421.4C139.001,422.293 140.465,422.826 141.99,422.94C143.51,423.01 145.1,422.94 146.64,422.94L380.15,422.94L630.15,423.12L380.15,423.3L141.9,423.3C140.291,423.174 138.746,422.614 137.43,421.68C135.437,420.27 134.112,418.098 133.77,415.68C133.686,414.886 133.655,414.088 133.68,413.29L133.68,75.77C133.682,74.825 133.82,73.886 134.09,72.98C135.28,69.258 138.763,66.717 142.67,66.72L628.42,66.72C629.843,66.627 631.272,66.745 632.66,67.07C635.473,67.861 637.721,69.993 638.66,72.76C639.076,74.108 639.239,75.522 639.14,76.93L639.14,178.07C639.14,255.31 639.08,317.82 639.06,361.07C639.06,382.67 639.06,399.44 639.01,410.82L639.01,414.82C638.901,417.87 637.198,420.648 634.53,422.13C633.562,422.664 632.499,423.004 631.4,423.13C630.999,423.184 630.595,423.214 630.19,423.22Z" style="fill:rgb(38,50,56);fill-rule:nonzero;"/>
            <path d="M514.95,157.538C514.95,150.42 509.17,144.64 502.052,144.64L429.568,144.64C422.45,144.64 416.67,150.42 416.67,157.538L416.67,178.152C416.67,185.27 422.45,191.05 429.568,191.05L502.052,191.05C509.17,191.05 514.95,185.27 514.95,178.152L514.95,157.538Z" style="fill:rgb(224,224,224);"/>
            <path d="M443.57,166.9L443.57,175.44L442.69,175.44L442.69,167.68L440.69,167.68L440.69,166.9L443.57,166.9Z" style="fill:rgb(38,50,56);fill-rule:nonzero;"/>
            <path d="M451.41,172.93C451.41,174.38 450.41,175.52 448.31,175.52C447.184,175.558 446.085,175.164 445.24,174.42L445.67,173.72C446.38,174.387 447.326,174.747 448.3,174.72C449.75,174.72 450.52,174.01 450.52,172.98C450.52,171.95 449.83,171.19 447.66,171.19L445.84,171.19L446.28,166.91L451,166.91L451,167.69L447.09,167.69L446.8,170.41L447.9,170.41C450.43,170.4 451.41,171.42 451.41,172.93Z" style="fill:rgb(38,50,56);fill-rule:nonzero;"/>
            <path d="M452.52,171.17C452.52,168.45 453.95,166.83 455.93,166.83C457.91,166.83 459.35,168.45 459.35,171.17C459.35,173.89 457.9,175.52 455.93,175.52C453.96,175.52 452.52,173.89 452.52,171.17ZM458.44,171.17C458.44,168.89 457.44,167.63 455.93,167.63C454.42,167.63 453.41,168.89 453.41,171.17C453.41,173.45 454.41,174.71 455.93,174.71C457.45,174.71 458.44,173.45 458.44,171.17Z" style="fill:rgb(38,50,56);fill-rule:nonzero;"/>
            <path d="M460.6,171.17C460.6,168.45 462.03,166.83 464.01,166.83C465.99,166.83 467.43,168.45 467.43,171.17C467.43,173.89 465.99,175.52 464.01,175.52C462.03,175.52 460.6,173.89 460.6,171.17ZM466.52,171.17C466.52,168.89 465.52,167.63 464.01,167.63C462.5,167.63 461.49,168.89 461.49,171.17C461.49,173.45 462.49,174.71 464.01,174.71C465.53,174.71 466.52,173.45 466.52,171.17Z" style="fill:rgb(38,50,56);fill-rule:nonzero;"/>
            <path d="M476,173.2L474.29,173.2L474.29,175.44L473.41,175.44L473.41,173.2L468.59,173.2L468.59,172.56L473.12,166.9L474.12,166.9L469.76,172.42L473.47,172.42L473.47,170.42L474.32,170.42L474.32,172.42L476,172.42L476,173.2Z" style="fill:rgb(38,50,56);fill-rule:nonzero;"/>
            <path d="M482.54,174.66L482.54,175.44L476.54,175.44L476.54,174.82L480.09,171.34C481.09,170.34 481.24,169.82 481.24,169.23C481.24,168.23 480.54,167.63 479.24,167.63C478.352,167.591 477.493,167.96 476.91,168.63L476.28,168.1C477.051,167.271 478.15,166.824 479.28,166.88C481.01,166.88 482.11,167.75 482.11,169.18C482.07,170.238 481.556,171.223 480.71,171.86L477.8,174.71L482.54,174.66Z" style="fill:rgb(38,50,56);fill-rule:nonzero;"/>
            <path d="M483.59,171.17C483.59,168.45 485.02,166.83 487,166.83C488.98,166.83 490.42,168.45 490.42,171.17C490.42,173.89 488.98,175.52 487,175.52C485.02,175.52 483.59,173.89 483.59,171.17ZM489.52,171.17C489.52,168.89 488.52,167.63 487,167.63C485.48,167.63 484.49,168.89 484.49,171.17C484.49,173.45 485.49,174.71 487,174.71C488.51,174.71 489.52,173.45 489.52,171.17Z" style="fill:rgb(38,50,56);fill-rule:nonzero;"/>
            <path d="M474.35,158.11C474.35,158.25 464.85,158.37 453.13,158.37C441.41,158.37 431.9,158.25 431.9,158.11C431.9,157.97 441.4,157.85 453.13,157.85C464.86,157.85 474.35,158 474.35,158.11Z" style="fill:rgb(38,50,56);fill-rule:nonzero;"/>
            <path d="M407.78,157.788C407.78,150.67 402,144.89 394.882,144.89L322.398,144.89C315.28,144.89 309.5,150.67 309.5,157.788L309.5,178.402C309.5,185.52 315.28,191.3 322.398,191.3L394.882,191.3C402,191.3 407.78,185.52 407.78,178.402L407.78,157.788Z" style="fill:rgb(224,224,224);"/>
            <path d="M332.54,177.92L332.54,179.32L331.93,179.32L331.93,177.93C330.857,177.914 329.823,177.521 329.01,176.82L329.36,176.13C330.079,176.744 330.985,177.097 331.93,177.13L331.93,173.92C330.59,173.59 329.22,173.18 329.22,171.57C329.22,170.39 330.06,169.38 331.93,169.23L331.93,167.83L332.54,167.83L332.54,169.22C333.415,169.254 334.265,169.524 335,170L334.69,170.72C334.039,170.302 333.292,170.058 332.52,170.01L332.52,173.25C333.9,173.57 335.35,173.97 335.35,175.6C335.37,176.79 334.48,177.81 332.54,177.92ZM331.93,173.09L331.93,170C330.67,170.1 330.11,170.75 330.11,171.52C330.11,172.49 330.93,172.83 331.93,173.09ZM334.48,175.65C334.48,174.65 333.59,174.36 332.54,174.1L332.54,177.15C333.88,177.05 334.48,176.43 334.48,175.65Z" style="fill:rgb(38,50,56);fill-rule:nonzero;"/>
            <path d="M345.61,177.08L345.61,177.86L339.61,177.86L339.61,177.24L343.16,173.76C344.16,172.81 344.31,172.23 344.31,171.65C344.31,170.65 343.61,170.05 342.31,170.05C341.436,170 340.586,170.35 340,171L339.37,170.46C340.142,169.634 341.24,169.187 342.37,169.24C344.11,169.24 345.2,170.12 345.2,171.55C345.162,172.605 344.646,173.588 343.8,174.22L340.9,177.08L345.61,177.08Z" style="fill:rgb(38,50,56);fill-rule:nonzero;"/>
            <path d="M352.37,175.41C352.37,176.83 351.37,177.93 349.27,177.93C348.141,177.973 347.037,177.579 346.19,176.83L346.62,176.14C347.338,176.807 348.29,177.166 349.27,177.14C350.68,177.14 351.46,176.48 351.46,175.42C351.46,174.36 350.74,173.72 349.16,173.72L348.55,173.72L348.55,173.07L350.91,170.07L346.54,170.07L346.54,169.28L352,169.28L352,169.91L349.58,172.91C351.45,173.07 352.37,174 352.37,175.41Z" style="fill:rgb(38,50,56);fill-rule:nonzero;"/>
            <path d="M359.28,175.35C359.28,176.8 358.28,177.93 356.18,177.93C355.054,177.972 353.953,177.578 353.11,176.83L353.54,176.14C354.249,176.802 355.19,177.161 356.16,177.14C357.62,177.14 358.39,176.43 358.39,175.39C358.39,174.35 357.7,173.61 355.53,173.61L353.71,173.61L354.15,169.32L358.83,169.32L358.83,170.11L354.92,170.11L354.63,172.83L355.73,172.83C358.3,172.82 359.28,173.83 359.28,175.35Z" style="fill:rgb(38,50,56);fill-rule:nonzero;"/>
            <path d="M360.39,173.59C360.39,170.87 361.82,169.24 363.79,169.24C365.76,169.24 367.21,170.87 367.21,173.59C367.21,176.31 365.77,177.93 363.79,177.93C361.81,177.93 360.39,176.31 360.39,173.59ZM366.31,173.59C366.31,171.31 365.31,170.05 363.79,170.05C362.27,170.05 361.28,171.31 361.28,173.59C361.28,175.87 362.28,177.13 363.79,177.13C365.3,177.13 366.31,175.87 366.31,173.59Z" style="fill:rgb(38,50,56);fill-rule:nonzero;"/>
            <path d="M369.66,177.25C369.647,177.496 369.586,177.738 369.48,177.96L368.97,179.64L368.39,179.64L368.8,177.87C368.528,177.791 368.344,177.533 368.36,177.25C368.36,176.893 368.653,176.6 369.01,176.6C369.367,176.6 369.66,176.893 369.66,177.25Z" style="fill:rgb(38,50,56);fill-rule:nonzero;"/>
            <path d="M370.79,173.59C370.79,170.87 372.22,169.24 374.2,169.24C376.18,169.24 377.62,170.87 377.62,173.59C377.62,176.31 376.18,177.93 374.2,177.93C372.22,177.93 370.79,176.31 370.79,173.59ZM376.71,173.59C376.71,171.31 375.71,170.05 374.2,170.05C372.69,170.05 371.68,171.31 371.68,173.59C371.68,175.87 372.68,177.13 374.2,177.13C375.72,177.13 376.71,175.87 376.71,173.59Z" style="fill:rgb(38,50,56);fill-rule:nonzero;"/>
            <path d="M378.87,173.59C378.87,170.87 380.3,169.24 382.28,169.24C384.26,169.24 385.7,170.87 385.7,173.59C385.7,176.31 384.26,177.93 382.28,177.93C380.3,177.93 378.87,176.31 378.87,173.59ZM384.79,173.59C384.79,171.31 383.79,170.05 382.28,170.05C380.77,170.05 379.77,171.31 379.77,173.59C379.77,175.87 380.77,177.13 382.28,177.13C383.79,177.13 384.79,175.87 384.79,173.59Z" style="fill:rgb(38,50,56);fill-rule:nonzero;"/>
            <path d="M366.06,159.34C366.06,159.48 357.45,159.6 346.83,159.6C336.21,159.6 327.59,159.48 327.59,159.34C327.59,159.2 336.2,159.08 346.83,159.08C357.46,159.08 366.06,159.19 366.06,159.34Z" style="fill:rgb(38,50,56);fill-rule:nonzero;"/>
            <path d="M300.23,157.788C300.23,150.67 294.45,144.89 287.332,144.89L214.848,144.89C207.73,144.89 201.95,150.67 201.95,157.788L201.95,178.402C201.95,185.52 207.73,191.3 214.848,191.3L287.332,191.3C294.45,191.3 300.23,185.52 300.23,178.402L300.23,157.788Z" style="fill:rgb(237,50,55);"/>
            <path d="M224.18,177.92L224.18,179.33L223.57,179.33L223.57,177.93C222.5,177.914 221.469,177.521 220.66,176.82L221.01,176.13C221.725,176.744 222.628,177.097 223.57,177.13L223.57,173.92C222.23,173.59 220.86,173.18 220.86,171.57C220.86,170.39 221.71,169.38 223.57,169.23L223.57,167.83L224.18,167.83L224.18,169.22C225.061,169.241 225.919,169.504 226.66,169.98L226.36,170.7C225.705,170.283 224.955,170.039 224.18,169.99L224.18,173.23C225.56,173.56 227.02,173.95 227.02,175.58C227,176.79 226.12,177.81 224.18,177.92ZM223.57,173.09L223.57,170C222.32,170.11 221.76,170.75 221.76,171.52C221.76,172.49 222.57,172.83 223.57,173.09ZM226.12,175.65C226.12,174.65 225.23,174.36 224.18,174.1L224.18,177.15C225.53,177.05 226.12,176.43 226.12,175.65Z" style="fill:white;fill-rule:nonzero;"/>
            <path d="M237.26,177.08L237.26,177.86L231.26,177.86L231.26,177.24L234.81,173.76C235.81,172.81 235.96,172.23 235.96,171.65C235.96,170.65 235.26,170.05 233.96,170.05C233.08,169.994 232.22,170.345 231.63,171L231.01,170.46C231.781,169.631 232.88,169.184 234.01,169.24C235.74,169.24 236.84,170.12 236.84,171.55C236.797,172.604 236.283,173.585 235.44,174.22L232.53,177.08L237.26,177.08Z" style="fill:white;fill-rule:nonzero;"/>
            <path d="M240.73,169.32L240.73,177.86L239.85,177.86L239.85,170.1L237.85,170.1L237.85,169.32L240.73,169.32Z" style="fill:white;fill-rule:nonzero;"/>
            <path d="M242.77,173.59C242.77,170.87 244.2,169.24 246.17,169.24C248.14,169.24 249.59,170.87 249.59,173.59C249.59,176.31 248.15,177.93 246.17,177.93C244.19,177.93 242.77,176.31 242.77,173.59ZM248.69,173.59C248.69,171.31 247.69,170.05 246.17,170.05C244.65,170.05 243.66,171.31 243.66,173.59C243.66,175.87 244.66,177.13 246.17,177.13C247.68,177.13 248.69,175.87 248.69,173.59Z" style="fill:white;fill-rule:nonzero;"/>
            <path d="M250.85,173.59C250.85,170.87 252.28,169.24 254.26,169.24C256.24,169.24 257.67,170.87 257.67,173.59C257.67,176.31 256.23,177.93 254.26,177.93C252.29,177.93 250.85,176.31 250.85,173.59ZM256.77,173.59C256.77,171.31 255.77,170.05 254.26,170.05C252.75,170.05 251.74,171.31 251.74,173.59C251.74,175.87 252.74,177.13 254.26,177.13C255.78,177.13 256.77,175.87 256.77,173.59Z" style="fill:white;fill-rule:nonzero;"/>
            <path d="M260.12,177.25C260.107,177.495 260.05,177.736 259.95,177.96L259.43,179.64L258.85,179.64L259.26,177.87C258.99,177.788 258.808,177.532 258.82,177.25C258.82,176.893 259.113,176.6 259.47,176.6C259.827,176.6 260.12,176.893 260.12,177.25Z" style="fill:white;fill-rule:nonzero;"/>
            <path d="M267.55,173.51C267.55,176.42 265.96,177.93 263.65,177.93C262.954,177.957 262.264,177.798 261.65,177.47L262,176.76C262.503,177.051 263.08,177.19 263.66,177.16C265.51,177.16 266.66,175.98 266.66,173.66C266.673,173.43 266.673,173.2 266.66,172.97C266.163,173.934 265.132,174.511 264.05,174.43C263.954,174.441 263.857,174.446 263.76,174.446C262.344,174.446 261.177,173.286 261.17,171.87C261.185,170.416 262.386,169.228 263.84,169.228C263.923,169.228 264.007,169.232 264.09,169.24C266.32,169.24 267.55,170.82 267.55,173.51ZM266.34,171.82C266.34,170.88 265.56,169.99 264.09,169.99C264.017,169.981 263.944,169.977 263.87,169.977C262.847,169.977 262.004,170.817 262,171.84C262,172.97 262.83,173.69 264.15,173.69C264.214,173.696 264.279,173.699 264.344,173.699C265.395,173.699 266.277,172.87 266.34,171.82Z" style="fill:white;fill-rule:nonzero;"/>
            <path d="M268.82,173.59C268.82,170.87 270.25,169.24 272.23,169.24C274.21,169.24 275.65,170.87 275.65,173.59C275.65,176.31 274.21,177.93 272.23,177.93C270.25,177.93 268.82,176.31 268.82,173.59ZM274.74,173.59C274.74,171.31 273.74,170.05 272.23,170.05C270.72,170.05 269.71,171.31 269.71,173.59C269.71,175.87 270.71,177.13 272.23,177.13C273.75,177.13 274.74,175.87 274.74,173.59Z" style="fill:white;fill-rule:nonzero;"/>
            <path d="M254.6,159.34C254.6,159.48 246.69,159.6 236.93,159.6C227.17,159.6 219.27,159.48 219.27,159.34C219.27,159.2 227.17,159.08 236.93,159.08C246.69,159.08 254.6,159.19 254.6,159.34Z" style="fill:white;fill-rule:nonzero;"/>
            <path d="M157.17,106.89C152.474,106.89 148.61,103.026 148.61,98.33C148.61,98.33 148.61,98.33 148.61,98.33C148.61,93.64 152.47,89.78 157.16,89.78C157.163,89.78 157.167,89.78 157.17,89.78C161.86,89.78 165.72,93.64 165.72,98.33C165.72,98.333 165.72,98.337 165.72,98.34C165.72,103.03 161.86,106.89 157.17,106.89C157.17,106.89 157.17,106.89 157.17,106.89Z" style="fill:white;fill-rule:nonzero;"/>
        </g>
    </g>
</svg>
