<?xml version="1.0" encoding="UTF-8" standalone="no"?>
<!DOCTYPE svg PUBLIC "-//W3C//DTD SVG 1.1//EN" "http://www.w3.org/Graphics/SVG/1.1/DTD/svg11.dtd">
<svg width="100%" height="100%" viewBox="0 0 500 356" version="1.1" xmlns="http://www.w3.org/2000/svg" xmlns:xlink="http://www.w3.org/1999/xlink" xml:space="preserve" xmlns:serif="http://www.serif.com/" style="fill-rule:evenodd;clip-rule:evenodd;stroke-linejoin:round;stroke-miterlimit:2;">
    <g transform="matrix(0.981766,0,0,0.981766,9.7533,6.30258)">
        <g id="freepik--background-simple--inject-7" transform="matrix(0.713758,0,0,0.713758,-12.8895,-6.4903)">
            <g transform="matrix(1,0,0,1,-15.4114,-4.2031)">
                <path d="M684.27,306.36L682.9,304.1C671.34,285.05 650.44,273.57 628.4,274.96C625.566,275.142 622.748,275.529 619.97,276.12C599.97,280.41 582.5,295.56 575.27,314.97C571.02,326.38 569.83,339.52 561.77,348.58C551.27,360.37 533.45,360.74 517.77,360.25C502.09,359.76 484.27,360.18 473.83,372.01C467.29,379.42 465.21,390.01 465.74,399.89C467.13,426.17 485.45,449.67 508.74,461.35C532.03,473.03 559.45,474.08 584.94,468.94C620.65,461.75 654.6,441.94 675.02,411.45C695.44,380.96 700.6,339.32 684.27,306.36Z" style="fill:rgb(245,245,245);fill-rule:nonzero;"/>
            </g>
            <g transform="matrix(1,0,0,1,21.0155,-5.60414)">
                <path d="M35.18,193.43L36.66,195.34C49.12,211.44 69.29,219.71 89.15,216.17C91.707,215.712 94.227,215.067 96.69,214.24C114.44,208.24 128.69,192.72 133.26,174.36C135.94,163.56 135.66,151.5 142.04,142.45C150.36,130.66 166.5,128.45 180.77,127.3C195.04,126.15 211.2,123.91 219.46,112.08C224.63,104.68 225.46,94.89 223.92,85.93C219.92,62.21 200.92,42.77 178.53,34.57C156.14,26.37 131.17,28.26 108.53,35.57C76.88,45.78 48.09,67.24 32.71,97.07C17.33,126.9 17,165.2 35.18,193.43Z" style="fill:rgb(245,245,245);fill-rule:nonzero;"/>
            </g>
            <g transform="matrix(1,0,0,1,-33.6248,-15.4114)">
                <circle cx="675.98" cy="205.87" r="37.09" style="fill:rgb(245,245,245);"/>
            </g>
        </g>
        <g id="freepik--Window--inject-7" transform="matrix(0.713758,0,0,0.713758,-12.8895,-6.4903)">
            <rect x="112.29" y="44.39" width="505.78" height="364.08" style="fill:white;"/>
            <rect x="111.66" y="44.39" width="505.78" height="26.91" style="fill:rgb(224,224,224);"/>
            <path d="M129.57,58.33C129.47,60.071 128.01,61.45 126.265,61.45C124.45,61.45 122.955,59.956 122.955,58.14C122.955,56.324 124.45,54.83 126.265,54.83C126.267,54.83 126.268,54.83 126.27,54.83C128.097,54.883 129.572,56.401 129.572,58.229C129.572,58.262 129.571,58.296 129.57,58.33Z" style="fill:rgb(38,50,56);fill-rule:nonzero;"/>
            <path d="M141.85,58.33C141.75,60.071 140.29,61.45 138.545,61.45C136.73,61.45 135.235,59.956 135.235,58.14C135.235,56.326 136.726,54.833 138.54,54.83C140.371,54.878 141.852,56.397 141.852,58.229C141.852,58.263 141.851,58.296 141.85,58.33Z" style="fill:rgb(38,50,56);fill-rule:nonzero;"/>
            <path d="M154.12,58.33C154.02,60.071 152.56,61.45 150.815,61.45C149,61.45 147.505,59.956 147.505,58.14C147.505,56.324 149,54.83 150.815,54.83C150.817,54.83 150.818,54.83 150.82,54.83C152.646,54.878 154.122,56.392 154.122,58.219C154.122,58.256 154.121,58.293 154.12,58.33Z" style="fill:rgb(38,50,56);fill-rule:nonzero;"/>
            <path d="M329.73,100.28C329.73,100.47 318.68,100.62 305.06,100.62C291.44,100.62 280.39,100.47 280.39,100.28C280.39,100.09 291.39,99.93 305.06,99.93C318.73,99.93 329.73,100.08 329.73,100.28Z" style="fill:rgb(38,50,56);fill-rule:nonzero;"/>
            <path d="M395.36,100.28C395.36,100.47 384.31,100.62 370.69,100.62C357.07,100.62 346.02,100.47 346.02,100.28C346.02,100.09 357.02,99.93 370.69,99.93C384.36,99.93 395.36,100.08 395.36,100.28Z" style="fill:rgb(38,50,56);fill-rule:nonzero;"/>
            <path d="M461,100.28C461,100.47 449.95,100.62 436.33,100.62C422.71,100.62 411.66,100.47 411.66,100.28C411.66,100.09 422.66,99.93 436.33,99.93C450,99.93 461,100.08 461,100.28Z" style="fill:rgb(38,50,56);fill-rule:nonzero;"/>
            <path d="M527.2,100.28C527.2,100.47 516.2,100.62 502.53,100.62C488.86,100.62 477.86,100.47 477.86,100.28C477.86,100.09 488.91,99.93 502.53,99.93C516.15,99.93 527.2,100.08 527.2,100.28Z" style="fill:rgb(38,50,56);fill-rule:nonzero;"/>
            <path d="M584.72,108.59C584.72,108.59 585.14,108.59 585.9,108.38C587.018,108.078 588.012,107.43 588.74,106.53C589.275,105.872 589.658,105.104 589.86,104.28C590.056,103.269 590.117,102.237 590.04,101.21C589.9,99.02 590.53,96.21 588.66,94.09C587.779,93.034 586.51,92.374 585.14,92.26L547.61,92.26C545.63,92.299 543.837,93.466 543,95.26C542.577,96.159 542.378,97.147 542.42,98.14L542.42,101.23C542.356,102.207 542.417,103.188 542.6,104.15C542.827,105.048 543.274,105.877 543.9,106.56C544.471,107.205 545.193,107.699 546,108C546.841,108.22 547.712,108.305 548.58,108.25L567.37,108.32L580.04,108.43L583.49,108.5L584.69,108.5C584.587,108.513 584.483,108.513 584.38,108.5L583.49,108.5L580.04,108.57L567.37,108.68L548.58,108.75C547.652,108.819 546.719,108.732 545.82,108.49C544.884,108.177 544.041,107.634 543.37,106.91C542.666,106.149 542.164,105.225 541.91,104.22C541.778,103.704 541.711,103.173 541.71,102.64L541.71,98.18C541.658,97.08 541.878,95.985 542.35,94.99C543.29,92.969 545.311,91.657 547.54,91.62L585.11,91.62C586.598,91.753 587.973,92.473 588.93,93.62C589.826,94.697 590.327,96.049 590.35,97.45L590.35,101.06C590.415,102.119 590.335,103.183 590.11,104.22C589.882,105.083 589.461,105.883 588.88,106.56C588.106,107.474 587.051,108.107 585.88,108.36C585.508,108.496 585.116,108.574 584.72,108.59Z" style="fill:rgb(38,50,56);fill-rule:nonzero;"/>
            <path d="M303.83,207.787C303.83,201.006 298.324,195.5 291.543,195.5L162.937,195.5C156.156,195.5 150.65,201.006 150.65,207.787L150.65,214.623C150.65,221.404 156.156,226.91 162.937,226.91L291.543,226.91C298.324,226.91 303.83,221.404 303.83,214.623L303.83,207.787Z" style="fill:rgb(224,224,224);"/>
            <path d="M111.66,44.39L617.45,44.14L617.71,44.14L617.71,408.72L617.43,408.72L111.64,408.67L111.41,408.67L111.41,408.44C111.55,187.44 111.64,46.25 111.64,44.35C111.64,46.25 111.74,187.46 111.87,408.44L111.64,408.21L617.43,408.15L617.15,408.44L617.15,44.39L617.41,44.65L111.66,44.39Z" style="fill:rgb(38,50,56);fill-rule:nonzero;"/>
            <path d="M574.31,260.74L574.31,232.88C574.31,215.03 574.25,189.29 574.2,157.66L574.4,157.86L393,157.92L393.26,157.66L393.26,260.73L393.01,260.49L523.42,260.61L560.86,260.68L574.32,260.68L560.99,260.68L523.6,260.75L393,261L392.76,261L392.76,157.42L393,157.42L574.27,157.48L574.47,157.48L574.47,157.68C574.47,189.36 574.39,215.15 574.37,233.02L574.37,258.94C574.37,260.15 574.31,260.74 574.31,260.74Z" style="fill:rgb(237,50,55);fill-rule:nonzero;"/>
            <path d="M570.39,157.52L569.95,157.82L568.65,158.65L563.65,161.79C559.28,164.5 552.93,168.4 545.06,173.16C529.33,182.71 507.46,195.69 483.06,209.64C458.66,223.59 436.4,235.85 420.21,244.64C412.11,249.02 405.54,252.53 400.99,254.92L395.74,257.67L394.37,258.38C394.217,258.461 394.06,258.535 393.9,258.6C394.045,258.502 394.195,258.412 394.35,258.33L395.69,257.58L400.89,254.74L420,244.28C436.15,235.45 458.39,223.13 482.77,209.18C507.15,195.23 529.03,182.31 544.77,172.85L563.45,161.61L568.53,158.56L569.86,157.78C570.23,157.6 570.39,157.52 570.39,157.52Z" style="fill:rgb(237,50,55);fill-rule:nonzero;"/>
            <path d="M572.22,260.74C572.15,260.86 532.37,238.08 483.39,209.87C434.41,181.66 394.75,158.67 394.82,158.55C394.89,158.43 434.66,181.2 483.65,209.42C532.64,237.64 572.29,260.61 572.22,260.74Z" style="fill:rgb(237,50,55);fill-rule:nonzero;"/>
            <path d="M570.62,312C570.62,312.2 531,312.36 482.15,312.36C433.3,312.36 393.66,312.2 393.66,312C393.66,311.8 433.27,311.63 482.15,311.63C531.03,311.63 570.62,311.79 570.62,312Z" style="fill:rgb(38,50,56);fill-rule:nonzero;"/>
            <path d="M570.62,322.72C570.62,322.92 531,323.08 482.15,323.08C433.3,323.08 393.66,322.92 393.66,322.72C393.66,322.52 433.27,322.35 482.15,322.35C531.03,322.35 570.62,322.52 570.62,322.72Z" style="fill:rgb(38,50,56);fill-rule:nonzero;"/>
            <path d="M472.59,349.42C472.59,349.61 455.22,349.76 433.81,349.76C412.4,349.76 395.02,349.61 395.02,349.42C395.02,349.23 412.38,349.09 433.81,349.09C455.24,349.09 472.59,349.24 472.59,349.42Z" style="fill:rgb(38,50,56);fill-rule:nonzero;"/>
            <path d="M548.19,336.49C548.19,336.67 513.9,336.82 471.61,336.82C429.32,336.82 395.02,336.67 395.02,336.49C395.02,336.31 429.3,336.15 471.61,336.15C513.92,336.15 548.19,336.3 548.19,336.49Z" style="fill:rgb(38,50,56);fill-rule:nonzero;"/>
            <path d="M593.93,369.26L593.93,347.36C593.93,333.26 593.88,312.78 593.84,287.26L594.02,287.43L373.77,287.52L374.03,287.26L374.03,369.26L373.78,369.01L531.59,369.12L577.48,369.19L594.04,369.19L577.59,369.19L531.76,369.26L373.76,369.38L373.51,369.38L373.51,287L373.78,287L594.03,287.08L594.2,287.08L594.2,287.26C594.2,312.82 594.13,333.34 594.11,347.47L594.11,367.85C594.11,368.8 593.93,369.26 593.93,369.26Z" style="fill:rgb(38,50,56);fill-rule:nonzero;"/>
            <ellipse cx="158.68" cy="101.16" rx="11.21" ry="10.71" style="fill:rgb(237,50,55);"/>
        </g>
        <g id="freepik--HTML--inject-7" transform="matrix(0.713758,0,0,0.713758,-12.8895,-6.4903)">
            <rect x="141.23" y="352.8" width="210.87" height="119.83" style="fill:rgb(250,250,250);"/>
            <path d="M352.11,472.63L352.11,464.22C352.11,458.72 352.11,450.64 352.06,440.22C352.06,419.47 352,389.54 351.96,352.76L352.16,352.96L141.3,353.02L141.56,352.76L141.56,472.59L141.32,472.35L293.02,472.46L336.57,472.53L352.18,472.53L336.63,472.53L293.13,472.59L141.27,472.71L141,472.71L141,352.38L141.28,352.38L352.14,352.44L352.34,352.44L352.34,352.64C352.29,389.47 352.26,419.45 352.23,440.22C352.23,450.59 352.23,458.65 352.18,464.14L352.18,470.36C352.18,471.77 352.11,472.63 352.11,472.63Z" style="fill:rgb(38,50,56);fill-rule:nonzero;"/>
            <path d="M226.79,372.35C226.79,372.49 212.46,372.61 194.79,372.61C177.12,372.61 162.79,372.49 162.79,372.35C162.79,372.21 177.11,372.09 194.79,372.09C212.47,372.09 226.79,372.21 226.79,372.35Z" style="fill:rgb(235,235,235);fill-rule:nonzero;"/>
            <path d="M260.29,383.83C260.29,383.98 245.96,384.09 228.29,384.09C210.62,384.09 196.29,383.98 196.29,383.83C196.29,383.68 210.61,383.57 228.29,383.57C245.97,383.57 260.29,383.69 260.29,383.83Z" style="fill:rgb(235,235,235);fill-rule:nonzero;"/>
            <path d="M330,372.35C330,372.49 315.68,372.61 298,372.61C280.32,372.61 266,372.49 266,372.35C266,372.21 280.33,372.09 298,372.09C315.67,372.09 330,372.21 330,372.35Z" style="fill:rgb(235,235,235);fill-rule:nonzero;"/>
            <path d="M254,372.34C251.128,372.597 248.243,372.684 245.36,372.6C242.477,372.684 239.592,372.597 236.72,372.34C239.592,372.083 242.477,371.996 245.36,372.08C248.243,371.996 251.128,372.083 254,372.34Z" style="fill:rgb(235,235,235);fill-rule:nonzero;"/>
            <path d="M181.94,383.83C179.068,384.094 176.183,384.181 173.3,384.09C170.417,384.18 167.532,384.093 164.66,383.83C167.532,383.573 170.417,383.486 173.3,383.57C176.183,383.485 179.068,383.572 181.94,383.83Z" style="fill:rgb(235,235,235);fill-rule:nonzero;"/>
            <path d="M285.2,383.35C282.435,383.607 279.656,383.694 276.88,383.61C274.107,383.694 271.332,383.607 268.57,383.35C271.332,383.093 274.107,383.006 276.88,383.09C279.656,383.006 282.435,383.093 285.2,383.35Z" style="fill:rgb(235,235,235);fill-rule:nonzero;"/>
            <path d="M226.79,398.65C226.79,398.79 212.46,398.91 194.79,398.91C177.12,398.91 162.79,398.79 162.79,398.65C162.79,398.51 177.11,398.39 194.79,398.39C212.47,398.39 226.79,398.5 226.79,398.65Z" style="fill:rgb(235,235,235);fill-rule:nonzero;"/>
            <path d="M260.29,410.13C260.29,410.28 245.96,410.39 228.29,410.39C210.62,410.39 196.29,410.28 196.29,410.13C196.29,409.98 210.61,409.87 228.29,409.87C245.97,409.87 260.29,410 260.29,410.13Z" style="fill:rgb(235,235,235);fill-rule:nonzero;"/>
            <path d="M330,398.65C330,398.79 315.68,398.91 298,398.91C280.32,398.91 266,398.79 266,398.65C266,398.51 280.33,398.39 298,398.39C315.67,398.39 330,398.5 330,398.65Z" style="fill:rgb(235,235,235);fill-rule:nonzero;"/>
            <path d="M254,398.64C251.128,398.897 248.243,398.984 245.36,398.9C242.477,398.984 239.592,398.897 236.72,398.64C239.592,398.383 242.477,398.296 245.36,398.38C248.243,398.296 251.128,398.383 254,398.64Z" style="fill:rgb(235,235,235);fill-rule:nonzero;"/>
            <path d="M181.94,410.13C179.068,410.394 176.183,410.481 173.3,410.39C170.417,410.48 167.532,410.393 164.66,410.13C167.532,409.873 170.417,409.786 173.3,409.87C176.183,409.785 179.068,409.872 181.94,410.13Z" style="fill:rgb(235,235,235);fill-rule:nonzero;"/>
            <path d="M285.2,409.65C282.435,409.907 279.656,409.994 276.88,409.91C274.107,409.994 271.332,409.907 268.57,409.65C271.332,409.387 274.107,409.3 276.88,409.39C279.656,409.3 282.435,409.387 285.2,409.65Z" style="fill:rgb(235,235,235);fill-rule:nonzero;"/>
            <path d="M227.38,444.24C227.38,444.39 213.06,444.5 195.38,444.5C177.7,444.5 163.38,444.39 163.38,444.24C163.38,444.09 177.71,443.98 195.38,443.98C213.05,443.98 227.38,444.1 227.38,444.24Z" style="fill:rgb(235,235,235);fill-rule:nonzero;"/>
            <path d="M260.88,455.73C260.88,455.87 246.55,455.99 228.88,455.99C211.21,455.99 196.88,455.87 196.88,455.73C196.88,455.59 211.21,455.47 228.88,455.47C246.55,455.47 260.88,455.59 260.88,455.73Z" style="fill:rgb(235,235,235);fill-rule:nonzero;"/>
            <path d="M330.59,444.24C330.59,444.39 316.26,444.5 298.59,444.5C280.92,444.5 266.59,444.39 266.59,444.24C266.59,444.09 280.91,443.98 298.59,443.98C316.27,443.98 330.59,444.1 330.59,444.24Z" style="fill:rgb(235,235,235);fill-rule:nonzero;"/>
            <path d="M254.58,444.24C251.708,444.497 248.823,444.584 245.94,444.5C243.057,444.585 240.172,444.498 237.3,444.24C240.172,443.976 243.057,443.889 245.94,443.98C248.823,443.89 251.708,443.977 254.58,444.24Z" style="fill:rgb(235,235,235);fill-rule:nonzero;"/>
            <path d="M182.54,455.73C179.668,455.987 176.783,456.074 173.9,455.99C171.017,456.074 168.132,455.987 165.26,455.73C168.132,455.473 171.017,455.386 173.9,455.47C176.783,455.386 179.668,455.473 182.54,455.73Z" style="fill:rgb(235,235,235);fill-rule:nonzero;"/>
            <path d="M285.79,455.24C283.028,455.503 280.253,455.59 277.48,455.5C274.704,455.59 271.925,455.504 269.16,455.24C271.925,454.982 274.704,454.896 277.48,454.98C280.253,454.896 283.028,454.983 285.79,455.24Z" style="fill:rgb(235,235,235);fill-rule:nonzero;"/>
            <path d="M226.79,423.38C226.79,423.52 212.46,423.64 194.79,423.64C177.12,423.64 162.79,423.52 162.79,423.38C162.79,423.24 177.11,423.12 194.79,423.12C212.47,423.12 226.79,423.23 226.79,423.38Z" style="fill:rgb(235,235,235);fill-rule:nonzero;"/>
            <path d="M260.29,434.86C260.29,435 245.96,435.12 228.29,435.12C210.62,435.12 196.29,435 196.29,434.86C196.29,434.72 210.61,434.6 228.29,434.6C245.97,434.6 260.29,434.72 260.29,434.86Z" style="fill:rgb(235,235,235);fill-rule:nonzero;"/>
            <path d="M330,423.38C330,423.52 315.68,423.64 298,423.64C280.32,423.64 266,423.52 266,423.38C266,423.24 280.33,423.12 298,423.12C315.67,423.12 330,423.23 330,423.38Z" style="fill:rgb(235,235,235);fill-rule:nonzero;"/>
            <path d="M254,423.37C251.128,423.627 248.243,423.714 245.36,423.63C242.477,423.714 239.592,423.627 236.72,423.37C239.592,423.107 242.477,423.02 245.36,423.11C248.243,423.02 251.128,423.107 254,423.37Z" style="fill:rgb(235,235,235);fill-rule:nonzero;"/>
            <path d="M181.94,434.86C179.068,435.118 176.183,435.205 173.3,435.12C170.417,435.204 167.532,435.117 164.66,434.86C167.532,434.603 170.417,434.516 173.3,434.6C176.183,434.515 179.068,434.602 181.94,434.86Z" style="fill:rgb(235,235,235);fill-rule:nonzero;"/>
            <path d="M285.2,434.38C282.435,434.637 279.656,434.724 276.88,434.64C274.107,434.724 271.332,434.637 268.57,434.38C271.332,434.117 274.107,434.03 276.88,434.12C279.656,434.03 282.435,434.117 285.2,434.38Z" style="fill:rgb(235,235,235);fill-rule:nonzero;"/>
        </g>
        <g id="freepik--speech-bubble--inject-7" transform="matrix(0.713758,0,0,0.713758,-12.8895,-6.4903)">
            <path d="M209.16,155.51L197.96,149.81C197.456,134.121 184.412,121.489 168.715,121.489C152.664,121.489 139.455,134.697 139.455,150.749C139.455,166.8 152.664,180.009 168.715,180.009C181.205,180.009 192.38,172.012 196.41,160.19L209.16,155.51Z" style="fill:white;fill-rule:nonzero;"/>
            <path d="M209.16,155.51L196.45,160.32C196.434,160.329 196.415,160.334 196.397,160.334C196.346,160.334 196.302,160.299 196.29,160.25C196.285,160.23 196.285,160.21 196.29,160.19L196.54,160.19C194.896,165.096 191.98,169.479 188.09,172.89C186.93,173.92 185.678,174.84 184.35,175.64C183.66,176.05 182.98,176.48 182.25,176.87L180,178C173.05,180.859 165.264,180.963 158.24,178.29C154.341,176.815 150.801,174.524 147.86,171.57C144.772,168.434 142.415,164.654 140.96,160.5C139.419,156.178 138.925,151.55 139.52,147C140.123,142.329 141.838,137.871 144.52,134C147.09,130.32 150.457,127.268 154.37,125.07C158.054,122.986 162.15,121.733 166.37,121.4C173.959,120.83 181.484,123.206 187.37,128.03C189.835,130.106 191.964,132.552 193.68,135.28C196.387,139.658 197.888,144.675 198.03,149.82L197.96,149.71L209.1,155.52L197.84,149.93C197.799,149.909 197.775,149.865 197.78,149.82C197.595,144.734 196.078,139.785 193.38,135.47C191.663,132.79 189.549,130.386 187.11,128.34C181.28,123.613 173.853,121.3 166.37,121.88C162.211,122.208 158.176,123.447 154.55,125.51C150.707,127.675 147.398,130.675 144.87,134.29C142.261,138.08 140.592,142.437 140,147C139.396,151.476 139.866,156.032 141.37,160.29C142.799,164.375 145.115,168.094 148.15,171.18C151.034,174.09 154.509,176.347 158.34,177.8C165.254,180.446 172.922,180.368 179.78,177.58L182.02,176.58C182.73,176.19 183.41,175.77 184.1,175.37C185.411,174.581 186.649,173.678 187.8,172.67C191.668,169.317 194.583,165.001 196.25,160.16C196.273,160.095 196.344,160.06 196.41,160.08C196.467,160.102 196.504,160.159 196.5,160.22L196.32,160.09L209.16,155.51Z" style="fill:rgb(38,50,56);fill-rule:nonzero;"/>
            <path d="M175.36,157.16C175.49,156.973 175.641,156.802 175.81,156.65L177.12,155.33C178.23,154.24 179.78,152.73 181.51,151.09L181.51,151.31C179.77,149.7 178.21,148.22 177.09,147.15L175.78,145.86C175.611,145.708 175.457,145.541 175.32,145.36C175.183,145.179 175.53,145.49 175.86,145.77L177.24,146.99C178.39,147.99 179.98,149.47 181.72,151.09L181.83,151.2L181.72,151.31C179.99,152.95 178.42,154.43 177.27,155.49L175.9,156.73C175.737,156.894 175.556,157.038 175.36,157.16Z" style="fill:rgb(38,50,56);fill-rule:nonzero;"/>
            <path d="M175.36,157.29C175.331,157.3 175.299,157.3 175.27,157.29C175.18,157.19 175.21,157.15 175.72,156.61L177.03,155.3C178.16,154.18 179.65,152.74 181.25,151.21C179.67,149.75 178.19,148.35 177.04,147.21L175.73,145.92C175.23,145.42 175.17,145.35 175.27,145.24C175.37,145.13 175.43,145.24 175.98,145.65L177.36,146.87C178.54,147.87 180.05,149.31 181.65,150.79L181.82,150.95L182.04,151.15L181.78,151.39L181.66,151.51C180.03,153.06 178.5,154.51 177.35,155.51L176,156.83C175.59,157.17 175.44,157.29 175.36,157.29ZM181.43,151.29L178.06,154.54C179.06,153.62 180.23,152.54 181.47,151.33L181.43,151.29ZM178.09,147.81C179.09,148.75 180.23,149.81 181.43,150.95C180.26,149.83 179.09,148.76 178.09,147.85L178.09,147.81Z" style="fill:rgb(38,50,56);fill-rule:nonzero;"/>
            <path d="M161.94,145.32C161.815,145.51 161.663,145.682 161.49,145.83L160.19,147.14C159.07,148.24 157.52,149.74 155.8,151.39L155.8,151.17C157.54,152.78 159.1,154.25 160.22,155.33L161.53,156.62C161.84,156.92 162,157.1 161.98,157.12C161.792,156.995 161.615,156.854 161.45,156.7L160,155.53C158.84,154.53 157.26,153.04 155.52,151.43L155.4,151.32L155.52,151.21C157.24,149.56 158.82,148.09 159.97,147.03L161.34,145.78C161.521,145.604 161.723,145.449 161.94,145.32Z" style="fill:rgb(38,50,56);fill-rule:nonzero;"/>
            <path d="M162,157.29C161.92,157.29 161.78,157.18 161.38,156.84L160,155.62C158.84,154.62 157.32,153.2 155.71,151.7L155.54,151.54L155.32,151.34L155.57,151.1L155.7,150.98C157.33,149.43 158.85,147.98 160,146.93L161.38,145.69C161.92,145.22 161.98,145.17 162.08,145.27C162.18,145.37 162.08,145.45 161.63,145.96L160.32,147.27C159.2,148.38 157.71,149.82 156.11,151.35C157.7,152.84 159.19,154.24 160.31,155.35L161.63,156.64C162.13,157.15 162.18,157.2 162.09,157.31C162.059,157.314 162.027,157.307 162,157.29ZM155.89,151.52C157.11,152.66 158.27,153.72 159.27,154.62L155.93,151.49L155.89,151.52ZM155.88,151.11C157.11,149.94 158.28,148.82 159.26,147.86C158.25,148.82 157.07,149.93 155.83,151.11L155.88,151.11Z" style="fill:rgb(38,50,56);fill-rule:nonzero;"/>
            <path d="M165.39,160C165.31,160 166.72,156 168.53,151.15C170.34,146.3 171.89,142.39 171.96,142.42C172.03,142.45 170.63,146.42 168.82,151.26C167.01,156.1 165.47,160 165.39,160Z" style="fill:rgb(38,50,56);fill-rule:nonzero;"/>
            <path d="M165.4,160.08L165.34,160.08C165.19,160.03 165.17,160.02 166.13,157.31C166.73,155.64 167.54,153.43 168.42,151.08C169.3,148.73 170.13,146.53 170.78,144.88C171.83,142.21 171.86,142.21 172.01,142.27C172.16,142.33 172.18,142.33 171.22,145.04C170.62,146.71 169.81,148.93 168.93,151.27C168.05,153.61 167.22,155.82 166.57,157.48C165.65,159.78 165.52,160.08 165.4,160.08ZM170.55,146.15C170.02,147.52 169.38,149.21 168.65,151.15C167.92,153.09 167.3,154.79 166.8,156.15C167.33,154.79 167.97,153.15 168.7,151.15C169.43,149.15 170.05,147.53 170.55,146.15Z" style="fill:rgb(38,50,56);fill-rule:nonzero;"/>
        </g>
        <g id="freepik--Character--inject-7" transform="matrix(0.713758,0,0,0.713758,-12.8895,-6.4903)">
            <path d="M243.12,126.73C243.981,121.292 248.416,117.076 253.89,116.49C255.295,116.516 256.697,116.358 258.06,116.02C259.098,115.519 260.1,114.948 261.06,114.31C264.457,112.58 268.635,113.449 271.06,116.39C273.2,119.13 274.06,115.32 279.12,118.32C283.31,120.81 281.12,124.32 281.12,124.32C285.577,124.256 289.493,127.38 290.42,131.74C290.92,134.44 290.37,137.74 292.47,139.48C293.47,140.34 294.91,140.57 295.97,141.39C297.92,142.9 297.97,145.82 297.55,148.25C297.13,150.68 296.35,153.25 297.25,155.55C298.73,159.33 304.11,160.82 304.77,164.82C305.08,166.71 304.29,168.98 305.6,170.37C306.192,170.873 306.87,171.265 307.6,171.53C310.52,172.966 312.378,175.949 312.378,179.203C312.378,182.328 310.664,185.214 307.92,186.71C307.16,187.13 306.25,187.51 305.92,188.33C305.59,189.15 306.2,190.19 306.63,191.06C307.206,192.205 307.507,193.469 307.507,194.751C307.507,199.255 303.8,202.961 299.297,202.961C297.756,202.961 296.246,202.528 294.94,201.71C293.298,204.613 290.589,206.766 287.39,207.71C285.938,208.189 284.376,208.23 282.9,207.83C281.755,207.412 280.707,206.765 279.82,205.93C275.45,202.12 269.32,196.29 268.91,190.51" style="fill:rgb(38,50,56);fill-rule:nonzero;"/>
            <path d="M344,194.91L317.8,218.91C314.55,218.16 274.66,194.31 274.66,194.31L268.38,225C268.38,225 309.21,243.77 320.44,241.5C322.28,241.12 325.29,240.89 327.18,238.5C336.18,226.95 355.24,198.37 355.24,198.37L344,194.91Z" style="fill:rgb(255,190,157);fill-rule:nonzero;"/>
            <path d="M356.69,168.5C354.96,169.21 348.78,179.63 348.78,179.63L347.23,179.71C344.634,179.849 342.574,182.023 342.574,184.623C342.574,184.823 342.586,185.022 342.61,185.22C343.12,189.56 344.03,194.91 344.03,194.91L352.67,198.85L355.24,198.31C357.62,198.19 359.94,193.31 361.41,189.93C362.88,186.55 360.47,185.84 360.47,185.84C360.47,182.45 357.6,183.12 357.6,183.12C357.568,181.497 356.224,180.179 354.601,180.179C354.57,180.179 354.54,180.179 354.51,180.18C354.48,180.181 358.34,173.18 359.09,170.69C359.84,168.2 358.42,167.8 356.69,168.5Z" style="fill:rgb(255,190,157);fill-rule:nonzero;"/>
            <path d="M357.43,183.12C357.182,183.87 356.881,184.602 356.53,185.31C356.374,185.682 356.194,186.042 355.99,186.39C355.73,186.784 355.413,187.138 355.05,187.44C354.644,187.789 354.16,188.035 353.64,188.16C353.052,188.267 352.446,188.122 351.97,187.76C351.73,187.561 351.558,187.292 351.48,186.99C351.42,186.703 351.42,186.407 351.48,186.12C351.583,185.618 351.73,185.126 351.92,184.65C352.226,183.843 352.587,183.058 353,182.3C353.273,181.792 353.577,181.301 353.91,180.83C354.016,180.643 354.151,180.474 354.31,180.33C354.36,180.33 353.85,181.11 353.21,182.41C352.83,183.173 352.496,183.958 352.21,184.76C352.036,185.222 351.899,185.697 351.8,186.18C351.688,186.658 351.845,187.161 352.21,187.49C352.61,187.79 353.118,187.909 353.61,187.82C354.073,187.711 354.505,187.495 354.87,187.19C355.219,186.904 355.522,186.567 355.77,186.19C355.982,185.872 356.169,185.537 356.33,185.19C356.644,184.473 357.012,183.782 357.43,183.12Z" style="fill:rgb(235,153,110);fill-rule:nonzero;"/>
            <path d="M360.37,185.36C360.35,185.565 360.303,185.767 360.23,185.96C360.073,186.495 359.882,187.019 359.66,187.53C359.342,188.31 358.9,189.032 358.35,189.67C358.026,190.065 357.616,190.38 357.15,190.59C356.933,190.705 356.691,190.765 356.445,190.765C355.616,190.765 354.935,190.083 354.935,189.255C354.935,189.118 354.953,188.982 354.99,188.85C355.074,188.358 355.208,187.875 355.39,187.41C355.656,186.63 355.966,185.865 356.32,185.12C356.62,184.48 356.89,183.97 357.09,183.63C357.174,183.442 357.289,183.27 357.43,183.12C357.48,183.12 357.08,183.92 356.54,185.21C356.27,185.86 355.97,186.64 355.69,187.51C355.519,187.955 355.398,188.418 355.33,188.89C355.294,189.004 355.276,189.124 355.276,189.244C355.276,189.891 355.808,190.424 356.456,190.424C356.653,190.424 356.847,190.374 357.02,190.28C357.442,190.086 357.817,189.803 358.12,189.45C358.661,188.856 359.106,188.181 359.44,187.45C360,186.17 360.32,185.34 360.37,185.36Z" style="fill:rgb(235,153,110);fill-rule:nonzero;"/>
            <path d="M361.9,187.87C361.901,188.425 361.785,188.973 361.56,189.48C361.359,190.048 361.094,190.591 360.77,191.1C360.584,191.411 360.362,191.7 360.11,191.96C359.804,192.274 359.363,192.419 358.93,192.35C358.494,192.23 358.17,191.859 358.11,191.41C358.058,191.04 358.078,190.663 358.17,190.3C358.313,189.716 358.528,189.151 358.81,188.62C359.037,188.122 359.294,187.637 359.58,187.17C359.473,187.711 359.288,188.233 359.03,188.72C358.788,189.249 358.604,189.802 358.48,190.37C358.422,190.701 358.422,191.039 358.48,191.37C358.521,191.685 358.739,191.949 359.04,192.05C359.366,192.098 359.696,191.982 359.92,191.74C360.157,191.505 360.365,191.243 360.54,190.96C360.866,190.473 361.147,189.958 361.38,189.42C361.73,188.48 361.85,187.86 361.9,187.87Z" style="fill:rgb(235,153,110);fill-rule:nonzero;"/>
            <path d="M347.23,179.71C349.776,179.603 352.326,179.626 354.87,179.78C355.245,181.099 354.596,182.508 353.35,183.08C352.118,183.593 350.776,183.785 349.45,183.64C350.459,184.585 351.033,185.907 351.033,187.29C351.033,188.724 350.416,190.091 349.34,191.04" style="fill:rgb(255,190,157);fill-rule:nonzero;"/>
            <path d="M349.34,191C349.87,190.434 350.294,189.777 350.59,189.06C351.303,187.196 350.806,185.074 349.34,183.72L349.02,183.42L349.46,183.42C350.638,183.533 351.828,183.397 352.95,183.02C354.3,182.5 355.21,180.96 354.72,179.79L354.86,179.89C352.63,179.72 350.72,179.72 349.37,179.7L347.8,179.7C347.611,179.726 347.419,179.726 347.23,179.7C347.413,179.654 347.601,179.631 347.79,179.63C348.16,179.63 348.69,179.57 349.37,179.55C350.72,179.55 352.63,179.47 354.88,179.61L354.98,179.61L354.98,179.71C355.245,180.419 355.171,181.212 354.78,181.86C354.39,182.546 353.78,183.081 353.05,183.38C351.877,183.775 350.632,183.915 349.4,183.79L349.52,183.51C350.365,184.304 350.916,185.362 351.08,186.51C351.209,187.408 351.092,188.324 350.74,189.16C350.499,189.707 350.161,190.205 349.74,190.63C349.627,190.773 349.492,190.898 349.34,191Z" style="fill:rgb(235,153,110);fill-rule:nonzero;"/>
            <path d="M297.21,453.7C297.403,453.442 297.536,453.145 297.6,452.83C297.853,451.995 297.924,451.115 297.81,450.25C297.785,449.948 297.714,449.651 297.6,449.37C297.467,449.001 297.139,448.734 296.75,448.68C296.515,448.654 296.279,448.734 296.11,448.9C295.961,449.063 295.869,449.27 295.85,449.49C295.82,449.849 295.82,450.211 295.85,450.57C295.91,451.3 295.91,451.99 296.02,452.84C296.098,453.332 296.44,453.744 296.91,453.91C297.349,454.039 297.812,454.059 298.26,453.97C299.067,453.825 299.855,453.59 300.61,453.27C300.97,453.117 301.32,452.943 301.66,452.75C302.022,452.576 302.345,452.331 302.61,452.03C302.918,451.661 302.918,451.119 302.61,450.75C302.298,450.47 301.864,450.368 301.46,450.48C300.872,450.635 300.307,450.867 299.78,451.17C299.017,451.582 298.317,452.1 297.7,452.71C297.27,453.14 297.08,453.43 297.11,453.45C297.996,452.719 298.95,452.076 299.96,451.53C300.462,451.273 300.992,451.075 301.54,450.94C301.82,450.94 302.12,450.94 302.23,451.08C302.363,451.28 302.338,451.548 302.17,451.72C301.937,451.951 301.667,452.14 301.37,452.28C301.05,452.45 300.71,452.61 300.37,452.76C299.649,453.057 298.898,453.275 298.13,453.41C297.782,453.496 297.418,453.496 297.07,453.41C296.778,453.316 296.569,453.055 296.54,452.75C296.43,452.06 296.41,451.26 296.34,450.57C296.3,450.238 296.283,449.904 296.29,449.57C296.29,449.29 296.45,449.15 296.65,449.17C297.12,449.17 297.28,449.82 297.36,450.33C297.528,451.452 297.477,452.597 297.21,453.7Z" style="fill:rgb(38,50,56);fill-rule:nonzero;"/>
            <path d="M339.78,413.5C339.852,413.187 339.852,412.863 339.78,412.55C339.618,411.686 339.277,410.865 338.78,410.14C338.626,409.882 338.434,409.65 338.21,409.45C337.928,409.174 337.515,409.078 337.14,409.2C336.916,409.28 336.74,409.456 336.66,409.68C336.594,409.888 336.594,410.112 336.66,410.32C336.795,410.668 336.962,411.003 337.16,411.32C337.53,411.95 337.83,412.57 338.31,413.32C338.599,413.725 339.085,413.943 339.58,413.89C340.03,413.815 340.454,413.625 340.81,413.34C341.796,412.632 342.649,411.755 343.33,410.75C343.573,410.432 343.755,410.073 343.87,409.69C343.991,409.223 343.758,408.732 343.32,408.53C342.923,408.409 342.49,408.504 342.18,408.78C341.719,409.182 341.312,409.642 340.97,410.15C340.471,410.858 340.074,411.632 339.79,412.45C339.659,412.739 339.588,413.052 339.58,413.37C340.059,412.321 340.631,411.317 341.29,410.37C341.626,409.918 342.016,409.509 342.45,409.15C342.631,408.978 342.888,408.91 343.13,408.97C343.333,409.09 343.425,409.337 343.35,409.56C343.25,409.872 343.094,410.164 342.89,410.42C342.677,410.723 342.447,411.014 342.2,411.29C341.69,411.879 341.113,412.405 340.48,412.86C340.19,413.092 339.846,413.247 339.48,413.31C339.176,413.35 338.874,413.209 338.71,412.95C338.31,412.38 337.93,411.67 337.57,411.08C337.386,410.804 337.226,410.513 337.09,410.21C336.99,409.94 337.09,409.77 337.23,409.69C337.67,409.51 338.09,410 338.38,410.42C339.033,411.351 339.508,412.396 339.78,413.5Z" style="fill:rgb(38,50,56);fill-rule:nonzero;"/>
            <path d="M310.13,423.26L297.93,449.71L278.24,440.61L290.86,407.88L310.13,423.26Z" style="fill:rgb(255,190,157);fill-rule:nonzero;"/>
            <path d="M300.24,447.94L293.11,461.54C293.11,461.54 311.36,480.41 309.64,484.62L266.74,464.05L278.53,436.79L300.24,447.94Z" style="fill:rgb(69,90,100);fill-rule:nonzero;"/>
            <path d="M280.73,453.32C279.755,453.17 278.813,453.786 278.56,454.74C278.376,455.725 279.02,456.691 280,456.9C281.035,457.055 282.031,456.394 282.29,455.38C282.348,454.357 281.612,453.447 280.6,453.29" style="fill:rgb(224,224,224);fill-rule:nonzero;"/>
            <g opacity="0.6">
                <path d="M266.74,464.05L268.53,460.63L308.99,481.63C308.99,481.63 310.5,483.38 309.64,484.63L266.74,464.05Z" style="fill:white;fill-rule:nonzero;"/>
            </g>
            <path d="M293.91,461.65C293.8,461.86 292.71,461.45 291.35,461.65C289.99,461.85 289.03,462.45 288.87,462.27C288.71,462.09 289.61,461.03 291.26,460.85C292.91,460.67 294,461.48 293.91,461.65Z" style="fill:rgb(38,50,56);fill-rule:nonzero;"/>
            <path d="M297.51,465.67C297.46,465.9 296.39,465.82 295.25,466.36C294.11,466.9 293.46,467.75 293.25,467.64C293.04,467.53 293.48,466.28 294.91,465.64C296.34,465 297.6,465.47 297.51,465.67Z" style="fill:rgb(38,50,56);fill-rule:nonzero;"/>
            <path d="M297.49,472.28C297.28,472.28 297.49,471.05 298.57,470.16C299.65,469.27 300.86,469.28 300.86,469.5C300.86,469.72 299.97,470.04 299.09,470.78C298.21,471.52 297.7,472.36 297.49,472.28Z" style="fill:rgb(38,50,56);fill-rule:nonzero;"/>
            <path d="M296,456.41C295.82,456.56 295,455.81 293.78,455.33C292.56,454.85 291.45,454.77 291.43,454.54C291.41,454.31 292.65,453.98 294.08,454.54C295.51,455.1 296.13,456.3 296,456.41Z" style="fill:rgb(38,50,56);fill-rule:nonzero;"/>
            <path d="M310.41,432.34L341.49,355C341.49,355 340.77,341.26 338.24,336.93C335.71,332.6 259.09,307.29 259.09,307.29C259.09,307.29 239.57,302.59 226.56,307.29C213.55,311.99 203.79,328.29 205.56,337.29C207.33,346.29 215,353 215,353L271.34,354.68L302.06,365.88L281.4,425.11C281.4,425.11 292,436.68 310.41,432.34Z" style="fill:rgb(38,50,56);fill-rule:nonzero;"/>
            <path d="M337.93,380.49L338.66,409.6L316.98,410.13L313.85,375.19L337.93,380.49Z" style="fill:rgb(255,190,157);fill-rule:nonzero;"/>
            <path d="M340,407L339.6,422.35C339.6,422.35 364.31,431.22 364.6,435.76L317.03,436.25L315.57,406.57L340,407Z" style="fill:rgb(69,90,100);fill-rule:nonzero;"/>
            <path d="M324.82,420.43C323.893,420.748 323.329,421.704 323.5,422.67C323.767,423.618 324.738,424.201 325.7,423.99C326.695,423.671 327.297,422.644 327.09,421.62C326.71,420.659 325.626,420.161 324.65,420.5" style="fill:rgb(224,224,224);fill-rule:nonzero;"/>
            <g opacity="0.6">
                <path d="M317,436.25L317.09,432.39L362.67,433.39C362.67,433.39 364.8,434.29 364.57,435.78L317,436.25Z" style="fill:white;fill-rule:nonzero;"/>
            </g>
            <path d="M340.32,422.1C340.32,422.33 339.16,422.45 338.02,423.21C336.88,423.97 336.29,424.95 336.07,424.86C335.85,424.77 336.19,423.42 337.58,422.53C338.97,421.64 340.37,421.88 340.32,422.1Z" style="fill:rgb(38,50,56);fill-rule:nonzero;"/>
            <path d="M345.33,424.11C345.39,424.33 344.39,424.74 343.61,425.73C342.83,426.72 342.61,427.73 342.38,427.73C342.15,427.73 341.99,426.4 342.98,425.19C343.97,423.98 345.33,423.89 345.33,424.11Z" style="fill:rgb(38,50,56);fill-rule:nonzero;"/>
            <path d="M348.23,430.05C348.02,430.11 347.68,428.95 348.23,427.67C348.78,426.39 349.89,425.87 349.99,426.07C350.09,426.27 349.43,426.95 348.99,428C348.55,429.05 348.46,430 348.23,430.05Z" style="fill:rgb(38,50,56);fill-rule:nonzero;"/>
            <path d="M339.85,416.49C339.75,416.71 338.68,416.4 337.37,416.49C336.06,416.58 335.04,417.02 334.92,416.82C334.8,416.62 335.77,415.82 337.32,415.68C338.87,415.54 340,416.31 339.85,416.49Z" style="fill:rgb(38,50,56);fill-rule:nonzero;"/>
            <path d="M325.27,299.65C325.27,299.65 338.27,298.65 339.71,312.71C341.15,326.77 342.57,392.58 342.57,392.58L312.22,395.11L307.52,327.89L259.09,307.29C259.09,307.29 316.6,297.85 325.27,299.65Z" style="fill:rgb(38,50,56);fill-rule:nonzero;"/>
            <path d="M271.72,280.63C271.72,280.63 279.61,302.74 278.11,305.2C276.61,307.66 256.33,317.8 256.33,317.8L205.6,337.29C205.6,337.29 200.39,329 200.39,316.29C200.39,303.58 218,280.63 218,280.63L271.72,280.63Z" style="fill:rgb(38,50,56);fill-rule:nonzero;"/>
            <path d="M256.69,306.16C256.69,306.16 256.76,306.16 256.92,306.29L257.64,306.62L260.45,307.87L271,312.47L307.41,328.14L307.25,327.91C307.71,334.55 308.2,341.72 308.72,349.14C309.95,366.49 311.09,382.48 311.99,395.14L311.99,395.37L312.21,395.37L334.33,393.43L340.42,392.86L342.01,392.69C342.193,392.686 342.374,392.66 342.55,392.61L342.01,392.61L340.41,392.71L334.31,393.15L312.18,394.9L312.42,395.11C311.55,382.45 310.42,366.46 309.26,349.11C308.74,341.69 308.26,334.52 307.77,327.88L307.77,327.71L307.61,327.65L271.13,312.16L260.52,307.71L257.67,306.55L256.93,306.26C256.856,306.214 256.775,306.181 256.69,306.16Z" style="fill:rgb(69,90,100);fill-rule:nonzero;"/>
            <path d="M216.34,308.37C216.826,308.292 217.302,308.161 217.76,307.98L221.58,306.75C225.751,305.337 230.028,304.257 234.37,303.52C238.706,302.812 243.133,302.87 247.45,303.69C249.225,304.104 250.978,304.612 252.7,305.21C252.287,304.938 251.844,304.713 251.38,304.54C250.137,304.019 248.853,303.604 247.54,303.3C243.181,302.351 238.682,302.236 234.28,302.96C229.906,303.694 225.611,304.836 221.45,306.37C219.85,306.94 218.57,307.43 217.69,307.78C217.221,307.931 216.769,308.128 216.34,308.37Z" style="fill:rgb(69,90,100);fill-rule:nonzero;"/>
            <path d="M223.51,296.72C224.985,296.63 226.465,296.63 227.94,296.72C229.31,296.81 230.94,297.02 232.75,297.23C234.56,297.44 236.54,297.69 238.59,298.08C242.112,298.644 245.49,299.894 248.53,301.76C249.743,302.605 250.896,303.534 251.98,304.54C251.784,304.187 251.534,303.866 251.24,303.59C250.494,302.782 249.663,302.058 248.76,301.43C245.723,299.425 242.293,298.092 238.7,297.52C236.62,297.13 234.62,296.9 232.8,296.71C230.98,296.52 229.35,296.36 227.97,296.32C226.871,296.267 225.77,296.313 224.68,296.46C224.279,296.487 223.885,296.575 223.51,296.72Z" style="fill:rgb(69,90,100);fill-rule:nonzero;"/>
            <path d="M273,193.54C276.576,194.92 279.556,197.511 281.42,200.86C284.59,206.46 283.74,209.23 282.92,212.54C282.1,215.85 280.63,222.42 280.55,222C280.47,221.58 273,193.54 273,193.54Z" style="fill:rgb(255,190,157);fill-rule:nonzero;"/>
            <path d="M272.62,193.53L265.97,189.59L228.47,188.6L241.1,230.02L263.94,244.41L277.48,237.63L278.83,222.58L272.62,193.53Z" style="fill:rgb(255,190,157);fill-rule:nonzero;"/>
            <path d="M273,193.54C273,193.54 281.62,221.2 281.42,229.12C281.22,237.04 277.94,259.54 278.32,263.97C278.7,268.4 277.15,280.63 271.74,280.63L218,280.63C218,280.63 205.88,277.28 205.35,269.99C204.82,262.7 214.68,200.38 214.68,200.38C214.68,200.38 221.56,190 226,189.09C230.44,188.18 238.68,186.31 241.65,195.5C244.62,204.69 245.59,209.4 251.92,215.74C258.25,222.08 267.28,229.19 267.28,229.19C267.28,229.19 274.56,223.1 274.88,214.86C275.2,206.62 272.13,193.27 272.13,193.27L273,193.54Z" style="fill:rgb(237,50,55);fill-rule:nonzero;"/>
            <path d="M265,281.23C265.786,281.032 266.513,280.648 267.12,280.11C268.649,278.888 269.877,277.331 270.71,275.56C271.535,273.809 272.149,271.966 272.54,270.07C272.772,269.308 272.897,268.517 272.91,267.72C272.578,268.441 272.323,269.195 272.15,269.97C271.651,271.8 271.002,273.586 270.21,275.31C269.398,277.009 268.264,278.534 266.87,279.8C265.81,280.75 265,281.14 265,281.23Z" style="fill:rgb(38,50,56);fill-rule:nonzero;"/>
            <path d="M236.61,246.94C236.873,247.234 237.176,247.49 237.51,247.7C238.379,248.333 239.311,248.876 240.29,249.32C241.742,249.998 243.285,250.463 244.87,250.7C246.822,250.982 248.809,250.897 250.73,250.45C254.2,249.563 257.357,247.732 259.85,245.16C260.602,244.396 261.301,243.581 261.94,242.72C262.193,242.416 262.405,242.08 262.57,241.72C262.49,241.65 261.52,243.02 259.57,244.86C257.055,247.279 253.953,249.003 250.57,249.86C247.174,250.634 243.619,250.309 240.42,248.93C238,247.91 236.67,246.85 236.61,246.94Z" style="fill:rgb(38,50,56);fill-rule:nonzero;"/>
            <path d="M265.69,280.23C265.8,280.33 266.54,279.48 266.79,278.16C267.04,276.84 266.69,275.78 266.55,275.83C266.399,276.563 266.296,277.304 266.24,278.05C266,279.25 265.55,280.15 265.69,280.23Z" style="fill:rgb(38,50,56);fill-rule:nonzero;"/>
            <g opacity="0.3">
                <path d="M261.67,243C261.302,247.106 259.319,250.902 256.16,253.55C252.941,256.147 248.668,257.058 244.67,256C240.667,254.855 237.629,251.554 236.82,247.47C239.525,248.859 242.409,249.869 245.39,250.47C251.948,251.347 258.441,248.281 261.93,242.66L261.49,243.12" style="fill-rule:nonzero;"/>
            </g>
            <g opacity="0.3">
                <path d="M273,268.56C273.784,272.705 272.327,276.971 269.17,279.77C268.564,280.442 267.649,280.75 266.76,280.58C269.784,277.052 271.905,272.84 272.94,268.31" style="fill-rule:nonzero;"/>
            </g>
            <path d="M200.39,230.7L227.44,243.39C227.44,243.39 238.44,218.99 239.44,215.65C240.44,212.31 243.36,207.04 240.31,200.08C237.26,193.12 229.58,189.25 224.48,191.08C212.53,195.23 200.39,230.7 200.39,230.7Z" style="fill:rgb(237,50,55);fill-rule:nonzero;"/>
            <path d="M278.83,230.62C280.09,230.62 294.6,238.21 294.6,238.21L302.86,210.85C290.52,202.63 277.92,194.08 270.7,192.14L277,213.91L278.83,230.62Z" style="fill:rgb(237,50,55);fill-rule:nonzero;"/>
            <path d="M224.79,241.67C219.66,250.09 216.09,254.93 216.09,254.93L262.09,282.93L256.74,295.37L197.14,270.84C197.14,270.84 191.26,264.84 193.34,258.06L202.84,231.83L224.79,241.67Z" style="fill:rgb(255,190,157);fill-rule:nonzero;"/>
            <path d="M204.91,259.21C206.665,258.113 208.504,257.157 210.41,256.35C212.369,255.719 214.376,255.244 216.41,254.93C212.131,254.622 207.922,256.185 204.88,259.21L204.91,259.21Z" style="fill:rgb(235,153,110);fill-rule:nonzero;"/>
            <path d="M200.39,230.7C200.572,230.747 200.75,230.81 200.92,230.89L202.42,231.53L207.89,233.96L225.89,242.14L228.08,243.14L227.73,243.27C230.86,236.83 233.59,231.07 235.53,226.92C236.47,224.92 237.23,223.23 237.79,222C238.04,221.47 238.24,221 238.4,220.67C238.47,220.515 238.55,220.364 238.64,220.22C238.619,220.391 238.568,220.557 238.49,220.71C238.38,221.03 238.21,221.49 237.97,222.08C237.5,223.26 236.78,224.96 235.85,227.08C234,231.28 231.32,237.08 228.2,243.51L228.09,243.74L227.86,243.63L225.67,242.63L207.77,234.3L202.38,231.72L200.92,231C200.728,230.929 200.549,230.828 200.39,230.7Z" style="fill:rgb(38,50,56);fill-rule:nonzero;"/>
            <path d="M277.16,205.87C277.412,206.278 277.623,206.71 277.79,207.16C278.286,208.366 278.697,209.606 279.02,210.87C280.039,215.045 280.658,219.308 280.87,223.6C281.136,227.884 281.096,232.182 280.75,236.46C280.61,238.1 280.42,239.46 280.26,240.33C280.202,240.806 280.094,241.276 279.94,241.73C279.939,241.251 279.979,240.772 280.06,240.3C280.15,239.39 280.29,238.07 280.38,236.43C280.631,232.167 280.631,227.893 280.38,223.63C280.154,219.38 279.578,215.156 278.66,211C278.372,209.739 278.018,208.494 277.6,207.27C277.412,206.818 277.264,206.349 277.16,205.87Z" style="fill:rgb(38,50,56);fill-rule:nonzero;"/>
            <path d="M297.69,291.44L286.23,286L263.87,284.23L262,282.91L256.65,295.35C256.65,295.35 262.51,298.16 265.58,298.41L284.39,297.84L294.22,298.84L297.69,291.44Z" style="fill:rgb(255,190,157);fill-rule:nonzero;"/>
            <path d="M283.33,147.87C283.989,148.008 284.671,148.008 285.33,147.87C286.959,147.607 288.515,147.007 289.9,146.11C291.284,145.218 292.466,144.047 293.37,142.67C293.778,142.125 294.071,141.502 294.23,140.84C293.806,141.351 293.415,141.889 293.06,142.45C291.119,144.971 288.361,146.739 285.26,147.45C284.608,147.548 283.964,147.689 283.33,147.87Z" style="fill:rgb(69,90,100);fill-rule:nonzero;"/>
            <path d="M280.4,134.58C280.4,134.58 280.8,135.19 281.71,135.89C284.154,137.711 287.223,138.492 290.24,138.06C290.865,138.023 291.473,137.845 292.02,137.54C292.02,137.36 289.21,138.16 285.9,137.29C283.928,136.7 282.069,135.784 280.4,134.58Z" style="fill:rgb(69,90,100);fill-rule:nonzero;"/>
            <path d="M301.88,200.38L302.06,200.38C302.18,200.38 302.35,200.31 302.58,200.23C303.233,199.995 303.844,199.658 304.39,199.23C305.269,198.555 305.975,197.681 306.45,196.68C307.078,195.335 307.254,193.823 306.95,192.37C306.781,191.528 306.459,190.725 306,190C305.487,189.227 304.864,188.533 304.15,187.94C303.413,187.35 302.769,186.652 302.24,185.87C301.752,185.034 301.718,184.006 302.15,183.14C302.678,182.221 303.308,181.366 304.03,180.59C304.408,180.153 304.743,179.681 305.03,179.18C305.31,178.648 305.503,178.074 305.6,177.48C305.943,174.944 304.628,172.455 302.34,171.31C301.181,170.927 299.989,170.653 298.78,170.49C298.242,170.378 297.732,170.161 297.28,169.85C296.857,169.533 296.549,169.087 296.4,168.58C296.179,167.53 296.301,166.435 296.75,165.46C297.16,164.46 297.75,163.52 298.1,162.51C298.532,161.506 298.607,160.383 298.31,159.33C297.97,158.365 297.341,157.527 296.51,156.93C295.039,155.96 293.396,155.281 291.67,154.93C290.289,154.608 288.987,154.013 287.84,153.18C287.026,152.5 286.463,151.567 286.24,150.53C286.072,149.861 286.139,149.155 286.43,148.53C286.63,148.11 286.82,147.94 286.79,147.92C286.597,148.071 286.44,148.262 286.33,148.48C286.002,149.092 285.896,149.799 286.03,150.48C286.221,151.59 286.79,152.601 287.64,153.34C288.804,154.223 290.134,154.862 291.55,155.22C293.221,155.589 294.808,156.267 296.23,157.22C296.981,157.767 297.546,158.532 297.85,159.41C298.11,160.357 298.032,161.365 297.63,162.26C297.26,163.26 296.71,164.14 296.27,165.19C295.767,166.274 295.634,167.493 295.89,168.66C296.063,169.279 296.436,169.824 296.95,170.21C297.464,170.57 298.046,170.821 298.66,170.95C299.831,171.112 300.985,171.376 302.11,171.74C304.196,172.769 305.405,175.023 305.11,177.33C305.022,177.863 304.854,178.378 304.61,178.86C304.339,179.329 304.028,179.774 303.68,180.19C302.933,180.998 302.288,181.895 301.76,182.86C301.262,183.872 301.308,185.069 301.88,186.04C302.436,186.858 303.11,187.589 303.88,188.21C304.569,188.765 305.172,189.419 305.67,190.15C306.103,190.838 306.414,191.596 306.59,192.39C306.899,193.765 306.755,195.203 306.18,196.49C305.743,197.461 305.089,198.32 304.27,199C303.548,199.579 302.742,200.044 301.88,200.38Z" style="fill:rgb(69,90,100);fill-rule:nonzero;"/>
            <path d="M242.38,135.64L242.46,131.53L267.34,127.83C274.99,127.33 282.91,135.3 283.08,142.96C283.27,151.47 283.17,161.87 281.91,168.16C279.37,180.81 269.54,182 269.54,182L269,194.68L240.82,193.89L242.38,135.64Z" style="fill:rgb(255,190,157);fill-rule:nonzero;"/>
            <path d="M279.87,152.31C279.838,153.187 279.107,153.891 278.23,153.89C278.21,153.891 278.19,153.891 278.17,153.891C277.319,153.891 276.616,153.2 276.6,152.35C276.632,151.471 277.361,150.765 278.24,150.76C278.257,150.759 278.274,150.759 278.29,150.759C279.146,150.759 279.854,151.454 279.87,152.31Z" style="fill:rgb(38,50,56);fill-rule:nonzero;"/>
            <path d="M280.17,148.26C279.96,148.46 278.76,147.5 277,147.43C275.24,147.36 273.92,148.19 273.74,147.97C273.56,147.75 273.87,147.49 274.45,147.11C275.229,146.609 276.145,146.364 277.07,146.41C277.985,146.441 278.866,146.767 279.58,147.34C280.11,147.77 280.28,148.17 280.17,148.26Z" style="fill:rgb(38,50,56);fill-rule:nonzero;"/>
            <path d="M263.61,151.66C263.583,152.541 262.851,153.25 261.97,153.25C261.953,153.251 261.936,153.251 261.92,153.251C261.064,153.251 260.356,152.556 260.34,151.7C260.372,150.823 261.103,150.119 261.98,150.12C262,150.119 262.02,150.119 262.04,150.119C262.891,150.119 263.594,150.81 263.61,151.66Z" style="fill:rgb(38,50,56);fill-rule:nonzero;"/>
            <path d="M262.88,147.89C262.67,148.09 261.47,147.12 259.71,147.06C257.95,147 256.63,147.82 256.45,147.59C256.27,147.36 256.58,147.12 257.16,146.73C257.942,146.238 258.857,145.997 259.78,146.04C260.693,146.072 261.572,146.395 262.29,146.96C262.82,147.4 263,147.79 262.88,147.89Z" style="fill:rgb(38,50,56);fill-rule:nonzero;"/>
            <path d="M268.73,161.18C269.669,160.925 270.637,160.791 271.61,160.78C272.06,160.78 272.49,160.68 272.61,160.38C272.667,159.916 272.583,159.446 272.37,159.03C271.99,157.93 271.6,156.77 271.18,155.56C269.53,150.62 268.36,146.56 268.56,146.5C268.76,146.44 270.26,150.39 271.9,155.33C272.3,156.55 272.68,157.71 273.03,158.82C273.29,159.372 273.351,159.998 273.2,160.59C273.05,160.904 272.767,161.135 272.43,161.22C272.181,161.275 271.925,161.298 271.67,161.29C270.689,161.382 269.701,161.345 268.73,161.18Z" style="fill:rgb(38,50,56);fill-rule:nonzero;"/>
            <path d="M269.54,182.07C263.396,181.916 257.41,180.086 252.23,176.78C247.05,173.474 256.17,185.88 269.4,185.24L269.54,182.07Z" style="fill:rgb(235,153,110);fill-rule:nonzero;"/>
            <path d="M267.82,165.38C267.171,164.499 266.112,164.011 265.02,164.09C264.247,164.144 263.527,164.504 263.02,165.09C262.518,165.671 262.43,166.507 262.8,167.18C263.35,167.848 264.254,168.118 265.08,167.86C265.92,167.596 266.702,167.172 267.38,166.61C267.584,166.475 267.764,166.306 267.91,166.11C268.039,165.909 268.039,165.651 267.91,165.45" style="fill:rgb(235,153,110);fill-rule:nonzero;"/>
            <path d="M263.51,162.18C263.8,162.18 263.72,164.09 265.3,165.51C266.88,166.93 268.92,166.8 268.92,167.07C268.92,167.34 268.45,167.42 267.59,167.41C266.481,167.372 265.419,166.947 264.59,166.21C263.782,165.502 263.286,164.502 263.21,163.43C263.15,162.63 263.38,162.17 263.51,162.18Z" style="fill:rgb(38,50,56);fill-rule:nonzero;"/>
            <path d="M263.62,141C263.42,141.47 261.68,141.17 259.62,141.33C257.56,141.49 255.86,141.99 255.62,141.55C255.5,141.34 255.81,140.91 256.5,140.47C257.415,139.934 258.442,139.619 259.5,139.55C260.562,139.468 261.628,139.639 262.61,140.05C263.33,140.4 263.7,140.79 263.62,141Z" style="fill:rgb(38,50,56);fill-rule:nonzero;"/>
            <path d="M279.73,143.15C279.41,143.53 278.21,143.07 276.73,142.99C275.25,142.91 274.03,143.15 273.73,142.72C273.61,142.51 273.82,142.12 274.38,141.72C275.898,140.861 277.793,141 279.17,142.07C279.72,142.54 279.88,143 279.73,143.15Z" style="fill:rgb(38,50,56);fill-rule:nonzero;"/>
            <path d="M286.36,127.53C284.31,131.98 279.71,138.61 274.83,139.09C269.847,139.524 264.981,137.336 262,133.32C261.18,136.93 257.11,138.77 253.44,139.32C250.847,139.783 248.177,139.542 245.71,138.62C243.225,137.645 241.417,135.446 240.94,132.82C240.6,130.22 244.43,123.95 247.02,123.53" style="fill:rgb(38,50,56);fill-rule:nonzero;"/>
            <path d="M246.62,192.62C246.293,196.832 243.343,200.408 239.27,201.53C239.274,201.625 239.276,201.721 239.276,201.816C239.276,205.717 236.066,208.926 232.166,208.926C229.2,208.926 226.532,207.07 225.5,204.29C225.289,203.441 224.952,202.629 224.5,201.88C223.25,200.3 220.82,200.62 218.91,200C215.46,198.88 213.96,194.65 214.35,191.05C214.478,190.344 214.512,189.625 214.45,188.91C214.24,187.47 213.11,186.36 212.27,185.17C208.8,180.25 210.27,173.11 214.09,168.48C215.37,166.94 216.99,165.33 216.87,163.33C216.676,162.222 216.308,161.152 215.78,160.16C214.49,156.669 215.469,152.724 218.24,150.24C219.078,149.803 219.498,148.829 219.24,147.92C218.796,142.389 222.754,137.393 228.24,136.56C228.564,136.551 228.883,136.48 229.18,136.35C230,135.93 230.02,134.8 230.13,133.88C230.41,131.46 232.29,126.94 234.13,125.35C239.27,120.96 244.25,124.53 246.03,126.21C246.03,126.21 249.55,143.65 248.87,146.9C248.19,150.15 245.8,158.25 246.75,161.9C247.7,165.55 249.24,173.12 247.75,176.43C246.26,179.74 246.62,192.62 246.62,192.62Z" style="fill:rgb(38,50,56);fill-rule:nonzero;"/>
            <path d="M227.39,136.5C227.39,136.5 227.61,136.72 228.06,137.05C228.7,137.499 229.368,137.906 230.06,138.27C234.761,140.704 240.117,141.584 245.35,140.78C246.134,140.663 246.909,140.493 247.67,140.27C248.21,140.11 248.5,140 248.49,139.96C248.48,139.92 247.26,140.17 245.29,140.4C242.726,140.674 240.137,140.606 237.59,140.2C235.044,139.778 232.568,139.011 230.23,137.92C228.48,137.09 227.44,136.42 227.39,136.5Z" style="fill:rgb(69,90,100);fill-rule:nonzero;"/>
            <path d="M225.71,137.73C225.789,138.078 225.913,138.414 226.08,138.73C226.237,139.13 226.424,139.518 226.64,139.89C226.893,140.403 227.177,140.901 227.49,141.38C228.293,142.641 229.217,143.82 230.25,144.9C231.521,146.216 232.929,147.392 234.45,148.41C235.988,149.401 237.623,150.232 239.33,150.89C240.73,151.408 242.177,151.79 243.65,152.03C244.212,152.129 244.78,152.196 245.35,152.23C245.779,152.262 246.211,152.262 246.64,152.23C247.008,152.255 247.377,152.234 247.74,152.17C247.74,152.06 246.17,152.08 243.74,151.6C242.307,151.311 240.902,150.899 239.54,150.37C237.878,149.7 236.285,148.873 234.78,147.9C233.294,146.902 231.908,145.764 230.64,144.5C229.611,143.459 228.678,142.327 227.85,141.12C226.41,139.14 225.81,137.68 225.71,137.73Z" style="fill:rgb(69,90,100);fill-rule:nonzero;"/>
            <path d="M234.83,202.54C234.83,202.54 234.61,202.54 234.22,202.47C233.649,202.347 233.133,202.041 232.75,201.6C232.135,200.913 231.797,200.022 231.8,199.1C231.837,197.867 232.059,196.647 232.46,195.48C233.008,194.012 233.102,192.412 232.73,190.89C232.2,189.24 230.86,187.96 229.73,186.6C229.104,185.938 228.59,185.178 228.21,184.35C227.851,183.504 227.88,182.542 228.29,181.72C228.772,180.865 229.459,180.143 230.29,179.62C231.11,179.02 232.01,178.5 232.88,177.85C233.807,177.245 234.535,176.378 234.97,175.36C235.313,174.311 235.193,173.165 234.64,172.21C233.64,170.4 232.12,169.08 231.75,167.34C231.493,165.67 231.967,163.967 233.05,162.67C233.948,161.469 234.974,160.369 236.11,159.39C237.05,158.548 237.913,157.624 238.69,156.63C239.264,155.865 239.707,155.01 240,154.1C240.168,153.516 240.236,152.907 240.2,152.3C240.184,152.09 240.147,151.882 240.09,151.68C240.126,152.475 240.025,153.27 239.79,154.03C238.914,156.035 237.536,157.781 235.79,159.1C234.613,160.078 233.55,161.185 232.62,162.4C232.097,163.094 231.683,163.862 231.39,164.68C231.071,165.568 231.005,166.527 231.2,167.45C231.62,169.45 233.2,170.77 234.11,172.45C234.59,173.273 234.696,174.264 234.4,175.17C233.994,176.08 233.334,176.854 232.5,177.4C231.66,178.02 230.76,178.55 229.91,179.17C229.019,179.749 228.284,180.539 227.77,181.47C227.302,182.429 227.27,183.545 227.68,184.53C228.09,185.413 228.64,186.223 229.31,186.93C230.53,188.3 231.81,189.53 232.31,191.02C232.665,192.459 232.592,193.971 232.1,195.37C231.706,196.574 231.504,197.833 231.5,199.1C231.531,200.087 231.927,201.027 232.61,201.74C233.034,202.189 233.598,202.482 234.21,202.57C234.416,202.609 234.629,202.598 234.83,202.54Z" style="fill:rgb(69,90,100);fill-rule:nonzero;"/>
            <path d="M362.17,247.29L297.69,247.81C295.6,247.81 293.6,248.81 293.29,250.89L286.24,297.89L253,297.89C252.954,297.887 252.907,297.885 252.861,297.885C251.797,297.885 250.921,298.761 250.921,299.825C250.921,300.889 251.797,301.765 252.861,301.765C252.907,301.765 252.954,301.763 253,301.76L359.1,301.76L366.35,252.16C366.384,251.945 366.4,251.728 366.4,251.51C366.4,249.195 364.495,247.29 362.18,247.29C362.177,247.29 362.173,247.29 362.17,247.29Z" style="fill:rgb(224,224,224);fill-rule:nonzero;"/>
            <path d="M362.17,247.29C362.506,247.268 362.843,247.298 363.17,247.38C364.93,247.791 366.244,249.282 366.43,251.08C366.453,251.969 366.376,252.858 366.2,253.73L365.27,260.27C363.85,270.13 361.8,284.32 359.27,301.78L359.27,301.95L359.1,301.95L256.19,302L253.42,302C252.916,302.052 252.409,301.955 251.96,301.72C251.497,301.468 251.141,301.055 250.96,300.56C250.589,299.547 251.016,298.403 251.96,297.88C252.409,297.658 252.911,297.565 253.41,297.61L286.23,297.61L285.98,297.82C288.52,280.99 290.88,265.29 292.98,251.21C293.041,250.267 293.468,249.383 294.17,248.75C294.873,248.16 295.73,247.782 296.64,247.66C297.504,247.581 298.372,247.551 299.24,247.57L301.77,247.57L311.47,247.5L328.73,247.39L353.29,247.27L362.13,247.27L359.86,247.27L353.29,247.37L328.73,247.64L311.48,247.81L301.77,247.9L299.24,247.9C298.392,247.88 297.544,247.91 296.7,247.99C295.871,248.103 295.09,248.45 294.45,248.99C293.825,249.557 293.448,250.348 293.4,251.19L286.45,297.82L286.45,298.03L253.45,298.03C253.038,297.986 252.622,298.059 252.25,298.24C251.55,298.634 251.228,299.48 251.49,300.24C251.623,300.618 251.89,300.935 252.24,301.13C252.613,301.32 253.035,301.393 253.45,301.34L256.22,301.34L359.13,301.4L358.94,301.57C361.52,284.13 363.63,269.94 365.09,260.09C365.46,257.63 365.78,255.45 366.09,253.55C366.273,252.692 366.36,251.817 366.35,250.94C366.286,250.218 366.027,249.526 365.6,248.94C365.026,248.127 364.183,247.542 363.22,247.29C362.871,247.26 362.519,247.26 362.17,247.29Z" style="fill:rgb(38,50,56);fill-rule:nonzero;"/>
            <circle cx="327.19" cy="273.92" r="4.04" style="fill:white;"/>
            <path d="M288.85,301.32C288.94,301.32 291,289.37 293.44,274.59C295.88,259.81 297.78,247.83 297.69,247.81C297.6,247.79 295.55,259.76 293.11,274.54C290.67,289.32 288.76,301.3 288.85,301.32Z" style="fill:rgb(38,50,56);fill-rule:nonzero;"/>
        </g>
        <g id="freepik--Picture--inject-7" transform="matrix(0.713758,0,0,0.713758,-12.8895,-6.4903)">
            <path d="M463.73,214.91L463.73,208.17C463.73,203.77 463.73,197.33 463.68,189.17C463.68,172.77 463.61,149.33 463.56,121.17L463.78,121.39L358.69,121.39L358.95,121.13L358.95,215L358.72,214.77L434.72,214.89L456.16,214.95L463.3,214.95L456.23,214.95L434.8,215L358.63,215.12L358.4,215.12L358.4,120.76L464,120.76L464,121C464,149.27 463.92,172.76 463.89,189.19C463.89,197.37 463.89,203.8 463.83,208.19L463.83,213.19C463.83,214.34 463.73,214.91 463.73,214.91Z" style="fill:rgb(38,50,56);fill-rule:nonzero;"/>
            <rect x="365.49" y="126.38" width="89.68" height="83.19" style="fill:rgb(237,50,55);"/>
            <g opacity="0.3">
                <path d="M419.73,145.13C416.435,145.269 413.8,148.017 413.8,151.315C413.8,154.71 416.594,157.505 419.99,157.505C423.384,157.505 426.177,154.714 426.18,151.32C426.11,147.902 423.28,145.129 419.861,145.129C419.818,145.129 419.774,145.129 419.73,145.13Z" style="fill-rule:nonzero;"/>
                <path d="M448.21,132.92L372.45,132.86C372.53,132.77 371.63,133.64 372.01,133.28L372.01,203L372.38,203L427.38,202.82L442.75,202.73L447.75,202.73C447.859,202.747 447.971,202.747 448.08,202.73L442.55,202.73L427.1,202.64L410.17,202.58L448.07,202.58L448.07,202.81C448.087,202.711 448.087,202.609 448.07,202.51L448.07,201.58C448.07,200.71 448.07,199.49 448.12,197.9C448.12,194.62 448.17,189.9 448.21,183.85C448.26,171.65 448.32,154.27 448.4,133.4L448.4,133.05L448.21,132.92ZM429.87,172.47L417.54,187L397.25,159.63L372.81,201.8L372.81,133.68L447.81,133.62C447.88,154.24 447.95,171.42 447.99,183.5C447.99,189.56 448.07,194.33 448.09,197.63L448.09,202.46L429.87,172.47Z" style="fill-rule:nonzero;"/>
            </g>
            <rect x="355.88" y="117.58" width="5.51" height="5.51" style="fill:rgb(38,50,56);"/>
            <rect x="460.09" y="117.58" width="5.51" height="5.51" style="fill:rgb(38,50,56);"/>
            <rect x="460.09" y="211.25" width="5.51" height="5.51" style="fill:rgb(38,50,56);"/>
            <rect x="356.65" y="211.25" width="5.51" height="5.51" style="fill:rgb(38,50,56);"/>
            <rect x="356.65" y="164.96" width="5.51" height="5.51" style="fill:rgb(38,50,56);"/>
            <rect x="407.75" y="212.16" width="5.51" height="5.51" style="fill:rgb(38,50,56);"/>
            <rect x="460.98" y="162.21" width="5.51" height="5.51" style="fill:rgb(38,50,56);"/>
            <rect x="407.77" y="118.08" width="5.51" height="5.51" style="fill:rgb(38,50,56);"/>
        </g>
    </g>
</svg>
