<?xml version="1.0" encoding="UTF-8" standalone="no"?>
<!DOCTYPE svg PUBLIC "-//W3C//DTD SVG 1.1//EN" "http://www.w3.org/Graphics/SVG/1.1/DTD/svg11.dtd">
<svg width="100%" height="100%" viewBox="0 0 500 356" version="1.1" xmlns="http://www.w3.org/2000/svg" xmlns:xlink="http://www.w3.org/1999/xlink" xml:space="preserve" xmlns:serif="http://www.serif.com/" style="fill-rule:evenodd;clip-rule:evenodd;stroke-linejoin:round;stroke-miterlimit:2;">
    <g transform="matrix(1.01148,0,0,1.01994,-0.763284,0.927632)">
        <g transform="matrix(-0.531155,-0.476561,0.480549,-0.526747,329.54,516.203)">
            <path d="M638.05,187.37C631.81,146.17 610.26,106.62 576.16,82.67C542.06,58.72 495.23,52.19 457.53,69.93C396.7,98.57 371.41,179.4 308.06,201.93C266.46,216.71 218.38,202.02 177.38,218.39C144.82,231.39 121.38,264.59 119.99,299.62C119.87,305.358 120.329,311.094 121.36,316.74C132.36,382.2 189.51,429.9 255.9,430.36L415.9,431.46C457.63,441.87 503.11,431.58 539.11,408.05C575.11,384.52 602.11,348.68 619.34,309.3C636.12,271.14 644.29,228.57 638.05,187.37Z" style="fill:rgb(245,245,245);fill-rule:nonzero;"/>
        </g>
        <g id="freepik--Forklift--inject-6" transform="matrix(0.789773,0,0,0.789773,-58.1587,-27.3545)">
            <rect x="140.13" y="232.5" width="104.18" height="80.36" style="fill:rgb(237,50,55);"/>
            <rect x="140.13" y="232.5" width="104.18" height="80.36" style="fill-opacity:0.3;"/>
            <path d="M218.21,312.29C218.12,312.29 218.04,294.38 218.04,272.29C218.04,250.2 218.12,232.29 218.21,232.29C218.3,232.29 218.38,250.2 218.38,272.29C218.38,294.38 218.3,312.29 218.21,312.29Z" style="fill:rgb(38,50,56);fill-rule:nonzero;"/>
            <rect x="227.49" y="294.57" width="7.99" height="9.03" style="fill:rgb(245,245,245);"/>
            <rect x="171.91" y="232.71" width="11.83" height="17.15" style="fill:rgb(38,50,56);"/>
            <rect x="171.91" y="295.47" width="11.83" height="17.15" style="fill:rgb(38,50,56);"/>
            <path d="M243.41,232.5L239.36,232.5L228.29,232.55L155.26,232.55L144.2,232.49L140.15,232.49L144.2,232.49L155.26,232.44L228.29,232.44L239.36,232.49L243.14,232.49L243.41,232.5Z" style="fill:rgb(38,50,56);fill-rule:nonzero;"/>
            <rect x="226.86" y="232.4" width="104.18" height="80.36" style="fill:rgb(237,50,55);"/>
            <path d="M304.94,312.19C304.85,312.19 304.77,294.28 304.77,272.19C304.77,250.1 304.85,232.19 304.94,232.19C305.03,232.19 305.11,250.09 305.11,272.19C305.11,294.29 305,312.19 304.94,312.19Z" style="fill:rgb(38,50,56);fill-rule:nonzero;"/>
            <rect x="314.22" y="294.47" width="7.99" height="9.03" style="fill:rgb(245,245,245);"/>
            <rect x="258.64" y="232.61" width="11.83" height="17.15" style="fill:white;fill-opacity:0.5;"/>
            <rect x="258.64" y="295.37" width="11.83" height="17.15" style="fill:white;fill-opacity:0.5;"/>
            <path d="M330.13,232.4L326.08,232.4L315.02,232.45L241.99,232.45L230.92,232.4L226.87,232.4L230.92,232.4L241.99,232.34L278.51,232.29L315.02,232.34L326.08,232.4L330.13,232.4Z" style="fill:rgb(38,50,56);fill-rule:nonzero;"/>
            <rect x="232.71" y="152.04" width="104.18" height="80.36" style="fill:rgb(237,50,55);"/>
            <path d="M310.79,231.83C310.69,231.83 310.62,213.92 310.62,191.83C310.62,169.74 310.69,151.83 310.79,151.83C310.89,151.83 310.96,169.73 310.96,191.83C310.96,213.93 310.88,231.83 310.79,231.83Z" style="fill:rgb(38,50,56);fill-rule:nonzero;"/>
            <rect x="320.07" y="214.11" width="7.99" height="9.03" style="fill:rgb(245,245,245);"/>
            <rect x="264.49" y="152.25" width="11.83" height="17.15" style="fill:rgb(38,50,56);"/>
            <rect x="264.49" y="215.01" width="11.83" height="17.15" style="fill:rgb(38,50,56);"/>
            <path d="M336,152C335.914,152.015 335.826,152.015 335.74,152L320.89,152L284.38,152.05L247.86,152L233,152C232.914,152.015 232.826,152.015 232.74,152L236.79,152L247.86,151.94L320.89,151.94L331.95,152L336,152Z" style="fill:rgb(38,50,56);fill-rule:nonzero;"/>
            <path d="M325.75,402.33L325.75,392.92L133.26,392.92C131.848,392.92 130.685,394.078 130.68,395.49L130.68,399.76C130.685,401.172 131.848,402.33 133.26,402.33L138.62,402.33L138.62,406.61C138.62,408.003 137.473,409.15 136.08,409.15L133.22,409.15C131.83,409.15 130.685,410.29 130.68,411.68L130.68,416C130.685,417.39 131.83,418.53 133.22,418.53L325.75,418.53L325.75,409.12L280.88,409.12L280.88,402.3L325.75,402.33ZM184.75,402.33L196.28,402.33L196.28,409.15L184.76,409.15L184.75,402.33ZM177.06,409.15L165.53,409.15L165.53,402.33L177.07,402.33L177.06,409.15ZM204,402.33L215.54,402.33L215.54,409.15L204,409.15L204,402.33ZM223.23,402.33L234.76,402.33L234.76,409.15L223.21,409.15L223.23,402.33ZM242.45,402.33L254,402.33L254,409.15L242.43,409.15L242.45,402.33ZM146.33,402.33L157.86,402.33L157.86,409.15L146.31,409.15L146.33,402.33ZM273.21,409.15L261.65,409.15L261.65,402.33L273.19,402.33L273.21,409.15Z" style="fill:rgb(69,90,100);fill-rule:nonzero;"/>
            <path d="M480.91,240.21C481.53,239.577 481.877,238.725 481.877,237.839C481.877,236.905 481.491,236.01 480.81,235.37L448.34,204.68C447.001,203.423 444.889,203.423 443.55,204.68C442.838,205.342 442.433,206.271 442.433,207.244C442.433,208.153 442.787,209.027 443.42,209.68L456.37,223.3L449.63,229.79L446.12,227L421.63,255.05L408.54,242.46L392.76,288.87L395.89,351.87L432.19,351.87L429.65,277L454,242.32L454.19,234.07L461.19,226.9L476.28,240.38C477.631,241.584 479.719,241.508 480.98,240.21L480.91,240.21Z" style="fill:rgb(38,50,56);fill-rule:nonzero;"/>
            <path d="M383,363.54C382.86,363.54 382.74,306.06 382.74,235.17C382.74,164.28 382.86,106.78 383,106.78C383.14,106.78 383.26,164.25 383.26,235.17C383.26,306.09 383.11,363.54 383,363.54Z" style="fill:rgb(38,50,56);fill-rule:nonzero;"/>
            <path d="M464.25,347.35L486.33,286L478.03,282.64L478.03,270.79L538.4,269.86C541.33,269.804 543.791,267.562 544.12,264.65L553,185.83C553.41,182.199 556.516,179.422 560.17,179.42C560.172,179.42 560.174,179.42 560.176,179.42C564.132,179.42 567.386,182.675 567.386,186.63C567.386,186.73 567.384,186.83 567.38,186.93L564,268.15L595.52,268.32L596.59,283.13L503.37,286.78L479.06,346.47L464.25,347.35Z" style="fill:rgb(69,90,100);fill-rule:nonzero;"/>
            <path d="M478.14,345.85L399.66,346.47L399.66,351.7L432.17,351.28L483.95,350.88L609.49,333.16L595.26,279L510.26,279C507.28,278.956 504.462,280.387 502.74,282.82L478.14,345.85Z" style="fill:rgb(38,50,56);fill-rule:nonzero;"/>
            <path d="M440.53,119.36L383.53,301.29L383.93,351.9L402,351.9L402,301.61L448.74,119.85L575.38,119.14L599.6,308.47L613.89,308.47L584.42,120.47C583.467,115.417 579.012,111.722 573.87,111.72L450.81,111.72C446.086,111.718 441.89,114.836 440.53,119.36Z" style="fill:rgb(69,90,100);fill-rule:nonzero;"/>
            <path d="M373.24,410.35L373.24,361.75L383.88,351.9L483.88,350.61L501.88,335.97C505.232,333.248 509.359,331.652 513.67,331.41L532.93,330.32C532.93,330.32 541.57,324.37 549.93,318.47C560.516,310.968 573.175,306.935 586.15,306.93L641.58,306.93C645.744,306.93 649.17,310.356 649.17,314.52L649.17,410.35L373.24,410.35Z" style="fill:rgb(237,50,55);fill-rule:nonzero;"/>
            <rect x="372.26" y="394.69" width="276.89" height="15.98" style="fill:rgb(38,50,56);"/>
            <path d="M386.59,410.17C386.588,410.339 386.586,410.508 386.586,410.676C386.586,429.46 402.043,444.916 420.826,444.916C439.61,444.916 455.066,429.46 455.066,410.676C455.066,392.079 439.915,376.708 421.32,376.44C402.543,376.169 386.868,391.393 386.59,410.17Z" style="fill:rgb(38,50,56);fill-rule:nonzero;"/>
            <path d="M386.6,410.09L386.6,410.17C386.6,410.235 386.599,410.301 386.599,410.366C386.599,429.15 402.056,444.606 420.839,444.606C439.32,444.606 454.636,429.645 455.07,411.17C455.504,392.695 455.07,411.11 455.07,411.08L386.6,410.09Z" style="fill:rgb(38,50,56);fill-rule:nonzero;"/>
            <path d="M396.79,410.32C396.789,410.422 396.788,410.525 396.788,410.627C396.788,423.793 407.622,434.627 420.788,434.627C433.954,434.627 444.788,423.793 444.788,410.627C444.788,397.605 434.19,386.837 421.17,386.63C421.043,386.628 420.915,386.627 420.788,386.627C407.738,386.627 396.957,397.271 396.79,410.32Z" style="fill:rgb(250,250,250);fill-rule:nonzero;"/>
            <path d="M421.17,386.63C421.043,386.628 420.915,386.627 420.788,386.627C407.738,386.627 396.957,397.271 396.79,410.32L444.86,411.01C444.862,410.883 444.863,410.755 444.863,410.628C444.863,397.578 434.219,386.797 421.17,386.63Z" style="fill:rgb(224,224,224);fill-rule:nonzero;"/>
            <path d="M406.18,410.46C406.179,410.52 406.179,410.579 406.179,410.639C406.179,418.67 412.788,425.279 420.819,425.279C428.85,425.279 435.459,418.67 435.459,410.639C435.459,402.676 428.962,396.098 421,396C412.971,395.906 406.284,402.431 406.18,410.46Z" style="fill:rgb(38,50,56);fill-rule:nonzero;"/>
            <path d="M554.13,410.17C554.128,410.339 554.126,410.508 554.126,410.676C554.126,429.46 569.583,444.916 588.366,444.916C607.15,444.916 622.606,429.46 622.606,410.676C622.606,392.079 607.455,376.708 588.86,376.44C570.083,376.169 554.408,391.393 554.13,410.17Z" style="fill:rgb(38,50,56);fill-rule:nonzero;"/>
            <path d="M554.14,410.09L554.14,410.17C554.14,410.235 554.139,410.301 554.139,410.366C554.139,429.15 569.596,444.606 588.379,444.606C606.86,444.606 622.176,429.645 622.61,411.17C623.044,392.695 622.61,411.11 622.61,411.08L554.14,410.09Z" style="fill:rgb(38,50,56);fill-rule:nonzero;"/>
            <path d="M564.33,410.32C564.329,410.422 564.328,410.525 564.328,410.627C564.328,423.793 575.162,434.627 588.328,434.627C601.494,434.627 612.328,423.793 612.328,410.627C612.328,397.605 601.73,386.837 588.71,386.63C588.583,386.628 588.455,386.627 588.328,386.627C575.278,386.627 564.497,397.271 564.33,410.32Z" style="fill:rgb(250,250,250);fill-rule:nonzero;"/>
            <path d="M588.71,386.63C588.583,386.628 588.455,386.627 588.328,386.627C575.278,386.627 564.497,397.271 564.33,410.32L612.4,411.01C612.402,410.883 612.403,410.755 612.403,410.628C612.403,397.578 601.759,386.797 588.71,386.63Z" style="fill:rgb(224,224,224);fill-rule:nonzero;"/>
            <path d="M573.73,410.46C573.729,410.519 573.729,410.579 573.729,410.638C573.729,418.67 580.338,425.278 588.369,425.278C596.4,425.278 603.009,418.67 603.009,410.638C603.009,402.687 596.531,396.115 588.58,396C588.51,395.999 588.439,395.998 588.369,395.998C580.405,395.998 573.827,402.497 573.73,410.46Z" style="fill:rgb(38,50,56);fill-rule:nonzero;"/>
            <path d="M632.92,386.3C632.858,386.224 632.801,386.144 632.75,386.06L632.31,385.34L631.61,384.16C631.304,383.62 630.97,383.096 630.61,382.59C628.414,379.286 625.821,376.264 622.89,373.59C622.01,372.7 620.94,371.93 619.89,371.04C618.84,370.15 617.64,369.39 616.44,368.54C615.24,367.69 613.92,366.91 612.5,366.22C611.81,365.86 611.11,365.47 610.39,365.12L608.14,364.12C604.948,362.774 601.623,361.769 598.22,361.12C594.568,360.418 590.847,360.136 587.13,360.28C579.927,360.682 572.903,362.684 566.57,366.14L564.43,367.34C563.74,367.76 563.09,368.22 562.43,368.64C561.08,369.46 559.92,370.46 558.73,371.33C557.54,372.2 556.51,373.19 555.53,374.14C554.55,375.09 553.59,376 552.79,376.97C550.125,379.912 547.832,383.17 545.96,386.67C545.647,387.206 545.366,387.76 545.12,388.33C544.89,388.81 544.69,389.22 544.53,389.57L544.16,390.33C544.121,390.417 544.074,390.501 544.02,390.58C544.037,390.486 544.067,390.395 544.11,390.31L544.43,389.53L544.97,388.27C545.206,387.691 545.477,387.127 545.78,386.58C547.594,383.021 549.86,379.71 552.52,376.73C553.31,375.73 554.3,374.85 555.25,373.85C556.2,372.85 557.34,371.97 558.46,370.99C559.58,370.01 560.82,369.1 562.17,368.26C562.83,367.83 563.49,367.37 564.17,366.94L566.32,365.71C569.395,364.043 572.636,362.702 575.99,361.71C579.601,360.649 583.322,360.004 587.08,359.79C594.362,359.506 601.617,360.856 608.31,363.74L610.57,364.74C611.3,365.09 612,365.49 612.7,365.86C614.13,366.56 615.38,367.46 616.7,368.22C618.02,368.98 619.09,369.9 620.16,370.77C621.23,371.64 622.28,372.46 623.16,373.36C626.088,376.078 628.655,379.16 630.8,382.53C631.162,383.045 631.496,383.579 631.8,384.13L632.45,385.34C632.62,385.65 632.75,385.89 632.85,386.09C632.95,386.29 632.93,386.29 632.92,386.3Z" style="fill:rgb(38,50,56);fill-rule:nonzero;"/>
            <path d="M465.53,392.6C465.472,392.517 465.425,392.426 465.39,392.33C465.31,392.12 465.2,391.85 465.06,391.51L464.52,390.18C464.28,389.66 464.01,389.06 463.71,388.39C461.967,384.611 459.796,381.044 457.24,377.76C453.511,372.837 448.754,368.787 443.3,365.89C440.034,364.295 436.57,363.142 433,362.46C429.175,361.672 425.274,361.317 421.37,361.4C417.466,361.455 413.581,361.955 409.79,362.89C406.263,363.774 402.863,365.101 399.67,366.84C394.216,369.74 389.339,373.614 385.28,378.27C382.581,381.426 380.234,384.866 378.28,388.53C377.58,389.83 377.05,390.85 376.72,391.53C376.56,391.86 376.42,392.12 376.32,392.32C376.282,392.413 376.232,392.501 376.17,392.58C376.188,392.482 376.222,392.387 376.27,392.3L376.63,391.49C376.93,390.77 377.43,389.74 378.1,388.42C379.993,384.694 382.309,381.198 385,378C389.054,373.27 393.95,369.333 399.44,366.39C402.664,364.63 406.098,363.286 409.66,362.39C413.49,361.444 417.415,360.937 421.36,360.88C425.306,360.811 429.248,361.187 433.11,362C436.72,362.698 440.221,363.875 443.52,365.5C449.018,368.448 453.799,372.573 457.52,377.58C460.065,380.903 462.204,384.519 463.89,388.35L464.65,390.16C464.84,390.69 465.01,391.16 465.14,391.51C465.27,391.86 465.36,392.13 465.43,392.35C465.473,392.429 465.507,392.513 465.53,392.6Z" style="fill:rgb(38,50,56);fill-rule:nonzero;"/>
            <rect x="221.39" y="392.92" width="151.78" height="17.75" style="fill:rgb(38,50,56);"/>
            <path d="M369.06,400.45C369.06,402.875 367.065,404.87 364.64,404.87C362.215,404.87 360.22,402.875 360.22,400.45C360.22,398.025 362.215,396.03 364.64,396.03C367.065,396.03 369.06,398.025 369.06,400.45Z" style="fill:rgb(69,90,100);fill-rule:nonzero;"/>
            <rect x="358.51" y="110.32" width="12.67" height="251.68" style="fill:rgb(69,90,100);"/>
            <path d="M551.36,376.34C551.36,376.48 530,376.6 503.66,376.6C477.32,376.6 455.96,376.48 455.96,376.34C455.96,376.2 477.31,376.08 503.66,376.08C530.01,376.08 551.36,376.2 551.36,376.34Z" style="fill:rgb(38,50,56);fill-rule:nonzero;"/>
            <path d="M531.92,372.57C531.77,372.57 531.66,363.28 531.66,351.82C531.66,340.36 531.77,331.08 531.92,331.08C532.07,331.08 532.18,340.36 532.18,351.82C532.18,363.28 532.06,372.57 531.92,372.57Z" style="fill:rgb(38,50,56);fill-rule:nonzero;"/>
            <rect x="357.15" y="104.55" width="25.86" height="11.54" style="fill:rgb(38,50,56);"/>
            <rect x="356.52" y="359.92" width="16.65" height="33.22" style="fill:rgb(38,50,56);"/>
            <rect x="230.33" y="312.79" width="104.18" height="80.36" style="fill:rgb(237,50,55);"/>
            <rect x="230.33" y="312.79" width="104.18" height="80.36" style="fill-opacity:0.3;"/>
            <path d="M308.41,392.58C308.32,392.58 308.24,374.67 308.24,352.58C308.24,330.49 308.32,312.58 308.41,312.58C308.5,312.58 308.58,330.49 308.58,352.58C308.58,374.67 308.5,392.58 308.41,392.58Z" style="fill:rgb(38,50,56);fill-rule:nonzero;"/>
            <rect x="317.69" y="374.86" width="7.99" height="9.03" style="fill:rgb(245,245,245);"/>
            <rect x="262.11" y="313" width="11.83" height="17.15" style="fill:rgb(38,50,56);"/>
            <rect x="262.11" y="375.76" width="11.83" height="17.15" style="fill:rgb(38,50,56);"/>
            <path d="M333.6,312.79L329.55,312.79L318.48,312.84L282,313L245.48,313L234.42,312.95L230.37,312.95C230.456,312.942 230.544,312.942 230.63,312.95L234.42,312.95L245.48,312.9L282,312.85L318.51,312.9L329.58,312.95L333.37,312.95C333.441,312.889 333.518,312.835 333.6,312.79Z" style="fill:rgb(38,50,56);fill-rule:nonzero;"/>
            <rect x="121.05" y="312.79" width="104.18" height="80.36" style="fill:rgb(237,50,55);"/>
            <path d="M199.14,392.58C199.04,392.58 198.97,374.67 198.97,352.58C198.97,330.49 199.04,312.58 199.14,312.58C199.24,312.58 199.3,330.49 199.3,352.58C199.3,374.67 199.23,392.58 199.14,392.58Z" style="fill:rgb(38,50,56);fill-rule:nonzero;"/>
            <rect x="208.42" y="374.86" width="7.99" height="9.03" style="fill:rgb(245,245,245);"/>
            <rect x="152.84" y="313" width="11.83" height="17.15" style="fill:white;fill-opacity:0.5;"/>
            <rect x="152.84" y="375.76" width="11.83" height="17.15" style="fill:white;fill-opacity:0.5;"/>
            <path d="M224.33,312.79L220.28,312.79L209.22,312.84L136.19,312.84L125.12,312.79L121.07,312.79C121.16,312.782 121.25,312.782 121.34,312.79L125.12,312.79L136.19,312.74L172.71,312.69L209.22,312.74L220.28,312.79L224.06,312.79C224.15,312.781 224.24,312.781 224.33,312.79Z" style="fill:rgb(38,50,56);fill-rule:nonzero;"/>
            <path d="M653.52,334.63C658.89,335.93 663.4,341.38 663.31,346.91C663.076,352.586 659.053,357.444 653.52,358.73" style="fill:rgb(237,50,55);fill-rule:nonzero;"/>
            <g opacity="0.6">
                <path d="M653.52,334.63C658.89,335.93 663.4,341.38 663.31,346.91C663.076,352.586 659.053,357.444 653.52,358.73" style="fill:white;fill-rule:nonzero;"/>
            </g>
            <rect x="649.15" y="331.53" width="4.59" height="30.41" style="fill:rgb(237,50,55);"/>
            <rect x="649.15" y="331.53" width="4.59" height="30.41" style="fill-opacity:0.3;"/>
        </g>
        <g id="freepik--Character--inject-6" transform="matrix(0.789773,0,0,0.789773,-58.1587,-27.3545)">
            <path d="M435.35,209.67C434.214,208.789 433.893,207.192 434.6,205.94C435.37,204.6 436.27,203.02 436.68,202.36C437.181,201.579 437.638,200.771 438.05,199.94C438.308,198.928 439.126,198.149 440.15,197.94C441.371,197.783 442.61,197.82 443.82,198.05L456.33,200.75L462.16,203.63L456.49,208.63L453.34,207.63C452.39,208.45 448.68,208.88 447.42,208.73C445.81,208.53 442.59,207.48 440.76,207.83L438.99,208.08L439.83,208.78C441.369,208.669 442.908,208.984 444.28,209.69C444.63,209.926 444.84,210.321 444.84,210.743C444.84,211.406 444.321,211.963 443.66,212.01L439.55,212.28C438.437,211.758 437.368,211.149 436.35,210.46C436.031,210.179 435.698,209.915 435.35,209.67Z" style="fill:rgb(255,190,157);fill-rule:nonzero;"/>
            <path d="M439,208.12C438.798,208.258 438.57,208.353 438.33,208.4C437.677,208.591 436.983,208.591 436.33,208.4C435.861,208.246 435.447,207.957 435.14,207.57C434.786,207.095 434.648,206.492 434.76,205.91C434.835,205.58 435.018,205.284 435.28,205.07C435.541,204.88 435.831,204.734 436.14,204.64C436.738,204.441 437.35,204.284 437.97,204.17C439.149,203.943 440.342,203.789 441.54,203.71C442.09,203.71 442.61,203.65 443.11,203.65L443.79,203.65C443.999,203.621 444.206,203.581 444.41,203.53C445.261,203.256 446.126,203.026 447,202.84C446.223,203.3 445.38,203.637 444.5,203.84C444.288,203.911 444.071,203.964 443.85,204C443.717,204.016 443.583,204.016 443.45,204L443.11,204C442.64,204 442.11,204.06 441.58,204.11C440.402,204.214 439.231,204.378 438.07,204.6C437.475,204.71 436.887,204.857 436.31,205.04C435.73,205.21 435.31,205.47 435.23,205.94C435.141,206.39 435.234,206.859 435.49,207.24C435.749,207.574 436.095,207.83 436.49,207.98C437.087,208.189 437.725,208.247 438.35,208.15C438.73,208.14 439,208.07 439,208.12Z" style="fill:rgb(235,153,110);fill-rule:nonzero;"/>
            <path d="M440.55,201.6C440.69,201.6 440.93,202.22 440.68,203.01C440.43,203.8 439.87,204.22 439.78,204.11C439.69,204 439.99,203.52 440.19,202.86C440.39,202.2 440.4,201.62 440.55,201.6Z" style="fill:rgb(235,153,110);fill-rule:nonzero;"/>
            <path d="M442.51,202.39C442.65,202.39 442.69,202.89 442.34,203.39C441.99,203.89 441.52,203.93 441.47,203.79C441.42,203.65 441.68,203.41 441.93,203.07C442.18,202.73 442.36,202.37 442.51,202.39Z" style="fill:rgb(235,153,110);fill-rule:nonzero;"/>
            <path d="M491.76,199.6C493.48,198.88 481.88,210.81 481.88,210.81L460.44,202.81L452.87,207.46L475.92,223.69C480.793,227.127 487.514,226.486 491.65,222.19L505.26,206.46L491.76,199.6Z" style="fill:rgb(255,190,157);fill-rule:nonzero;"/>
            <path d="M504.33,151.8C501.33,151.22 499.47,150.3 499.39,149.15C499.23,146.77 506.78,144.33 516.26,143.68C525.74,143.03 533.54,144.45 533.71,146.82C533.78,147.97 532.07,149.13 529.21,150.1" style="fill:rgb(237,50,55);fill-rule:nonzero;"/>
            <g opacity="0.4">
                <path d="M506,151.6C503.35,151.1 501.62,150.28 501.62,149.26C501.62,146.41 508.17,144.98 516.57,144.41C524.97,143.84 531.9,145.09 532.04,147.2C532.11,148.2 530.59,149.2 528.04,150.1" style="fill-rule:nonzero;"/>
            </g>
            <path d="M501.67,147.87C501.67,147.87 503.44,137.62 503.62,137.11C503.8,136.6 506.37,132 513.16,130.27L518.84,129.88C518.84,129.88 527.08,131.93 528.68,133.8C530.28,135.67 531.56,145.15 531.56,145.15L515.4,142.77L504.75,146.14L501.67,147.87Z" style="fill:rgb(237,50,55);fill-rule:nonzero;"/>
            <path d="M514.94,129L512.5,129.16C511.931,129.914 511.648,130.847 511.7,131.79C511.7,133.56 512.13,145.7 512.13,145.7L519.23,144.9L518,129.94L520.45,130.32L520.32,129.47L519.63,128.76L514.94,129Z" style="fill:rgb(237,50,55);fill-rule:nonzero;"/>
            <path d="M529.78,184.87L512.38,185.25C512.16,183.42 512.32,171.97 512.32,171.97C512.32,171.97 505.7,171.39 505.17,164.84C504.64,158.29 504.76,145.13 504.76,145.13L504.83,144.55C512.2,140.78 520.97,139.89 527.83,144.49L528.83,145.17L529.78,184.87Z" style="fill:rgb(255,190,157);fill-rule:nonzero;"/>
            <path d="M512.32,172C515.35,171.785 518.255,170.705 520.69,168.89C523.125,167.075 518.88,173.89 512.3,173.7L512.32,172Z" style="fill:rgb(235,153,110);fill-rule:nonzero;"/>
            <path d="M528.53,152C528.64,152 532.94,150.37 533.1,154.86C533.26,159.35 528.72,158.58 528.71,158.46C528.7,158.34 528.53,152 528.53,152Z" style="fill:rgb(255,190,157);fill-rule:nonzero;"/>
            <path d="M530,156.71C530,156.71 530.08,156.77 530.21,156.82C530.398,156.901 530.612,156.901 530.8,156.82C531.376,156.425 531.695,155.746 531.63,155.05C531.629,154.665 531.54,154.285 531.37,153.94C531.274,153.659 531.046,153.442 530.76,153.36C530.575,153.32 530.386,153.417 530.31,153.59C530.25,153.72 530.31,153.81 530.26,153.82C530.21,153.83 530.16,153.75 530.19,153.56C530.215,153.448 530.274,153.347 530.36,153.27C530.481,153.173 530.635,153.126 530.79,153.14C531.168,153.2 531.487,153.455 531.63,153.81C531.843,154.173 531.97,154.58 532,155C532.09,155.824 531.659,156.623 530.92,157C530.679,157.084 530.413,157.05 530.2,156.91C530,156.82 530,156.72 530,156.71Z" style="fill:rgb(235,153,110);fill-rule:nonzero;"/>
            <path d="M506.93,153.22C506.986,153.726 507.421,154.113 507.93,154.11C508.429,154.11 508.84,153.699 508.84,153.2C508.784,152.694 508.349,152.307 507.84,152.31C507.341,152.31 506.93,152.721 506.93,153.22Z" style="fill:rgb(38,50,56);fill-rule:nonzero;"/>
            <path d="M506.63,152.3C506.75,152.41 507.43,151.84 508.44,151.77C509.45,151.7 510.22,152.16 510.32,152.03C510.42,151.9 510.23,151.76 509.9,151.55C509.441,151.28 508.911,151.155 508.38,151.19C507.855,151.224 507.354,151.424 506.95,151.76C506.66,152 506.57,152.25 506.63,152.3Z" style="fill:rgb(38,50,56);fill-rule:nonzero;"/>
            <path d="M516.86,152.85C516.885,153.347 517.301,153.742 517.799,153.742C517.819,153.742 517.84,153.741 517.86,153.74C517.86,153.74 517.86,153.74 517.86,153.74C518.354,153.74 518.76,153.334 518.76,152.84C518.76,152.837 518.76,152.833 518.76,152.83C518.735,152.333 518.319,151.938 517.821,151.938C517.801,151.938 517.78,151.939 517.76,151.94C517.76,151.94 517.76,151.94 517.76,151.94C517.266,151.94 516.86,152.346 516.86,152.84C516.86,152.843 516.86,152.847 516.86,152.85Z" style="fill:rgb(38,50,56);fill-rule:nonzero;"/>
            <path d="M516.55,151.81C516.67,151.93 517.34,151.36 518.35,151.29C519.36,151.22 520.13,151.68 520.23,151.55C520.33,151.42 520.15,151.28 519.81,151.06C519.355,150.789 518.827,150.666 518.3,150.71C517.774,150.739 517.272,150.939 516.87,151.28C516.58,151.54 516.49,151.76 516.55,151.81Z" style="fill:rgb(38,50,56);fill-rule:nonzero;"/>
            <path d="M513.4,159.53C512.855,159.407 512.298,159.347 511.74,159.35C511.48,159.35 511.23,159.35 511.18,159.13C511.139,158.867 511.181,158.598 511.3,158.36L511.93,156.36C512.516,154.65 512.97,152.899 513.29,151.12C512.559,152.776 511.964,154.488 511.51,156.24C511.3,156.94 511.1,157.61 510.91,158.24C510.778,158.557 510.757,158.909 510.85,159.24C510.939,159.417 511.106,159.542 511.3,159.58C511.446,159.599 511.594,159.599 511.74,159.58C512.293,159.637 512.851,159.62 513.4,159.53Z" style="fill:rgb(38,50,56);fill-rule:nonzero;"/>
            <path d="M516.41,160C516.24,160 516.32,161.09 515.41,161.93C514.5,162.77 513.41,162.73 513.41,162.93C513.41,163.13 513.68,163.12 514.18,163.1C514.817,163.063 515.422,162.804 515.89,162.37C516.338,161.946 516.607,161.366 516.64,160.75C516.62,160.28 516.48,160 516.41,160Z" style="fill:rgb(38,50,56);fill-rule:nonzero;"/>
            <path d="M516,147.88C516.12,148.15 517.11,147.95 518.3,148.02C519.49,148.09 520.47,148.34 520.61,148.08C520.75,147.82 520.49,147.71 520.09,147.47C519.557,147.174 518.96,147.009 518.35,146.99C517.739,146.959 517.129,147.072 516.57,147.32C516.17,147.53 516,147.76 516,147.88Z" style="fill:rgb(38,50,56);fill-rule:nonzero;"/>
            <path d="M506.8,149.36C507,149.57 507.67,149.29 508.51,149.22C509.35,149.15 510.06,149.27 510.21,149.02C510.36,148.77 510.14,148.68 509.82,148.48C508.938,148.009 507.853,148.116 507.08,148.75C506.8,149 506.72,149.25 506.8,149.36Z" style="fill:rgb(38,50,56);fill-rule:nonzero;"/>
            <path d="M529,147.75C528.95,149.58 529.13,151.41 529.08,153.24C529.021,153.931 528.845,154.607 528.56,155.24C528.354,156.036 527.63,156.597 526.808,156.597C526.081,156.597 525.422,156.159 525.14,155.49C524.784,154.768 524.592,153.975 524.58,153.17C524.573,152.364 524.438,151.564 524.18,150.8C523.754,150.008 523.244,149.264 522.66,148.58C522.079,147.876 521.86,146.939 522.07,146.05C524.49,145.976 526.886,146.56 529,147.74" style="fill:rgb(38,50,56);fill-rule:nonzero;"/>
            <path d="M504.76,148.56L504.65,144.89L515.15,140.97L528.8,143.97L529.06,147.91C521.175,145.028 512.48,145.26 504.76,148.56Z" style="fill:rgb(69,90,100);fill-rule:nonzero;"/>
            <path d="M505.27,144.07L504.83,144.55L501.14,147.24C505.972,145.621 510.988,144.613 516.07,144.24C521.652,144.113 527.229,144.636 532.69,145.8L527.41,143.09C525.679,141.474 523.365,140.625 521,140.74L511.36,141.2C509.03,141.311 506.838,142.344 505.27,144.07Z" style="fill:rgb(237,50,55);fill-rule:nonzero;"/>
            <path d="M512,140.87C512.177,139.166 512.224,137.451 512.14,135.74C512.182,134.026 512.095,132.311 511.88,130.61C511.691,132.313 511.644,134.029 511.74,135.74C511.692,137.454 511.779,139.169 512,140.87Z" style="fill:rgb(38,50,56);fill-rule:nonzero;"/>
            <path d="M520.44,130.32C519.848,130.102 519.229,129.967 518.6,129.92C518.199,129.951 517.884,130.288 517.88,130.69L517.94,131.77C518.01,132.54 518.07,133.36 518.14,134.21C518.28,135.95 518.44,137.52 518.57,138.65C518.599,139.27 518.699,139.884 518.87,140.48C518.942,139.865 518.942,139.245 518.87,138.63C518.81,137.49 518.7,135.92 518.55,134.19C518.47,133.33 518.4,132.51 518.33,131.74C518.33,131.38 518.25,131.03 518.22,130.69C518.217,130.446 518.398,130.235 518.64,130.2C519.236,130.288 519.838,130.329 520.44,130.32Z" style="fill:rgb(38,50,56);fill-rule:nonzero;"/>
            <path d="M500.89,147.21C500.89,147.21 501.33,146.99 502.14,146.64C502.54,146.46 503.03,146.26 503.59,145.95C504.24,145.614 504.794,145.119 505.2,144.51C505.67,143.81 505.7,142.88 506.2,142.18C506.7,141.48 507.74,141.37 508.76,141.27C510.82,141.04 513.09,140.87 515.48,140.77C517.87,140.67 520.16,140.65 522.23,140.67C523.18,140.59 524.129,140.837 524.92,141.37C525.24,141.676 525.531,142.011 525.79,142.37L526.2,142.86L526.41,143.09C526.496,143.168 526.594,143.232 526.7,143.28C528.18,143.87 529.39,144.28 530.22,144.55C530.64,144.724 531.071,144.871 531.51,144.99C531.413,144.919 531.309,144.859 531.2,144.81C530.99,144.71 530.68,144.57 530.27,144.4C529.47,144.05 528.27,143.63 526.83,143.02C526.755,142.986 526.684,142.942 526.62,142.89L526.43,142.66L526.04,142.17C525.767,141.813 525.466,141.479 525.14,141.17C524.299,140.566 523.273,140.275 522.24,140.35C520.16,140.35 517.87,140.35 515.47,140.42C513.07,140.49 510.78,140.7 508.71,140.95C508.198,140.99 507.69,141.07 507.19,141.19C506.711,141.312 506.289,141.599 506,142C505.42,142.82 505.42,143.75 505,144.37C504.633,144.951 504.123,145.43 503.52,145.76C502.99,146.08 502.52,146.31 502.11,146.51C501.7,146.71 501.42,146.88 501.22,147C501.1,147.054 500.989,147.124 500.89,147.21Z" style="fill:rgb(38,50,56);fill-rule:nonzero;"/>
            <path d="M502.37,147.68C502.467,147.639 502.558,147.585 502.64,147.52C502.81,147.4 503.07,147.24 503.41,147.05C504.399,146.558 505.434,146.166 506.5,145.88C510.036,144.951 513.685,144.527 517.34,144.62C519.49,144.62 521.53,144.62 523.34,144.7C525.15,144.78 526.85,145.07 528.23,145.3C528.85,145.405 529.464,145.542 530.07,145.71C530.528,145.793 530.962,145.978 531.34,146.25C531.643,146.492 531.817,146.862 531.81,147.25C531.866,147.153 531.887,147.04 531.87,146.93C531.834,146.612 531.685,146.317 531.45,146.1C531.07,145.784 530.621,145.561 530.14,145.45C529.529,145.26 528.908,145.103 528.28,144.98C526.657,144.663 525.018,144.432 523.37,144.29C521.5,144.15 519.44,144.19 517.3,144.18C513.61,144.081 509.927,144.55 506.38,145.57C505.299,145.876 504.261,146.316 503.29,146.88C503.028,147.034 502.78,147.211 502.55,147.41C502.43,147.59 502.36,147.67 502.37,147.68Z" style="fill:rgb(38,50,56);fill-rule:nonzero;"/>
            <path d="M513.55,129.4C513.883,129.426 514.217,129.426 514.55,129.4L516.97,129.31C517.91,129.31 518.78,129.16 519.38,129.22C519.709,129.233 520.017,129.39 520.22,129.65C520.423,129.91 520.22,129.55 520.08,129.42C519.889,129.245 519.647,129.136 519.39,129.11C518.581,129.047 517.769,129.047 516.96,129.11L514.54,129.25C514.205,129.263 513.873,129.313 513.55,129.4Z" style="fill:rgb(250,250,250);fill-rule:nonzero;"/>
            <path d="M513.13,141.27C513.3,141.287 513.47,141.287 513.64,141.27L519.58,141.27L522.09,141.33C522.76,141.326 523.429,141.38 524.09,141.49C524.538,141.583 524.94,141.827 525.23,142.18C525.327,142.313 525.408,142.458 525.47,142.61C525.451,142.439 525.385,142.276 525.28,142.14C524.996,141.757 524.585,141.487 524.12,141.38C523.461,141.252 522.791,141.185 522.12,141.18C521.35,141.18 520.5,141.12 519.61,141.11C517.82,141.11 516.21,141.11 515.04,141.16L513.66,141.23C513.482,141.228 513.305,141.241 513.13,141.27Z" style="fill:rgb(250,250,250);fill-rule:nonzero;"/>
            <path d="M518.4,139.49C518.413,139.37 518.413,139.25 518.4,139.13C518.4,138.8 518.31,138.48 518.26,138.13C518.15,137.3 518.01,136.13 517.88,134.88C517.75,133.63 517.68,132.46 517.63,131.63C517.63,131.29 517.61,130.957 517.57,130.63C517.587,130.511 517.587,130.389 517.57,130.27C517.555,130.39 517.555,130.51 517.57,130.63L517.57,131.63C517.57,132.47 517.65,133.63 517.77,134.9C517.89,136.17 518.06,137.32 518.2,138.14C518.27,138.56 518.34,138.89 518.39,139.14C518.376,139.257 518.38,139.374 518.4,139.49Z" style="fill:rgb(250,250,250);fill-rule:nonzero;"/>
            <path d="M526.72,143.47C526.821,143.528 526.928,143.575 527.04,143.61L527.92,143.94L530.84,144.94C531.378,145.112 531.906,145.315 532.42,145.55C532.831,145.739 533.161,146.069 533.35,146.48C533.473,146.76 533.505,147.071 533.44,147.37C533.37,147.57 533.29,147.67 533.31,147.68C533.394,147.599 533.459,147.5 533.5,147.39C533.613,147.084 533.613,146.746 533.5,146.44C533.3,145.996 532.944,145.64 532.5,145.44C531.984,145.187 531.449,144.977 530.9,144.81L527.96,143.81L527.07,143.53C526.956,143.496 526.839,143.476 526.72,143.47Z" style="fill:rgb(250,250,250);fill-rule:nonzero;"/>
            <path d="M452.81,322.18L453.72,338.42C453.72,338.42 437.52,344.79 437.4,347.8L468.94,347.18L468.56,321.83L452.81,322.18Z" style="fill:rgb(237,50,55);fill-rule:nonzero;"/>
            <g opacity="0.4">
                <path d="M452.81,322.18L453.72,338.42C453.72,338.42 437.52,344.79 437.4,347.8L468.94,347.18L468.56,321.83L452.81,322.18Z" style="fill-rule:nonzero;"/>
            </g>
            <path d="M463.44,336.86C464.07,337.035 464.471,337.665 464.36,338.31C464.207,338.946 463.572,339.354 462.93,339.23C462.249,339.058 461.81,338.382 461.93,337.69C462.16,337.046 462.865,336.691 463.52,336.89" style="fill:rgb(224,224,224);fill-rule:nonzero;"/>
            <path d="M468.94,347.18L468.8,344.63L438.61,346.18C438.61,346.18 437.22,346.82 437.4,347.8L468.94,347.18Z" style="fill:rgb(224,224,224);fill-rule:nonzero;"/>
            <path d="M453.21,338.27C453.21,338.42 453.98,338.47 454.75,338.95C455.52,339.43 455.94,340.07 456.08,340.01C456.22,339.95 455.97,339.06 455.03,338.5C454.09,337.94 453.17,338.13 453.21,338.27Z" style="fill:rgb(38,50,56);fill-rule:nonzero;"/>
            <path d="M449.92,339.7C449.92,339.85 450.56,340.1 451.1,340.7C451.64,341.3 451.8,342.03 451.95,342.02C452.1,342.01 452.19,341.13 451.51,340.35C450.83,339.57 449.92,339.55 449.92,339.7Z" style="fill:rgb(38,50,56);fill-rule:nonzero;"/>
            <path d="M448.12,343.7C448.26,343.7 448.46,342.95 448.05,342.12C447.64,341.29 446.91,340.96 446.85,341.12C446.79,341.28 447.24,341.69 447.57,342.38C447.9,343.07 448,343.68 448.12,343.7Z" style="fill:rgb(38,50,56);fill-rule:nonzero;"/>
            <path d="M453.41,334.54C453.48,334.68 454.18,334.46 455.05,334.54C455.92,334.62 456.61,334.84 456.68,334.71C456.75,334.58 456.1,334.04 455.07,334C454.04,333.96 453.33,334.42 453.41,334.54Z" style="fill:rgb(38,50,56);fill-rule:nonzero;"/>
            <g opacity="0.3">
                <path d="M453,325.4L453.15,328.29L468.65,327.84L468.62,325.23L453,325.4Z" style="fill-rule:nonzero;"/>
            </g>
            <path d="M453.29,331.27C453.808,331.406 454.352,331.406 454.87,331.27C455.435,331.151 455.985,330.97 456.51,330.73C456.819,330.58 457.12,330.414 457.41,330.23C457.582,330.123 457.74,329.996 457.88,329.85C458.075,329.618 458.095,329.284 457.93,329.03C457.771,328.815 457.518,328.688 457.25,328.69C457.05,328.686 456.85,328.716 456.66,328.78C456.315,328.864 455.98,328.985 455.66,329.14C455.131,329.397 454.645,329.734 454.22,330.14C453.51,330.83 453.27,331.41 453.32,331.44C453.37,331.47 453.74,331 454.47,330.44C454.899,330.108 455.37,329.832 455.87,329.62C456.162,329.496 456.462,329.396 456.77,329.32C457.1,329.22 457.38,329.22 457.47,329.32C457.56,329.42 457.47,329.4 457.47,329.5C457.369,329.607 457.255,329.701 457.13,329.78C456.863,329.96 456.586,330.123 456.3,330.27C455.817,330.523 455.311,330.731 454.79,330.89C454.28,330.975 453.779,331.102 453.29,331.27Z" style="fill:rgb(38,50,56);fill-rule:nonzero;"/>
            <path d="M453.49,331.48C453.55,331.48 453.84,330.95 453.88,329.95C453.891,329.364 453.807,328.779 453.63,328.22C453.525,327.873 453.384,327.538 453.21,327.22C453.034,326.807 452.654,326.515 452.21,326.45C451.925,326.462 451.671,326.638 451.56,326.9C451.486,327.086 451.435,327.281 451.41,327.48C451.36,327.832 451.36,328.188 451.41,328.54C451.511,329.13 451.755,329.686 452.12,330.16C452.75,330.97 453.4,331.16 453.41,331.09C453.42,331.02 452.92,330.72 452.41,329.95C452.128,329.501 451.947,328.996 451.88,328.47C451.835,328.168 451.835,327.862 451.88,327.56C451.88,327.22 452.04,326.95 452.17,326.98C452.3,327.01 452.6,327.22 452.73,327.49C452.897,327.758 453.034,328.043 453.14,328.34C453.329,328.844 453.443,329.373 453.48,329.91C453.56,330.88 453.41,331.46 453.49,331.48Z" style="fill:rgb(38,50,56);fill-rule:nonzero;"/>
            <path d="M538,253.21C538,253.21 534.55,270.89 528.83,271.14C521.83,271.44 470.98,272.14 470.98,272.14L474,328.75L451.82,328.22L443,272.43C442.015,267.426 442.853,262.231 445.36,257.79L445.54,257.48C449.39,251.148 456.279,247.265 463.69,247.25L505.92,246.61L538,253.21Z" style="fill:rgb(38,50,56);fill-rule:nonzero;"/>
            <path d="M461.44,322.18L462.34,338.42C462.34,338.42 446.14,344.79 446.02,347.8L477.56,347.18L477.18,321.83L461.44,322.18Z" style="fill:rgb(237,50,55);fill-rule:nonzero;"/>
            <path d="M472.06,336.86C472.69,337.035 473.091,337.665 472.98,338.31C472.832,338.949 472.193,339.36 471.55,339.23C470.869,339.058 470.43,338.382 470.55,337.69C470.78,337.046 471.485,336.691 472.14,336.89" style="fill:rgb(224,224,224);fill-rule:nonzero;"/>
            <path d="M477.56,347.18L477.42,344.63L447.23,346.18C447.23,346.18 445.84,346.82 446.02,347.8L477.56,347.18Z" style="fill:rgb(224,224,224);fill-rule:nonzero;"/>
            <path d="M461.83,338.27C461.83,338.42 462.61,338.47 463.37,338.95C464.13,339.43 464.56,340.07 464.7,340.01C464.84,339.95 464.59,339.06 463.65,338.5C462.71,337.94 461.79,338.13 461.83,338.27Z" style="fill:rgb(38,50,56);fill-rule:nonzero;"/>
            <path d="M458.55,339.7C458.55,339.85 459.19,340.1 459.72,340.7C460.25,341.3 460.42,342.03 460.57,342.02C460.72,342.01 460.81,341.13 460.13,340.35C459.45,339.57 458.55,339.55 458.55,339.7Z" style="fill:rgb(38,50,56);fill-rule:nonzero;"/>
            <path d="M456.74,343.7C456.89,343.7 457.08,342.95 456.67,342.12C456.26,341.29 455.53,340.96 455.47,341.12C455.41,341.28 455.86,341.69 456.19,342.38C456.52,343.07 456.59,343.68 456.74,343.7Z" style="fill:rgb(38,50,56);fill-rule:nonzero;"/>
            <path d="M462,334.54C462.07,334.68 462.77,334.46 463.64,334.54C464.51,334.62 465.2,334.84 465.27,334.71C465.34,334.58 464.69,334.04 463.66,334C462.63,333.96 462,334.42 462,334.54Z" style="fill:rgb(38,50,56);fill-rule:nonzero;"/>
            <g opacity="0.3">
                <path d="M461.62,325.4L461.78,328.29L477.27,327.84L477.24,325.23L461.62,325.4Z" style="fill-rule:nonzero;"/>
            </g>
            <path d="M461.91,331.27C462.428,331.406 462.972,331.406 463.49,331.27C464.055,331.151 464.605,330.97 465.13,330.73C465.44,330.583 465.741,330.416 466.03,330.23C466.202,330.123 466.36,329.996 466.5,329.85C466.695,329.618 466.715,329.284 466.55,329.03C466.391,328.815 466.138,328.688 465.87,328.69C465.67,328.686 465.47,328.716 465.28,328.78C464.935,328.864 464.6,328.985 464.28,329.14C463.752,329.394 463.27,329.732 462.85,330.14C462.13,330.83 461.85,331.41 461.94,331.44C462.03,331.47 462.36,331 463.09,330.44C463.519,330.108 463.99,329.832 464.49,329.62C464.782,329.496 465.082,329.396 465.39,329.32C465.72,329.22 466,329.22 466.09,329.32C466.18,329.42 466.09,329.4 466.09,329.5C465.989,329.607 465.875,329.701 465.75,329.78C465.483,329.96 465.206,330.123 464.92,330.27C464.437,330.523 463.931,330.731 463.41,330.89C462.9,330.975 462.399,331.102 461.91,331.27Z" style="fill:rgb(38,50,56);fill-rule:nonzero;"/>
            <path d="M462.11,331.48C462.17,331.48 462.46,330.95 462.5,329.95C462.516,329.363 462.432,328.778 462.25,328.22C462.145,327.873 462.004,327.538 461.83,327.22C461.654,326.807 461.274,326.515 460.83,326.45C460.545,326.462 460.291,326.638 460.18,326.9C460.106,327.086 460.055,327.281 460.03,327.48C459.98,327.832 459.98,328.188 460.03,328.54C460.131,329.13 460.375,329.686 460.74,330.16C461.37,330.97 462.02,331.16 462.03,331.09C462.04,331.02 461.54,330.72 461.03,329.95C460.748,329.501 460.567,328.996 460.5,328.47C460.455,328.168 460.455,327.862 460.5,327.56C460.55,327.22 460.67,326.95 460.79,326.98C460.91,327.01 461.22,327.22 461.35,327.49C461.517,327.758 461.654,328.043 461.76,328.34C461.949,328.844 462.063,329.373 462.1,329.91C462.18,330.88 462,331.46 462.11,331.48Z" style="fill:rgb(38,50,56);fill-rule:nonzero;"/>
            <path d="M543.56,253.21C543.56,253.21 540.12,270.89 534.39,271.14C527.39,271.44 476.54,272.14 476.54,272.14L479.63,328.75L457.45,328.22L448.58,272.43C447.595,267.426 448.433,262.231 450.94,257.79L451.12,257.48C454.972,251.145 461.866,247.261 469.28,247.25L511.5,246.61L543.56,253.21Z" style="fill:rgb(38,50,56);fill-rule:nonzero;"/>
            <path d="M500.3,182.23L507,226.71L502.47,246.71L543.61,258.82C547.33,253.5 547.47,236.61 547.34,224.66C547.11,203.6 548.04,202.58 547.13,195.19C546.22,187.8 544.67,183.06 540.77,180.73L529.55,175C529.55,175 523.23,179 519.38,178.81C519.38,178.81 514.81,179 512.28,176.57C512.28,176.54 503,179.34 500.3,182.23Z" style="fill:rgb(237,50,55);fill-rule:nonzero;"/>
            <path d="M500.3,182.23L486.59,201.13L505.26,212.09L503.83,205.22L500.3,182.23Z" style="fill:rgb(237,50,55);fill-rule:nonzero;"/>
            <path d="M467.63,247.52C467.551,247.537 467.469,247.537 467.39,247.52L466.7,247.57C466.321,247.595 465.944,247.642 465.57,247.71C465.061,247.771 464.557,247.865 464.06,247.99C460.875,248.772 457.934,250.332 455.5,252.53C453.827,254.038 452.387,255.787 451.23,257.72C449.905,259.934 449.082,262.413 448.82,264.98C448.581,267.832 448.689,270.703 449.14,273.53C449.55,276.53 450.14,279.53 450.45,282.72C451.16,289.02 452.11,295 453,300.43C453.89,305.86 454.75,310.73 455.44,314.85C456.13,318.97 456.67,322.28 457,324.59C457.15,325.71 457.27,326.59 457.36,327.25C457.36,327.53 457.42,327.75 457.44,327.94C457.449,328.02 457.449,328.1 457.44,328.18C457.409,328.107 457.388,328.029 457.38,327.95C457.38,327.76 457.3,327.54 457.24,327.26L456.79,324.62C456.37,322.28 455.79,318.98 455.07,314.91C454.35,310.84 453.48,305.91 452.52,300.51C451.56,295.11 450.63,289.1 449.92,282.77C449.6,279.62 449.03,276.58 448.63,273.6C448.173,270.733 448.075,267.821 448.34,264.93C448.616,262.298 449.473,259.76 450.85,257.5C452.04,255.536 453.524,253.765 455.25,252.25C457.744,250.043 460.759,248.508 464.01,247.79C465.199,247.536 466.417,247.446 467.63,247.52Z" style="fill:rgb(69,90,100);fill-rule:nonzero;"/>
            <path d="M483.39,233.79C483.39,233.79 499.26,238.91 511.6,243.38C515.851,244.923 520.605,244.231 524.24,241.54C526.533,239.85 528.231,237.476 529.09,234.76L537.54,208.14L523.43,203.2L514,227.13L478.9,222.52" style="fill:rgb(255,190,157);fill-rule:nonzero;"/>
            <path d="M462.4,228.3L462.27,227.04C462.357,226.11 462.743,225.232 463.37,224.54C463.71,224.162 464.117,223.85 464.57,223.62L468.72,221.45C469.337,221.136 470.036,221.024 470.72,221.13L479.23,222.58L489,223.86L487,235L482.48,233.5C482.48,233.5 479.21,235.31 477.19,234.88C477.19,234.88 475.32,236.13 474.55,235.21C474.55,235.21 472.88,236.65 472.25,236.56C471.62,236.47 470.38,235.74 470.43,235.31L470.48,234.73C469.828,235.087 469.029,235.052 468.41,234.64C467.978,234.304 467.649,233.854 467.46,233.34C466.681,233.259 465.944,232.941 465.35,232.43C464.957,231.854 464.694,231.198 464.58,230.51C464.466,229.822 462.71,229.6 462.4,228.3Z" style="fill:rgb(255,190,157);fill-rule:nonzero;"/>
            <path d="M468.68,224.27C468.74,224.27 468.84,224.73 468.63,225.43C468.32,226.317 467.806,227.118 467.13,227.77C466.38,228.54 465.68,229.17 465.25,229.69C464.82,230.21 464.59,230.57 464.52,230.54C464.45,230.51 464.52,230.07 464.96,229.47C465.49,228.728 466.089,228.038 466.75,227.41C467.375,226.795 467.895,226.082 468.29,225.3C468.56,224.7 468.59,224.27 468.68,224.27Z" style="fill:rgb(235,153,110);fill-rule:nonzero;"/>
            <path d="M470.3,228.72C469.824,230.508 468.79,232.099 467.35,233.26C467.718,232.431 468.188,231.652 468.75,230.94C469.56,229.7 470.16,228.65 470.3,228.72Z" style="fill:rgb(235,153,110);fill-rule:nonzero;"/>
            <path d="M472.47,231.66C472.59,231.74 472.24,232.46 471.68,233.28C471.12,234.1 470.58,234.7 470.46,234.61C470.34,234.52 470.7,233.8 471.25,232.99C471.8,232.18 472.35,231.58 472.47,231.66Z" style="fill:rgb(235,153,110);fill-rule:nonzero;"/>
            <path d="M472.07,230.49C472.07,230.55 471.85,230.56 471.59,230.4C471.248,230.171 471.018,229.807 470.96,229.4C470.889,229.001 470.999,228.59 471.26,228.28C471.45,228.05 471.64,227.99 471.69,228.04C471.74,228.09 471.36,228.65 471.47,229.32C471.58,229.99 472.13,230.36 472.07,230.49Z" style="fill:rgb(235,153,110);fill-rule:nonzero;"/>
            <path d="M474.44,233.48C474.44,233.54 474.26,233.55 474.04,233.48C473.756,233.311 473.554,233.032 473.48,232.71C473.353,232.354 473.461,231.954 473.75,231.71C474.01,231.53 474.21,231.65 474.19,231.71C473.965,231.922 473.886,232.249 473.99,232.54C474.1,233.05 474.5,233.35 474.44,233.48Z" style="fill:rgb(235,153,110);fill-rule:nonzero;"/>
            <path d="M470.69,227.31C470.69,227.37 470.47,227.42 470.17,227.31C469.726,227.095 469.444,226.643 469.444,226.15C469.444,225.739 469.639,225.353 469.97,225.11C470.24,224.92 470.46,224.94 470.47,225C470.48,225.06 469.91,225.51 469.97,226.22C470.03,226.93 470.73,227.19 470.69,227.31Z" style="fill:rgb(235,153,110);fill-rule:nonzero;"/>
            <path d="M537.61,184.34C534.39,182.94 530.42,184.34 528.09,186.78C525.76,189.22 524.69,192.41 523.69,195.51C522.69,198.61 520.31,204.58 519.34,207.57L537.63,215.4C539.19,211.18 540.643,206.923 541.99,202.63C543.13,199.03 544.19,195.15 542.87,191.57" style="fill:rgb(237,50,55);fill-rule:nonzero;"/>
            <path d="M542.87,191.57C542.952,191.708 543.016,191.856 543.06,192.01C543.219,192.441 543.336,192.886 543.41,193.34C543.696,195.039 543.652,196.778 543.28,198.46C542.721,201.022 541.982,203.541 541.07,206C540.07,208.86 539.07,212.05 537.88,215.48L537.79,215.73L537.53,215.62L524.65,210.12L519.23,207.8L519.01,207.7L519.08,207.5C520.56,203.14 522.21,199.15 523.45,195.5C523.993,193.731 524.661,192.004 525.45,190.33C526.156,188.836 527.125,187.481 528.31,186.33C530.121,184.623 532.521,183.677 535.01,183.69C535.691,183.711 536.365,183.833 537.01,184.05C537.227,184.126 537.438,184.22 537.64,184.33C536.797,184.051 535.918,183.896 535.03,183.87C532.619,183.922 530.314,184.884 528.58,186.56C527.451,187.686 526.53,189.003 525.86,190.45C525.101,192.117 524.46,193.834 523.94,195.59C522.73,199.3 521.08,203.31 519.63,207.64L519.48,207.34L524.91,209.66L537.77,215.18L537.42,215.32C538.6,211.89 539.7,208.72 540.69,205.87C541.621,203.433 542.393,200.938 543,198.4C543.387,196.763 543.481,195.07 543.28,193.4C543.07,192.19 542.83,191.58 542.87,191.57Z" style="fill:rgb(38,50,56);fill-rule:nonzero;"/>
            <path d="M519.43,236.26C519.37,236.26 519.23,235.26 518.61,233.43C518.229,232.351 517.722,231.321 517.1,230.36C516.307,229.097 515.215,228.05 513.92,227.31L513.97,227.31L494.16,224.73L482.16,223.12L476.95,222.4L472.42,221.67L470.42,221.36C469.86,221.26 469.282,221.363 468.79,221.65L466.22,222.89L464.59,223.66C464.404,223.762 464.206,223.84 464,223.89C464.171,223.766 464.352,223.656 464.54,223.56L466.13,222.71L468.66,221.39C469.203,221.064 469.843,220.937 470.47,221.03L472.47,221.31L477,221.97L482.22,222.65L494.22,224.22L514,226.93L514.06,226.93C515.414,227.713 516.547,228.828 517.35,230.17C517.965,231.161 518.452,232.227 518.8,233.34C519.02,234.038 519.194,234.749 519.32,235.47C519.385,235.729 519.422,235.993 519.43,236.26Z" style="fill:rgb(235,153,110);fill-rule:nonzero;"/>
            <path d="M507,226C506.862,225.53 506.772,225.048 506.73,224.56C506.56,223.56 506.35,222.22 506.1,220.63C505.53,217.22 504.78,212.68 503.95,207.63C503.12,202.58 502.36,198.07 501.8,194.63C501.55,193.04 501.35,191.71 501.19,190.69C501.086,190.21 501.033,189.721 501.03,189.23C501.194,189.691 501.315,190.166 501.39,190.65L502.16,194.57C502.79,197.88 503.62,202.45 504.47,207.57C505.32,212.69 506.02,217.24 506.47,220.57C506.7,222.24 506.85,223.57 506.94,224.57C507.007,225.044 507.027,225.523 507,226Z" style="fill:rgb(38,50,56);fill-rule:nonzero;"/>
        </g>
    </g>
</svg>
