<?xml version="1.0" encoding="UTF-8" standalone="no"?>
<!DOCTYPE svg PUBLIC "-//W3C//DTD SVG 1.1//EN" "http://www.w3.org/Graphics/SVG/1.1/DTD/svg11.dtd">
<svg width="100%" height="100%" viewBox="0 0 500 356" version="1.1" xmlns="http://www.w3.org/2000/svg" xmlns:xlink="http://www.w3.org/1999/xlink" xml:space="preserve" xmlns:serif="http://www.serif.com/" style="fill-rule:evenodd;clip-rule:evenodd;stroke-linejoin:round;stroke-miterlimit:2;">
    <g transform="matrix(1,0,0,1,-7.27832,1.25777)">
        <g transform="matrix(0.98045,0,0,0.98045,-120.321,-63.9665)">
            <g id="freepik--background-simple--inject-7">
                <path d="M405,193.43C430.48,191.43 437.05,188.87 462.35,185.26C494.04,180.75 509.85,176.71 541.29,182.72C572.73,188.73 603.62,207.29 615.8,236.89C631.11,274.09 612.22,318.55 581.08,344.01C549.94,369.47 509.3,379.74 469.72,386.89C435.34,393.11 400.41,397.51 365.53,395.7C330.65,393.89 295.63,385.61 265.53,367.85C228.07,345.73 200.24,310.21 178.83,272.35C163.3,244.89 150.47,214.96 149.14,183.44C147.81,151.92 159.69,118.5 185.41,100.24C217.8,77.24 264.2,83.78 297.41,105.58C327.34,125.24 338.23,138.45 355.58,165.5C362.265,176.086 371.981,184.422 383.46,189.42C390.212,192.472 397.602,193.848 405,193.43Z" style="fill:rgb(240,240,240);fill-rule:nonzero;"/>
            </g>
        </g>
        <g id="freepik--Device--inject-7" transform="matrix(0.832202,0,0,0.832202,-63.2266,-53.244)">
            <g transform="matrix(1,0,0,1,0,-2.40326)">
                <path d="M576.06,149.79C576.06,141.749 569.531,135.22 561.49,135.22L188.59,135.22C180.549,135.22 174.02,141.749 174.02,149.79L174.02,386.51C174.02,394.551 180.549,401.08 188.59,401.08L561.49,401.08C569.531,401.08 576.06,394.551 576.06,386.51L576.06,149.79Z" style="fill:rgb(38,50,56);"/>
            </g>
            <g transform="matrix(1,0,0,1,0,-2.40326)">
                <path d="M157.2,381.42L592.79,381.42L592.79,386.89C592.79,396.655 584.755,404.69 574.99,404.69L175,404.69C165.235,404.69 157.2,396.655 157.2,386.89L157.2,381.42Z" style="fill:rgb(38,50,56);fill-rule:nonzero;"/>
            </g>
            <g transform="matrix(1,0,0,1,0,-2.40326)">
                <rect x="184.82" y="145.79" width="379.33" height="224.52" style="fill:rgb(224,224,224);"/>
            </g>
            <g transform="matrix(1,0,0,1,0,-2.40326)">
                <path d="M335.41,381.42L340.81,390.02L416.87,390.02L421.89,381.42L335.41,381.42Z" style="fill:rgb(69,90,100);fill-rule:nonzero;"/>
            </g>
            <g transform="matrix(1,0,0,1,0,-2.40326)">
                <path d="M557.11,156.66C557.11,154.855 555.645,153.39 553.84,153.39L195.9,153.39C194.095,153.39 192.63,154.855 192.63,156.66L192.63,366.32C192.63,368.125 194.095,369.59 195.9,369.59L553.84,369.59C555.645,369.59 557.11,368.125 557.11,366.32L557.11,156.66Z" style="fill:rgb(69,90,100);"/>
            </g>
            <g transform="matrix(1,0,0,1,0,-2.40326)">
                <rect x="192.63" y="169.23" width="364.48" height="200.36" style="fill:rgb(250,250,250);"/>
            </g>
            <g transform="matrix(1,0,0,1,0,-2.40326)">
                <path d="M222.52,161.74C222.515,163.333 221.203,164.64 219.61,164.64C218.014,164.64 216.7,163.326 216.7,161.73C216.7,160.134 218.014,158.82 219.61,158.82C221.206,158.82 222.52,160.134 222.52,161.73L222.52,161.74Z" style="fill:rgb(237,50,55);fill-rule:nonzero;"/>
            </g>
            <g transform="matrix(1,0,0,1,0,-2.40326)">
                <path d="M204.88,161.74C204.875,163.333 203.563,164.64 201.97,164.64C200.374,164.64 199.06,163.326 199.06,161.73C199.06,160.134 200.374,158.82 201.97,158.82C203.566,158.82 204.88,160.134 204.88,161.73L204.88,161.74Z" style="fill:rgb(237,50,55);fill-rule:nonzero;"/>
            </g>
            <g transform="matrix(1,0,0,1,0,-2.40326)">
                <path d="M213.35,161.74C213.345,163.333 212.033,164.64 210.44,164.64C208.844,164.64 207.53,163.326 207.53,161.73C207.53,160.134 208.844,158.82 210.44,158.82C212.036,158.82 213.35,160.134 213.35,161.73L213.35,161.74Z" style="fill:rgb(237,50,55);fill-rule:nonzero;"/>
            </g>
            <g transform="matrix(1,0,0,1,0,-2.40326)">
                <path d="M465.25,252.68L466.38,252.59C466.75,252.59 467.21,252.47 467.76,252.38C468.382,252.234 468.993,252.046 469.59,251.82C471.268,251.174 472.784,250.167 474.03,248.87C474.817,248.044 475.49,247.115 476.03,246.11C476.63,244.955 477.045,243.713 477.26,242.43C477.375,241.755 477.433,241.071 477.433,240.386C477.433,234.141 472.627,228.859 466.41,228.27C465.41,228.2 464.41,228.21 463.41,228.21L439.64,228.21L284.5,228.28C278.775,228.308 273.814,232.389 272.68,238C272.329,239.785 272.38,241.627 272.83,243.39C274.239,248.734 279.144,252.463 284.67,252.39L331.24,252.39L400.99,252.44L447.99,252.53L465.23,252.53L460.77,252.53L447.99,252.58L400.99,252.66L331.24,252.72L284.67,252.72C282.818,252.751 280.982,252.365 279.3,251.59C275.831,250.029 273.253,246.973 272.3,243.29C271.322,239.557 272.132,235.575 274.49,232.52C276.875,229.415 280.575,227.59 284.49,227.59L439.63,227.67L463.42,227.67C464.42,227.67 465.42,227.67 466.42,227.74C472.746,228.38 477.616,233.769 477.616,240.127C477.616,242.157 477.119,244.156 476.17,245.95C475.609,246.964 474.92,247.902 474.12,248.74C472.844,250.035 471.302,251.039 469.6,251.68C468.993,251.901 468.371,252.082 467.74,252.22C467.19,252.3 466.74,252.38 466.36,252.41C465.64,252.68 465.25,252.68 465.25,252.68Z" style="fill:rgb(38,50,56);fill-rule:nonzero;"/>
            </g>
            <g transform="matrix(1,0,0,1,0,-2.40326)">
                <path d="M465.25,252.68L441.6,252.68L441.6,228.06L465.25,228.06C472.003,228.06 477.56,233.617 477.56,240.37C477.56,247.123 472.003,252.68 465.25,252.68Z" style="fill:rgb(237,50,55);fill-rule:nonzero;"/>
            </g>
            <g transform="matrix(1,0,0,1,0,-2.40326)">
                <path d="M461.12,238.05C461.07,238.05 461.07,237.64 460.87,236.93C460.583,235.946 459.978,235.084 459.15,234.48C458.379,233.903 457.441,233.591 456.478,233.591C454.031,233.591 452.018,235.604 452.018,238.051C452.018,239.909 453.179,241.581 454.92,242.23C456.343,242.75 457.937,242.525 459.16,241.63C459.984,241.02 460.585,240.155 460.87,239.17C461.07,238.47 461.07,238.05 461.12,238.05C461.139,238.152 461.139,238.258 461.12,238.36C461.136,238.649 461.109,238.939 461.04,239.22C460.809,240.289 460.211,241.245 459.35,241.92C458.039,242.946 456.29,243.233 454.72,242.68C452.769,241.985 451.458,240.126 451.458,238.055C451.458,235.984 452.769,234.125 454.72,233.43C456.288,232.868 458.04,233.152 459.35,234.18C460.209,234.857 460.807,235.812 461.04,236.88C461.109,237.165 461.136,237.458 461.12,237.75C461.139,237.849 461.139,237.951 461.12,238.05Z" style="fill:white;fill-rule:nonzero;"/>
            </g>
            <g transform="matrix(1,0,0,1,0,-2.40326)">
                <path d="M467.41,245.88C466.064,245.277 464.79,244.525 463.61,243.64C462.342,242.899 461.164,242.013 460.1,241C462.727,242.334 465.181,243.983 467.41,245.91L467.41,245.88Z" style="fill:white;fill-rule:nonzero;"/>
            </g>
            <g transform="matrix(1,0,0,1,0,-2.40326)">
                <path d="M287.47,247.29C287.211,244.966 287.124,242.627 287.21,240.29C287.124,237.953 287.211,235.614 287.47,233.29C287.729,235.614 287.816,237.953 287.73,240.29C287.816,242.627 287.729,244.966 287.47,247.29Z" style="fill:rgb(69,90,100);fill-rule:nonzero;"/>
            </g>
            <g transform="matrix(1,0,0,1,0,-2.40326)">
                <rect x="257.53" y="295.14" width="59.09" height="57.17" style="fill:rgb(224,224,224);"/>
            </g>
            <g transform="matrix(1,0,0,1,0,-2.40326)">
                <path d="M262.12,347.42L278.46,318L291.83,336.8L299.96,326.82L312.04,347.42L262.12,347.42Z" style="fill:rgb(237,50,55);fill-rule:nonzero;"/>
            </g>
            <g transform="matrix(1,0,0,1,0,-2.40326)">
                <path d="M297.53,312.28L297.53,312.29C297.53,314.627 295.607,316.55 293.27,316.55C290.933,316.55 289.01,314.627 289.01,312.29C289.01,309.953 290.933,308.03 293.27,308.03L293.28,308.03C295.611,308.03 297.53,309.949 297.53,312.28Z" style="fill:rgb(237,50,55);fill-rule:nonzero;"/>
            </g>
            <g transform="matrix(1,0,0,1,0,-2.40326)">
                <path d="M312,347.58L312,344.1C312,341.84 312,338.56 311.93,334.4C311.93,326.05 311.86,314.15 311.81,299.88L312.05,300.12L262.13,300.12C262.06,300.18 262.66,299.59 262.41,299.85L262.41,347.54L262.17,347.29L298.26,347.42L308.45,347.48L312.09,347.48L308.55,347.48L298.42,347.55L262.17,347.67L261.92,347.67L261.92,299.9C261.67,300.14 262.27,299.54 262.21,299.61L312.38,299.61L312.38,299.85C312.32,314.19 312.28,326.13 312.25,334.52C312.25,338.66 312.2,341.92 312.19,344.17L312.19,347.34C312.142,347.431 312.077,347.512 312,347.58Z" style="fill:rgb(69,90,100);fill-rule:nonzero;"/>
            </g>
            <g transform="matrix(1,0,0,1,0,-2.40326)">
                <rect x="351.59" y="295.14" width="59.09" height="57.17" style="fill:rgb(237,50,55);"/>
            </g>
            <g transform="matrix(1,0,0,1,0,-2.40326)">
                <path d="M356.17,347.42L372.52,318L385.89,336.8L394.01,326.82L406.1,347.42L356.17,347.42Z" style="fill:rgb(224,224,224);fill-rule:nonzero;"/>
            </g>
            <g transform="matrix(1,0,0,1,0,-2.40326)">
                <path d="M391.58,312.28C391.58,314.611 389.661,316.53 387.33,316.53C384.999,316.53 383.08,314.611 383.08,312.28C383.08,309.949 384.999,308.03 387.33,308.03C389.661,308.03 391.58,309.949 391.58,312.28Z" style="fill:rgb(224,224,224);fill-rule:nonzero;"/>
            </g>
            <g transform="matrix(1,0,0,1,0,-2.40326)">
                <path d="M406.1,347.58L406.1,344.1C406.1,341.84 406.1,338.56 406.04,334.4C406.04,326.05 405.97,314.15 405.92,299.88L406.16,300.12L356.24,300.12L356.51,299.85L356.51,347.53L356.26,347.28L392.36,347.41L402.54,347.47L406.19,347.47L402.64,347.47L392.52,347.54L356.26,347.66L356.02,347.66L356.02,299.9C355.77,300.14 356.36,299.54 356.31,299.61L406.47,299.61L406.47,299.85C406.47,314.19 406.38,326.13 406.35,334.52C406.35,338.66 406.3,341.92 406.28,344.17L406.28,347.34C406.227,347.425 406.167,347.506 406.1,347.58Z" style="fill:rgb(69,90,100);fill-rule:nonzero;"/>
            </g>
            <g transform="matrix(1,0,0,1,0,-2.40326)">
                <rect x="445.65" y="295.14" width="59.09" height="57.17" style="fill:rgb(224,224,224);"/>
            </g>
            <g transform="matrix(1,0,0,1,0,-2.40326)">
                <path d="M450.23,347.42L466.57,318L479.94,336.8L488.07,326.82L500.15,347.42L450.23,347.42Z" style="fill:rgb(237,50,55);fill-rule:nonzero;"/>
            </g>
            <g transform="matrix(1,0,0,1,0,-2.40326)">
                <path d="M485.64,312.28L485.64,312.29C485.64,314.627 483.717,316.55 481.38,316.55C479.043,316.55 477.12,314.627 477.12,312.29C477.12,309.953 479.043,308.03 481.38,308.03L481.39,308.03C483.721,308.03 485.64,309.949 485.64,312.28Z" style="fill:rgb(237,50,55);fill-rule:nonzero;"/>
            </g>
            <g transform="matrix(1,0,0,1,0,-2.40326)">
                <path d="M500.16,347.58C500.153,347.5 500.153,347.42 500.16,347.34L500.16,344.1C500.16,341.84 500.16,338.56 500.1,334.4C500.1,326.05 500.02,314.15 499.97,299.88L500.22,300.12L450.29,300.12C450.23,300.18 450.82,299.59 450.57,299.85L450.57,347.53L450.33,347.28L486.43,347.41L496.61,347.47L500.26,347.47L496.71,347.47L486.58,347.54L450.33,347.66L450,347.66L450,299.9C449.75,300.14 450.34,299.54 450.28,299.61L500.45,299.61L500.45,299.85C500.45,314.19 500.35,326.13 500.32,334.52C500.32,338.66 500.32,341.92 500.26,344.17L500.26,347.34C500.26,347.5 500.16,347.58 500.16,347.58Z" style="fill:rgb(69,90,100);fill-rule:nonzero;"/>
            </g>
            <g transform="matrix(1,0,0,1,0,-2.40326)">
                <rect x="337.45" y="199.12" width="74.84" height="6.27" style="fill:rgb(69,90,100);"/>
            </g>
            <g transform="matrix(1,0,0,1,0,-2.40326)">
                <path d="M572.61,381.42C572.61,381.57 483.37,381.68 373.32,381.68C263.27,381.68 174.02,381.57 174.02,381.42C174.02,381.27 263.24,381.16 373.32,381.16C483.4,381.16 572.61,381.28 572.61,381.42Z" style="fill:rgb(69,90,100);fill-rule:nonzero;"/>
            </g>
        </g>
        <g id="freepik--Character--inject-7" transform="matrix(0.832202,0,0,0.832202,-63.2266,-60.244)">
            <g transform="matrix(1,0,0,1,0,-2.40326)">
                <path d="M501.35,280.22C501.35,280.22 502.24,270.73 503.14,270.81C504.04,270.89 504.19,272.57 504.08,273.39C503.97,274.21 504.08,277.39 504.08,277.39L501.35,280.22Z" style="fill:rgb(255,190,157);fill-rule:nonzero;"/>
            </g>
            <g transform="matrix(1,0,0,1,0,-2.40326)">
                <path d="M582.78,272.45L578.23,304.45L599.23,396.19L541.23,400.83L566.23,253.09C566.23,253.09 582.73,251.22 582.78,272.45Z" style="fill:rgb(38,50,56);fill-rule:nonzero;"/>
            </g>
            <g transform="matrix(1,0,0,1,0,-2.40326)">
                <path d="M511.47,433.94L508.12,471.8L522.43,471.8L528.74,433.94L511.47,433.94Z" style="fill:rgb(255,190,157);fill-rule:nonzero;"/>
            </g>
            <g transform="matrix(1,0,0,1,0,-2.40326)">
                <path d="M508.12,471.8C508.12,471.8 498.46,473.05 496.74,474.29L522.05,473.99L522.43,471.8L508.12,471.8Z" style="fill:rgb(255,190,157);fill-rule:nonzero;"/>
            </g>
            <g transform="matrix(1,0,0,1,0,-2.40326)">
                <path d="M496.74,474.3L496.74,475.31L522.8,475.03L522.8,473.94L496.74,474.3Z" style="fill:rgb(237,50,55);fill-rule:nonzero;"/>
            </g>
            <g transform="matrix(1,0,0,1,0,-2.40326)">
                <path d="M506,474.88C505.86,474.94 505.45,474.16 504.61,473.55C503.77,472.94 502.92,472.75 502.94,472.61C502.96,472.47 503.94,472.43 504.94,473.15C505.94,473.87 506.09,474.85 506,474.88Z" style="fill:rgb(237,50,55);fill-rule:nonzero;"/>
            </g>
            <g transform="matrix(1,0,0,1,0,-2.40326)">
                <path d="M522.76,471.05C522.76,471.19 521.02,471.54 519.04,472.48C517.06,473.42 515.66,474.48 515.56,474.41C516.434,473.354 517.558,472.532 518.83,472.02C520.035,471.365 521.389,471.031 522.76,471.05Z" style="fill:rgb(237,50,55);fill-rule:nonzero;"/>
            </g>
            <g transform="matrix(1,0,0,1,0,-2.40326)">
                <path d="M522.17,470.43C517.472,470.533 512.773,470.296 508.11,469.72C510.443,469.591 512.782,469.627 515.11,469.83C517.475,469.858 519.834,470.058 522.17,470.43Z" style="fill:rgb(237,50,55);fill-rule:nonzero;"/>
            </g>
            <g transform="matrix(1,0,0,1,0,-2.40326)">
                <path d="M523.85,465.45C521.306,466.176 518.717,466.734 516.1,467.12C513.514,467.676 510.895,468.07 508.26,468.3C510.806,467.582 513.394,467.024 516.01,466.63C518.596,466.075 521.215,465.681 523.85,465.45Z" style="fill:rgb(237,50,55);fill-rule:nonzero;"/>
            </g>
            <g transform="matrix(1,0,0,1,0,-2.40326)">
                <path d="M523.6,465.63C522.947,465.639 522.301,465.499 521.71,465.22C521.048,464.958 520.417,464.623 519.83,464.22C519.478,463.989 519.143,463.732 518.83,463.45C518.636,463.281 518.485,463.069 518.39,462.83C518.285,462.546 518.315,462.23 518.47,461.97C518.651,461.708 518.964,461.569 519.28,461.61C519.521,461.644 519.757,461.711 519.98,461.81C520.373,461.972 520.746,462.18 521.09,462.43C521.678,462.844 522.18,463.366 522.57,463.97C522.973,464.495 523.206,465.129 523.24,465.79C523.16,465.79 522.97,465.09 522.24,464.17C521.839,463.637 521.348,463.176 520.79,462.81C520.479,462.592 520.143,462.41 519.79,462.27C519.42,462.1 519,462.03 518.89,462.27C518.771,462.583 518.888,462.939 519.17,463.12C519.459,463.39 519.763,463.644 520.08,463.88C520.634,464.262 521.22,464.596 521.83,464.88C522.9,465.38 523.61,465.55 523.6,465.63Z" style="fill:rgb(237,50,55);fill-rule:nonzero;"/>
            </g>
            <g transform="matrix(1,0,0,1,0,-2.40326)">
                <path d="M523.47,466C523.158,465.429 523.032,464.776 523.11,464.13C523.141,463.443 523.29,462.767 523.55,462.13C523.707,461.744 523.908,461.379 524.15,461.04C524.278,460.854 524.418,460.677 524.57,460.51C524.754,460.283 525.028,460.148 525.32,460.14C525.631,460.159 525.908,460.347 526.04,460.63C526.15,460.86 526.198,461.115 526.18,461.37C526.161,461.79 526.094,462.206 525.98,462.61C525.774,463.291 525.434,463.923 524.98,464.47C524.615,465.007 524.09,465.416 523.48,465.64C523.48,465.57 524.05,465.18 524.69,464.26C525.06,463.722 525.331,463.123 525.49,462.49C525.589,462.121 525.643,461.742 525.65,461.36C525.65,460.98 525.5,460.64 525.27,460.64C525.04,460.64 524.74,461.02 524.51,461.32C524.285,461.634 524.09,461.969 523.93,462.32C523.663,462.92 523.49,463.557 523.42,464.21C523.35,465.25 523.55,466 523.47,466Z" style="fill:rgb(237,50,55);fill-rule:nonzero;"/>
            </g>
            <g transform="matrix(1,0,0,1,0,-2.40326)">
                <path d="M525.39,471.88C524.731,471.027 524.258,470.046 524,469C523.586,467.979 523.398,466.88 523.45,465.78C523.877,466.767 524.212,467.791 524.45,468.84C524.849,469.825 525.164,470.842 525.39,471.88Z" style="fill:rgb(237,50,55);fill-rule:nonzero;"/>
            </g>
            <g transform="matrix(1,0,0,1,0,-2.40326)">
                <path d="M527.1,470.54C525.14,469.36 523.682,467.497 523.01,465.31C523.15,465.24 523.84,466.56 525.01,467.99C526.18,469.42 527.19,470.42 527.1,470.54Z" style="fill:rgb(237,50,55);fill-rule:nonzero;"/>
            </g>
            <g transform="matrix(1,0,0,1,0,-2.40326)">
                <path d="M564.88,437.04L594.2,460.28L601.17,450.08L574.96,421.55L564.88,437.04Z" style="fill:rgb(255,190,157);fill-rule:nonzero;"/>
            </g>
            <g transform="matrix(1,0,0,1,0,-2.40326)">
                <path d="M592.13,460.85C592.13,460.85 587.62,469.48 587.66,471.61L601.9,450.69L600.33,449.12L592.13,460.85Z" style="fill:rgb(255,190,157);fill-rule:nonzero;"/>
            </g>
            <g transform="matrix(1,0,0,1,0,-2.40326)">
                <path d="M587.66,471.61L588.49,472.19L603.18,450.67L602.29,450.04L587.66,471.61Z" style="fill:rgb(237,50,55);fill-rule:nonzero;"/>
            </g>
            <g transform="matrix(1,0,0,1,0,-2.40326)">
                <path d="M593.41,464.39C593.41,464.53 592.51,464.39 591.53,464.77C590.55,465.15 589.91,465.69 589.8,465.6C589.69,465.51 590.24,464.67 591.37,464.29C592.5,463.91 593.47,464.27 593.41,464.39Z" style="fill:rgb(237,50,55);fill-rule:nonzero;"/>
            </g>
            <g transform="matrix(1,0,0,1,0,-2.40326)">
                <path d="M599.89,448.42C600.03,448.48 599.3,450.13 598.94,452.29C598.58,454.45 598.68,456.23 598.53,456.29C597.952,453.603 598.44,450.794 599.89,448.46L599.89,448.42Z" style="fill:rgb(237,50,55);fill-rule:nonzero;"/>
            </g>
            <g transform="matrix(1,0,0,1,0,-2.40326)">
                <path d="M599.09,447.87C597.991,449.694 596.75,451.43 595.38,453.06C594.133,454.796 592.756,456.434 591.26,457.96C592.36,456.131 593.604,454.392 594.98,452.76C596.217,451.023 597.591,449.387 599.09,447.87Z" style="fill:rgb(237,50,55);fill-rule:nonzero;"/>
            </g>
            <g transform="matrix(1,0,0,1,0,-2.40326)">
                <path d="M595.94,444.32C595.194,446.536 594.295,448.698 593.25,450.79C592.356,452.946 591.306,455.035 590.11,457.04C590.857,454.827 591.756,452.669 592.8,450.58C593.691,448.419 594.74,446.326 595.94,444.32Z" style="fill:rgb(237,50,55);fill-rule:nonzero;"/>
            </g>
            <g transform="matrix(1,0,0,1,0,-2.40326)">
                <path d="M595.93,444.63C595.98,444.63 595.51,445.26 594.51,445.95C593.928,446.356 593.301,446.692 592.64,446.95C592.251,447.108 591.849,447.235 591.44,447.33C591.19,447.385 590.93,447.385 590.68,447.33C590.387,447.253 590.144,447.047 590.02,446.77C589.911,446.471 589.977,446.136 590.19,445.9C590.354,445.72 590.542,445.566 590.75,445.44C591.723,444.824 592.859,444.513 594.01,444.55C594.67,444.517 595.324,444.692 595.88,445.05C595.88,445.13 595.16,444.87 594.01,444.91C592.942,444.938 591.903,445.264 591.01,445.85C590.66,446.06 590.36,446.37 590.47,446.58C590.658,446.859 591.019,446.968 591.33,446.84C591.716,446.756 592.097,446.649 592.47,446.52C593.109,446.293 593.728,446.012 594.32,445.68C595.33,445.06 595.88,444.57 595.93,444.63Z" style="fill:rgb(237,50,55);fill-rule:nonzero;"/>
            </g>
            <g transform="matrix(1,0,0,1,0,-2.40326)">
                <path d="M596.14,444.93C595.493,444.857 594.885,444.584 594.4,444.15C593.837,443.731 593.356,443.213 592.98,442.62C592.753,442.27 592.569,441.894 592.43,441.5C592.349,441.292 592.285,441.078 592.24,440.86C592.157,440.579 592.2,440.276 592.36,440.03C592.559,439.788 592.871,439.67 593.18,439.72C593.429,439.766 593.662,439.872 593.86,440.03C594.193,440.287 594.495,440.582 594.76,440.91C595.214,441.454 595.554,442.083 595.76,442.76C595.989,443.368 596.024,444.032 595.86,444.66C595.743,444.06 595.596,443.466 595.42,442.88C595.187,442.266 594.849,441.697 594.42,441.2C594.17,440.916 593.892,440.658 593.59,440.43C593.3,440.19 592.91,440.14 592.77,440.33C592.63,440.52 592.77,440.98 592.9,441.33C593.026,441.679 593.187,442.014 593.38,442.33C593.718,442.893 594.144,443.399 594.64,443.83C595.48,444.62 596.17,444.85 596.14,444.93Z" style="fill:rgb(237,50,55);fill-rule:nonzero;"/>
            </g>
            <g transform="matrix(1,0,0,1,0,-2.40326)">
                <path d="M602.09,446.74C600.99,446.807 599.888,446.636 598.86,446.24C597.772,445.997 596.749,445.523 595.86,444.85C597.938,445.432 600.002,446.062 602.05,446.74L602.09,446.74Z" style="fill:rgb(237,50,55);fill-rule:nonzero;"/>
            </g>
            <g transform="matrix(1,0,0,1,0,-2.40326)">
                <path d="M602,444.57C600.992,445.108 599.863,445.379 598.72,445.36C597.584,445.507 596.429,445.356 595.37,444.92C595.37,444.78 596.88,444.92 598.69,444.86C600.5,444.8 601.92,444.42 602,444.57Z" style="fill:rgb(237,50,55);fill-rule:nonzero;"/>
            </g>
            <g transform="matrix(1,0,0,1,0,-2.40326)">
                <path d="M536.62,322.82C536.62,322.82 525.42,397.21 527.05,400.82C528.68,404.43 564.94,441.55 564.94,441.55L578.55,418.24C578.55,418.24 554.55,391.65 554.9,390.24C555.25,388.83 572.2,316.83 572.2,316.83L536.62,322.82Z" style="fill:rgb(237,50,55);fill-rule:nonzero;"/>
            </g>
            <g transform="matrix(1,0,0,1,0,-2.40326)">
                <path d="M539.2,414.88L548.76,393.88L559.76,370.3C553.068,379.977 547.373,390.306 542.76,401.13C540.968,405.535 539.771,410.159 539.2,414.88Z" style="fill:rgb(237,50,55);fill-rule:nonzero;"/>
            </g>
            <g transform="matrix(1,0,0,1,0,-2.40326)">
                <path d="M539.2,414.88L548.76,393.88L559.76,370.3C553.068,379.977 547.373,390.306 542.76,401.13C540.968,405.535 539.771,410.159 539.2,414.88Z" style="fill-opacity:0.4;fill-rule:nonzero;"/>
            </g>
            <g transform="matrix(1,0,0,1,0,-2.40326)">
                <path d="M532.64,350.28C532.75,349.49 541.78,329.18 541.78,329.18L537.39,323L536.62,322.83L532.64,350.28Z" style="fill:rgb(237,50,55);fill-rule:nonzero;"/>
            </g>
            <g transform="matrix(1,0,0,1,0,-2.40326)">
                <path d="M532.64,350.28C532.75,349.49 541.78,329.18 541.78,329.18L537.39,323L536.62,322.83L532.64,350.28Z" style="fill-opacity:0.4;fill-rule:nonzero;"/>
            </g>
            <g transform="matrix(1,0,0,1,0,-2.40326)">
                <path d="M578.56,315.82L579.23,318.58C581.234,326.717 580.011,335.323 575.82,342.58L545.46,395.21C543.304,398.948 541.736,402.995 540.81,407.21L533.25,441.21C533.25,441.21 509.38,442.02 508.35,441.21C507.32,440.4 511.43,417.89 514.17,400.84C516.24,387.98 533.44,348.07 541.78,329.22L536.62,322.86L545.62,321.37L578.56,315.82Z" style="fill:rgb(237,50,55);fill-rule:nonzero;"/>
            </g>
            <g transform="matrix(1,0,0,1,0,-2.40326)">
                <path d="M533.25,441.17C532.925,441.264 532.589,441.318 532.25,441.33C531.61,441.4 530.7,441.48 529.56,441.55C527.29,441.7 524.14,441.81 520.67,441.8C517.2,441.79 514.05,441.69 511.78,441.57C510.64,441.52 509.72,441.46 509.09,441.41C508.752,441.418 508.415,441.374 508.09,441.28C508.42,441.221 508.755,441.201 509.09,441.22L511.78,441.22L520.66,441.3C524.13,441.3 527.26,441.25 529.53,441.2L532.23,441.13C532.57,441.092 532.914,441.105 533.25,441.17Z" style="fill:rgb(38,50,56);fill-rule:nonzero;"/>
            </g>
            <g transform="matrix(1,0,0,1,0,-2.40326)">
                <path d="M534.56,434.78C534.56,434.92 528.82,435.01 521.75,434.98C514.68,434.95 508.93,434.82 508.93,434.69C508.93,434.56 514.67,434.46 521.75,434.48C528.83,434.5 534.56,434.64 534.56,434.78Z" style="fill:rgb(38,50,56);fill-rule:nonzero;"/>
            </g>
            <g transform="matrix(1,0,0,1,0,-2.40326)">
                <path d="M574.38,413.42C574.251,413.754 574.08,414.07 573.87,414.36L572.32,416.82L567.18,424.91L562.06,433.01L560.49,435.46C560.315,435.773 560.1,436.062 559.85,436.32C559.966,435.969 560.124,435.633 560.32,435.32C560.65,434.72 561.14,433.85 561.75,432.79C562.99,430.67 564.75,427.79 566.75,424.6C568.75,421.41 570.64,418.6 572.03,416.6C572.73,415.6 573.3,414.78 573.71,414.22C573.899,413.927 574.124,413.658 574.38,413.42Z" style="fill:rgb(38,50,56);fill-rule:nonzero;"/>
            </g>
            <g transform="matrix(1,0,0,1,0,-2.40326)">
                <path d="M563.51,439.54C562.972,438.559 562.581,437.505 562.35,436.41C561.959,435.364 561.73,434.265 561.67,433.15C562.207,434.128 562.598,435.179 562.83,436.27C563.218,437.32 563.448,438.422 563.51,439.54Z" style="fill:rgb(38,50,56);fill-rule:nonzero;"/>
            </g>
            <g transform="matrix(1,0,0,1,0,-2.40326)">
                <path d="M565.63,439.47C565.091,437.762 564.712,436.008 564.5,434.23C564.126,432.48 563.918,430.699 563.88,428.91C564.789,432.368 565.374,435.903 565.63,439.47Z" style="fill:rgb(38,50,56);fill-rule:nonzero;"/>
            </g>
            <g transform="matrix(1,0,0,1,0,-2.40326)">
                <path d="M568.4,435.52C567.868,434.031 567.45,432.503 567.15,430.95C566.685,429.438 566.351,427.889 566.15,426.32C566.83,427.756 567.327,429.271 567.63,430.83C568.092,432.353 568.351,433.93 568.4,435.52Z" style="fill:rgb(38,50,56);fill-rule:nonzero;"/>
            </g>
            <g transform="matrix(1,0,0,1,0,-2.40326)">
                <path d="M570.76,430.05C570.218,428.627 569.839,427.148 569.63,425.64C569.25,424.162 569.035,422.646 568.99,421.12C569.52,422.55 569.899,424.031 570.12,425.54C570.495,427.016 570.709,428.528 570.76,430.05Z" style="fill:rgb(38,50,56);fill-rule:nonzero;"/>
            </g>
            <g transform="matrix(1,0,0,1,0,-2.40326)">
                <path d="M573.81,425.52C573.359,424.091 573.002,422.635 572.74,421.16C572.307,419.721 571.973,418.254 571.74,416.77C572.437,418.115 572.926,419.558 573.19,421.05C573.625,422.499 573.834,424.007 573.81,425.52Z" style="fill:rgb(38,50,56);fill-rule:nonzero;"/>
            </g>
            <g transform="matrix(1,0,0,1,0,-2.40326)">
                <path d="M576.53,421.68C575.987,420.555 575.604,419.36 575.39,418.13C575.009,416.938 574.787,415.7 574.73,414.45C575.646,416.77 576.251,419.201 576.53,421.68Z" style="fill:rgb(38,50,56);fill-rule:nonzero;"/>
            </g>
            <g transform="matrix(1,0,0,1,0,-2.40326)">
                <path d="M520.82,434.53C518.902,435.717 516.923,436.802 514.89,437.78C512.944,438.912 510.942,439.943 508.89,440.87C509.382,440.419 509.93,440.032 510.52,439.72C511.52,439.07 513.03,438.22 514.69,437.34C516.35,436.46 517.88,435.73 519,435.23C519.574,434.92 520.186,434.684 520.82,434.53Z" style="fill:rgb(38,50,56);fill-rule:nonzero;"/>
            </g>
            <g transform="matrix(1,0,0,1,0,-2.40326)">
                <path d="M528.18,434.64C527.601,435.119 526.971,435.531 526.3,435.87C525.1,436.56 523.43,437.47 521.54,438.41C519.65,439.35 517.9,440.12 516.62,440.65C515.949,440.983 515.241,441.235 514.51,441.4C515.134,440.969 515.805,440.61 516.51,440.33L521.34,437.96L526.16,435.56C526.798,435.182 527.476,434.873 528.18,434.64Z" style="fill:rgb(38,50,56);fill-rule:nonzero;"/>
            </g>
            <g transform="matrix(1,0,0,1,0,-2.40326)">
                <path d="M533.78,434.64C532.354,436.081 530.786,437.374 529.1,438.5C527.508,439.754 525.796,440.85 523.99,441.77C525.511,440.439 527.118,439.21 528.8,438.09C530.388,436.84 532.052,435.688 533.78,434.64Z" style="fill:rgb(38,50,56);fill-rule:nonzero;"/>
            </g>
            <g transform="matrix(1,0,0,1,0,-2.40326)">
                <path d="M534.39,438.16C534.48,438.27 533.55,439.16 532.31,440.08C531.61,440.725 530.801,441.24 529.92,441.6C530.5,440.844 531.207,440.194 532.01,439.68C532.709,439.039 533.514,438.524 534.39,438.16Z" style="fill:rgb(38,50,56);fill-rule:nonzero;"/>
            </g>
            <g transform="matrix(1,0,0,1,0,-2.40326)">
                <path d="M514.29,434.41C513.361,435.252 512.326,435.968 511.21,436.54C510.174,437.253 509.047,437.825 507.86,438.24C509.824,436.684 511.986,435.396 514.29,434.41Z" style="fill:rgb(38,50,56);fill-rule:nonzero;"/>
            </g>
            <g transform="matrix(1,0,0,1,0,-2.40326)">
                <path d="M541.12,329C540.773,330.138 540.349,331.25 539.85,332.33C539.03,334.33 537.85,337.18 536.67,340.33C535.49,343.48 534.4,346.33 533.67,348.33C533.303,349.458 532.862,350.56 532.35,351.63C532.383,351.313 532.454,351.001 532.56,350.7C532.73,350.11 532.99,349.26 533.33,348.21C534.01,346.12 535.02,343.21 536.23,340.12C537.44,337.03 538.65,334.19 539.56,332.19C540.02,331.19 540.4,330.39 540.68,329.84C540.791,329.543 540.939,329.26 541.12,329Z" style="fill:rgb(38,50,56);fill-rule:nonzero;"/>
            </g>
            <g transform="matrix(1,0,0,1,0,-2.40326)">
                <path d="M538.63,417.26C538.608,417.064 538.608,416.866 538.63,416.67C538.68,416.23 538.76,415.67 538.84,414.99C538.92,414.31 539.06,413.37 539.29,412.34C539.52,411.31 539.7,410.14 540.06,408.87C540.23,408.24 540.41,407.57 540.59,406.87C540.77,406.17 541.03,405.47 541.26,404.73C541.7,403.25 542.31,401.73 542.91,400.07C544.317,396.563 545.912,393.134 547.69,389.8C550.979,383.785 554.608,377.962 558.56,372.36C560.05,370.2 561.29,368.47 562.16,367.28L563.16,365.92C563.273,365.756 563.4,365.602 563.54,365.46C563.464,365.644 563.367,365.819 563.25,365.98C563,366.34 562.7,366.81 562.32,367.39L558.85,372.56C556,376.93 552,383 548.17,390C546.402,393.317 544.803,396.721 543.38,400.2C542.77,401.82 542.14,403.35 541.69,404.82C541.45,405.56 541.2,406.26 541,406.94C540.8,407.62 540.62,408.29 540.45,408.94C540.07,410.2 539.84,411.37 539.6,412.38C539.36,413.39 539.19,414.28 539.07,415C538.95,415.72 538.85,416.23 538.77,416.66C538.744,416.864 538.697,417.065 538.63,417.26Z" style="fill:rgb(38,50,56);fill-rule:nonzero;"/>
            </g>
            <g transform="matrix(1,0,0,1,0,-2.40326)">
                <path d="M568.4,253.17L544.91,255.17C544.91,255.17 537.91,255.33 530.23,273.17L524.71,290.87L534.64,292.99L534.64,293.99L536.64,322.82L579,316C579.09,312.34 577,307 575.47,302C577.06,298.05 583.75,280.81 583.74,272.51C583.74,254.76 568.39,253.23 568.39,253.23" style="fill:white;fill-rule:nonzero;"/>
            </g>
            <g transform="matrix(1,0,0,1,0,-2.40326)">
                <path d="M578.55,418.22C578.45,418.57 578.306,418.906 578.12,419.22C577.81,419.83 577.35,420.7 576.76,421.77C575.58,423.91 573.88,426.83 571.96,430.02L567,438.15L565.5,440.63C565.338,440.944 565.136,441.237 564.9,441.5C565,441.15 565.144,440.814 565.33,440.5C565.64,439.89 566.1,439.02 566.69,437.95C567.87,435.81 569.57,432.89 571.49,429.7L576.41,421.54L577.91,419.07C578.089,418.762 578.304,418.477 578.55,418.22Z" style="fill:rgb(38,50,56);fill-rule:nonzero;"/>
            </g>
            <g transform="matrix(1,0,0,1,0,-2.40326)">
                <path d="M573,295.56C571.964,296.062 570.839,296.357 569.69,296.43C568.564,296.655 567.406,296.655 566.28,296.43C567.377,296.146 568.499,295.968 569.63,295.9C570.74,295.68 571.868,295.566 573,295.56Z" style="fill:white;fill-rule:nonzero;"/>
            </g>
            <g transform="matrix(1,0,0,1,0,-2.40326)">
                <path d="M536.72,294.15L536.24,325.44L548.94,254.18C544.72,253.43 536.85,256.75 533.89,260.96C531.77,263.48 530.61,269.28 524.71,286.74L521.09,298.59L506.41,282.52L496.52,291.46C496.52,291.46 513.58,319.33 520.71,320.87C530.41,322.97 536.71,294.15 536.71,294.15" style="fill:rgb(69,90,100);fill-rule:nonzero;"/>
            </g>
            <g transform="matrix(1,0,0,1,0,-2.40326)">
                <path d="M538.75,265.2C538.757,265.61 538.713,266.02 538.62,266.42C538.49,267.3 538.32,268.42 538.11,269.71C537.68,272.49 537.11,276.33 536.58,280.59C536.05,284.85 535.68,288.72 535.42,291.52C535.3,292.84 535.2,293.95 535.11,294.83C535.104,295.242 535.047,295.652 534.94,296.05C534.899,295.641 534.899,295.229 534.94,294.82C534.94,294.03 535.01,292.9 535.09,291.49C535.25,288.68 535.58,284.8 536.09,280.49C536.6,276.18 537.25,272.38 537.77,269.61C538.04,268.23 538.27,267.11 538.44,266.34C538.508,265.951 538.612,265.57 538.75,265.2Z" style="fill:rgb(38,50,56);fill-rule:nonzero;"/>
            </g>
            <g transform="matrix(1,0,0,1,0,-2.40326)">
                <path d="M535.46,263.83C535.41,263.69 537.38,262.83 539.62,261.47C541.86,260.11 543.49,258.71 543.62,258.82C541.436,261.22 538.617,262.953 535.49,263.82L535.46,263.83Z" style="fill:white;fill-rule:nonzero;"/>
            </g>
            <g transform="matrix(1,0,0,1,0,-2.40326)">
                <path d="M531.4,284.46C530.894,283.302 530.482,282.105 530.17,280.88C529.7,279.709 529.326,278.501 529.05,277.27C530.388,279.448 531.193,281.912 531.4,284.46Z" style="fill:white;fill-rule:nonzero;"/>
            </g>
            <g transform="matrix(1,0,0,1,0,-2.40326)">
                <path d="M541.7,273.2C541.839,274.594 541.737,276.001 541.4,277.36C541.227,278.755 540.811,280.109 540.17,281.36C540.334,279.99 540.581,278.63 540.91,277.29C541.087,275.911 541.351,274.545 541.7,273.2Z" style="fill:white;fill-rule:nonzero;"/>
            </g>
            <g transform="matrix(1,0,0,1,0,-2.40326)">
                <path d="M527.41,300.48C527.416,301.71 527.316,302.938 527.11,304.15C527.059,305.384 526.905,306.612 526.65,307.82C526.339,305.348 526.599,302.836 527.41,300.48Z" style="fill:white;fill-rule:nonzero;"/>
            </g>
            <g transform="matrix(1,0,0,1,0,-2.40326)">
                <path d="M508.64,300.23C507.549,299.045 506.651,297.695 505.98,296.23C505.161,294.84 504.561,293.332 504.2,291.76C505.018,293.131 505.759,294.547 506.42,296C507.235,297.37 507.976,298.782 508.64,300.23Z" style="fill:white;fill-rule:nonzero;"/>
            </g>
            <g transform="matrix(1,0,0,1,0,-2.40326)">
                <path d="M519.38,301C518.592,301.75 517.66,302.332 516.64,302.71C515.684,303.239 514.628,303.563 513.54,303.66C514.453,303.096 515.421,302.626 516.43,302.26C517.368,301.742 518.357,301.319 519.38,301Z" style="fill:white;fill-rule:nonzero;"/>
            </g>
            <g transform="matrix(1,0,0,1,0,-2.40326)">
                <path d="M570.24,310.88L577.59,398.25L599.73,396.16L578.71,304.42L581.28,279.79L570.24,310.88Z" style="fill:rgb(69,90,100);fill-rule:nonzero;"/>
            </g>
            <g transform="matrix(1,0,0,1,0,-2.40326)">
                <path d="M577.59,398.25C577.46,398.25 575.83,378.88 573.96,354.96C572.09,331.04 570.7,311.65 570.83,311.64C570.96,311.63 572.6,331 574.46,354.92C576.32,378.84 577.73,398.24 577.59,398.25Z" style="fill:rgb(38,50,56);fill-rule:nonzero;"/>
            </g>
            <g transform="matrix(1,0,0,1,0,-2.40326)">
                <path d="M575.46,312.9C575.611,311.896 575.925,310.923 576.39,310.02C576.712,309.058 577.184,308.154 577.79,307.34C577.333,309.312 576.545,311.192 575.46,312.9Z" style="fill:white;fill-rule:nonzero;"/>
            </g>
            <g transform="matrix(1,0,0,1,0,-2.40326)">
                <path d="M581.57,325.9C581.45,325.99 580.35,324.71 578.8,323.34C577.809,322.568 576.858,321.747 575.95,320.88C577.15,321.341 578.238,322.053 579.14,322.97C580.147,323.765 580.975,324.764 581.57,325.9Z" style="fill:white;fill-rule:nonzero;"/>
            </g>
            <g transform="matrix(1,0,0,1,0,-2.40326)">
                <path d="M580.22,343.43C580.621,342.402 581.085,341.4 581.61,340.43C581.983,339.381 582.42,338.355 582.92,337.36C582.894,338.502 582.599,339.623 582.06,340.63C581.676,341.695 581.045,342.655 580.22,343.43Z" style="fill:white;fill-rule:nonzero;"/>
            </g>
            <g transform="matrix(1,0,0,1,0,-2.40326)">
                <path d="M585,357.5C582.86,356.098 580.916,354.416 579.22,352.5C580.315,353.138 581.323,353.914 582.22,354.81C583.26,355.582 584.194,356.486 585,357.5Z" style="fill:white;fill-rule:nonzero;"/>
            </g>
            <g transform="matrix(1,0,0,1,0,-2.40326)">
                <path d="M589,367.16C588.687,364.354 588.707,361.521 589.06,358.72C589.29,360.114 589.364,361.53 589.28,362.94C589.351,364.353 589.257,365.769 589,367.16Z" style="fill:white;fill-rule:nonzero;"/>
            </g>
            <g transform="matrix(1,0,0,1,0,-2.40326)">
                <path d="M581.9,373.72C581.617,372.623 581.439,371.501 581.37,370.37C581.144,369.26 581.02,368.132 581,367C581.516,368.03 581.826,369.151 581.91,370.3C582.134,371.429 582.131,372.592 581.9,373.72Z" style="fill:white;fill-rule:nonzero;"/>
            </g>
            <g transform="matrix(1,0,0,1,0,-2.40326)">
                <path d="M589.23,382.08C587.108,382.099 584.995,381.786 582.97,381.15C584.032,381.055 585.102,381.129 586.14,381.37C587.2,381.446 588.243,381.686 589.23,382.08Z" style="fill:white;fill-rule:nonzero;"/>
            </g>
            <g transform="matrix(1,0,0,1,0,-2.40326)">
                <path d="M588,393.2C589.054,391.027 590.4,389.008 592,387.2C591.556,388.328 590.957,389.388 590.22,390.35C589.61,391.394 588.863,392.353 588,393.2Z" style="fill:white;fill-rule:nonzero;"/>
            </g>
            <g transform="matrix(1,0,0,1,0,-2.40326)">
                <path d="M537.62,321.48L500.43,270.82C502.634,269.123 504.697,267.25 506.6,265.22C515.461,255.735 520.394,243.228 520.394,230.248C520.394,202.144 497.268,179.018 469.164,179.018C441.06,179.018 417.934,202.144 417.934,230.248C417.934,256.938 438.792,279.384 465.41,281.34C467.237,281.474 469.07,281.507 470.9,281.44C478.345,281.211 485.65,279.354 492.3,276L529.87,327.18C531.441,329.295 534.472,329.746 536.59,328.18C538.702,326.619 539.166,323.603 537.62,321.48ZM470.62,271.84C469.133,271.889 467.644,271.862 466.16,271.76C444.511,270.2 427.532,251.953 427.532,230.248C427.532,207.93 445.484,189.38 467.79,188.65C469.294,188.6 470.799,188.63 472.3,188.74C493.904,190.354 510.819,208.58 510.819,230.244C510.819,252.54 492.903,271.079 470.62,271.84Z" style="fill:rgb(38,50,56);fill-rule:nonzero;"/>
            </g>
            <g transform="matrix(1,0,0,1,0,-2.40326)">
                <path d="M522.85,293.93L518.44,309C518.44,309 541.52,317.39 554.02,317.23C565.73,317.09 569.08,315.76 573.2,306.31C577.32,296.86 582,286 583,279.71C583,279.71 589.61,250.92 564.39,253.49L563.69,276C563.69,276 560.9,285.23 560.69,285.77C558.81,290.77 556.37,298.04 554.01,298.92C551.65,299.8 522.85,293.93 522.85,293.93Z" style="fill:rgb(69,90,100);fill-rule:nonzero;"/>
            </g>
            <g transform="matrix(1,0,0,1,0,-2.40326)">
                <path d="M559.07,306C557.212,303.817 555.756,301.321 554.77,298.63C555.624,299.769 556.376,300.98 557.02,302.25C557.806,303.441 558.491,304.696 559.07,306Z" style="fill:rgb(38,50,56);fill-rule:nonzero;"/>
            </g>
            <g transform="matrix(1,0,0,1,0,-2.40326)">
                <path d="M561.43,303.63C560.225,303.009 559.1,302.243 558.08,301.35C556.971,300.586 555.963,299.686 555.08,298.67C556.282,299.296 557.407,300.061 558.43,300.95C559.539,301.714 560.547,302.614 561.43,303.63Z" style="fill:rgb(38,50,56);fill-rule:nonzero;"/>
            </g>
            <g transform="matrix(1,0,0,1,0,-2.40326)">
                <path d="M569.27,262.57C568.537,264.975 567.649,267.33 566.61,269.62C565.726,271.973 564.687,274.265 563.5,276.48C564.224,274.073 565.11,271.718 566.15,269.43C567.034,267.076 568.077,264.784 569.27,262.57Z" style="fill:rgb(38,50,56);fill-rule:nonzero;"/>
            </g>
            <g transform="matrix(1,0,0,1,0,-2.40326)">
                <path d="M582,284C581.935,284.395 581.824,284.781 581.67,285.15C581.39,285.97 581.04,287 580.67,288.21C579.75,290.79 578.46,294.35 576.94,298.21C575.42,302.07 573.94,305.58 572.72,308.05C572.13,309.29 571.63,310.28 571.26,310.95C571.096,311.306 570.891,311.641 570.65,311.95C570.757,311.565 570.904,311.193 571.09,310.84C571.44,310.05 571.87,309.05 572.39,307.84C573.49,305.33 574.94,301.84 576.47,297.96C578,294.08 579.31,290.64 580.33,287.96C580.83,286.69 581.25,285.66 581.54,284.96C581.664,284.627 581.818,284.305 582,284Z" style="fill:rgb(38,50,56);fill-rule:nonzero;"/>
            </g>
            <g transform="matrix(1,0,0,1,0,-2.40326)">
                <path d="M544.91,298.26C544.91,298.4 539.91,297.6 533.69,296.48C527.47,295.36 522.53,294.34 522.56,294.21C522.59,294.08 527.56,294.87 533.78,295.99C540,297.11 544.94,298.13 544.91,298.26Z" style="fill:rgb(38,50,56);fill-rule:nonzero;"/>
            </g>
            <g transform="matrix(1,0,0,1,0,-2.40326)">
                <path d="M571.08,284.52C570.777,281.816 570.814,279.085 571.19,276.39C571.417,277.734 571.481,279.101 571.38,280.46C571.446,281.821 571.346,283.184 571.08,284.52Z" style="fill:white;fill-rule:nonzero;"/>
            </g>
            <g transform="matrix(1,0,0,1,0,-2.40326)">
                <path d="M562.09,312.2C562.459,311.153 562.904,310.133 563.42,309.15C563.787,308.1 564.228,307.078 564.74,306.09C564.701,307.227 564.407,308.342 563.88,309.35C563.501,310.42 562.889,311.393 562.09,312.2Z" style="fill:white;fill-rule:nonzero;"/>
            </g>
            <g transform="matrix(1,0,0,1,0,-2.40326)">
                <path d="M549.88,311.42C548.508,309.113 547.21,306.761 545.99,304.37C546.947,305.338 547.735,306.461 548.32,307.69C549.047,308.836 549.575,310.097 549.88,311.42Z" style="fill:white;fill-rule:nonzero;"/>
            </g>
            <g transform="matrix(1,0,0,1,0,-2.40326)">
                <path d="M533,303.63C531.987,304.301 530.887,304.829 529.73,305.2C528.634,305.719 527.474,306.089 526.28,306.3C527.293,305.629 528.393,305.101 529.55,304.73C530.645,304.209 531.806,303.839 533,303.63Z" style="fill:white;fill-rule:nonzero;"/>
            </g>
            <g transform="matrix(1,0,0,1,0,-2.40326)">
                <path d="M580.35,268.3C580.24,268.39 579.13,267.3 577.53,266.16C575.93,265.02 574.47,264.43 574.53,264.29C575.727,264.5 576.853,265.001 577.81,265.75C578.856,266.374 579.73,267.251 580.35,268.3Z" style="fill:white;fill-rule:nonzero;"/>
            </g>
            <g transform="matrix(1,0,0,1,0,-2.40326)">
                <path d="M573.15,293.16C570.59,294.081 567.858,294.423 565.15,294.16C566.467,293.875 567.805,293.691 569.15,293.61C570.471,293.363 571.808,293.213 573.15,293.16Z" style="fill:white;fill-rule:nonzero;"/>
            </g>
            <g transform="matrix(1,0,0,1,0,-2.40326)">
                <path d="M570.78,216.07C572.165,213.55 575.141,212.321 577.9,213.13C580.598,214.017 582.701,216.164 583.53,218.88C584.32,221.577 584.371,224.436 583.68,227.16C583.24,229.16 582.68,231.47 583.98,233.01C585.28,234.55 587.5,234.41 588.93,235.65C589.671,236.301 590.096,237.241 590.096,238.227C590.096,240.108 588.548,241.657 586.666,241.657C585.675,241.657 584.731,241.227 584.08,240.48C584.08,241.87 584.84,243.14 585.27,244.48C585.7,245.82 585.76,247.48 584.7,248.37C583.844,248.988 582.717,249.095 581.76,248.65C580.82,248.204 579.97,247.591 579.25,246.84C579.74,248.276 579.74,249.834 579.25,251.27C578.713,252.709 577.459,253.765 575.95,254.05C574.028,254.192 572.203,253.148 571.35,251.42C570.547,249.709 570.245,247.805 570.48,245.93C570.69,243.01 571.48,240.15 571.8,237.25C572.314,234.344 571.938,231.349 570.72,228.66" style="fill:rgb(237,50,55);fill-rule:nonzero;"/>
            </g>
            <g transform="matrix(1,0,0,1,0,-2.40326)">
                <path d="M587.73,233.12C587.73,233.12 587.61,233.19 587.35,233.12C586.972,233.058 586.645,232.82 586.47,232.48C586.18,231.907 586.355,231.2 586.88,230.83C587.556,230.314 588.518,230.37 589.13,230.96C589.843,231.652 590.104,232.693 589.8,233.64C589.67,234.169 589.388,234.649 588.99,235.02C588.551,235.414 587.989,235.644 587.4,235.67C586.796,235.708 586.193,235.577 585.66,235.29C585.11,234.981 584.652,234.532 584.33,233.99C583.698,232.86 583.472,231.546 583.69,230.27C584.06,227.7 585.3,225.55 585.27,223.39C585.298,221.484 584.777,219.609 583.77,217.99C583.091,216.893 582.209,215.935 581.17,215.17C580.43,214.63 579.96,214.43 579.99,214.38C580.02,214.33 580.11,214.38 580.34,214.51C580.667,214.651 580.981,214.818 581.28,215.01C582.394,215.736 583.344,216.686 584.07,217.8C585.162,219.463 585.739,221.411 585.73,223.4C585.73,225.69 584.52,227.91 584.18,230.34C583.98,231.502 584.181,232.698 584.75,233.73C585.273,234.677 586.289,235.251 587.37,235.21C588.331,235.153 589.147,234.467 589.37,233.53C589.648,232.727 589.451,231.832 588.86,231.22C588.373,230.724 587.59,230.651 587.02,231.05C586.581,231.339 586.408,231.905 586.61,232.39C586.752,232.694 587.018,232.924 587.34,233.02C587.59,233.12 587.72,233.09 587.73,233.12Z" style="fill:rgb(237,50,55);fill-rule:nonzero;"/>
            </g>
            <g transform="matrix(1,0,0,1,0,-2.40326)">
                <path d="M564.59,254.05L565.93,223.53L553.81,214.35L542.81,219.74C542.81,219.74 542.44,233.57 542.81,239.57C543.18,245.57 549.23,246.21 549.23,246.21C549.23,246.21 549.09,249.72 548.95,253.42C548.946,253.517 548.945,253.614 548.945,253.71C548.945,258.011 552.484,261.55 556.785,261.55L556.86,261.55C560.994,261.496 564.411,258.18 564.59,254.05Z" style="fill:rgb(255,190,157);fill-rule:nonzero;"/>
            </g>
            <g transform="matrix(1,0,0,1,0,-2.40326)">
                <path d="M544,229.82C544,230.242 544.348,230.59 544.77,230.59C545.192,230.59 545.54,230.242 545.54,229.82C545.54,229.398 545.192,229.05 544.77,229.05C544.35,229.055 544.005,229.4 544,229.82Z" style="fill:rgb(38,50,56);fill-rule:nonzero;"/>
            </g>
            <g transform="matrix(1,0,0,1,0,-2.40326)">
                <path d="M543.25,229C543.35,229.1 543.91,228.62 544.74,228.58C545.57,228.54 546.19,228.93 546.27,228.82C546.35,228.71 546.21,228.59 545.94,228.4C545.196,227.906 544.207,227.968 543.53,228.55C543.28,228.74 543.2,228.94 543.25,229Z" style="fill:rgb(38,50,56);fill-rule:nonzero;"/>
            </g>
            <g transform="matrix(1,0,0,1,0,-2.40326)">
                <path d="M552.89,229.82C552.89,230.242 553.238,230.59 553.66,230.59C554.082,230.59 554.43,230.242 554.43,229.82C554.43,229.398 554.082,229.05 553.66,229.05C553.238,229.05 552.89,229.398 552.89,229.82Z" style="fill:rgb(38,50,56);fill-rule:nonzero;"/>
            </g>
            <g transform="matrix(1,0,0,1,0,-2.40326)">
                <path d="M552.41,229C552.51,229.1 553.08,228.62 553.9,228.58C554.72,228.54 555.35,228.93 555.44,228.82C555.53,228.71 555.38,228.59 555.1,228.4C554.356,227.906 553.367,227.968 552.69,228.55C552.44,228.74 552.36,228.94 552.41,229Z" style="fill:rgb(38,50,56);fill-rule:nonzero;"/>
            </g>
            <g transform="matrix(1,0,0,1,0,-2.40326)">
                <path d="M552.16,236.75C550.898,237.393 549.551,237.854 548.16,238.12C548.785,238.973 549.919,239.296 550.9,238.9C551.676,238.728 552.232,238.035 552.232,237.24C552.232,237.074 552.208,236.909 552.16,236.75Z" style="fill:white;fill-rule:nonzero;"/>
            </g>
            <g transform="matrix(1,0,0,1,0,-2.40326)">
                <path d="M549.2,246.21C552.052,246.088 554.81,245.155 557.15,243.52C559.49,241.885 555.35,247.93 549.33,247.68L549.2,246.21Z" style="fill:rgb(235,153,110);fill-rule:nonzero;"/>
            </g>
            <g transform="matrix(1,0,0,1,0,-2.40326)">
                <path d="M583.38,240.78C582.622,240.809 581.87,240.636 581.2,240.28C580.212,239.753 579.391,238.959 578.83,237.99C578.14,236.772 577.548,235.502 577.06,234.19C575.94,231.4 575.06,228.81 574.52,226.92L574.27,226.09C574.27,225.77 574.17,225.48 574.12,225.27C570.84,212.76 559.85,210.43 557.67,210.43C555.49,210.43 551.26,209.15 545.31,215.33C544.418,216.26 543.66,217.31 543.06,218.45C541.739,220.091 540.83,222.025 540.41,224.09C540.136,225.066 540.088,226.092 540.27,227.09C540.38,227.09 540.4,225.96 540.86,224.22C541.139,223.198 541.528,222.208 542.02,221.27C541.5,223.58 541.713,225.996 542.63,228.18L544.76,227.59L552.4,224.99C551.7,222.63 552.73,219.69 553.3,218.32L553.36,218.27C554.234,223.372 558.334,227.35 563.46,228.07L564.87,247.72C575.03,245.55 574.79,231.96 574.73,229.2C575.19,230.75 575.79,232.54 576.54,234.41C577.035,235.757 577.658,237.052 578.4,238.28C579.026,239.313 579.94,240.14 581.03,240.66C581.769,241.005 582.593,241.126 583.4,241.01C583.696,240.983 583.98,240.876 584.22,240.7C583.939,240.709 583.658,240.736 583.38,240.78Z" style="fill:rgb(237,50,55);fill-rule:nonzero;"/>
            </g>
            <g transform="matrix(1,0,0,1,0,-2.40326)">
                <path d="M549.43,236C548.987,235.897 548.535,235.84 548.08,235.83C547.87,235.83 547.66,235.83 547.62,235.64C547.59,235.411 547.628,235.178 547.73,234.97L548.3,233.26C548.69,232.04 549.03,230.93 549.3,230.12C549.46,229.692 549.561,229.245 549.6,228.79C549.357,229.17 549.155,229.576 549,230C548.72,230.79 548.35,231.89 548,233.11L547.46,234.83C547.337,235.099 547.309,235.403 547.38,235.69C547.444,235.839 547.573,235.95 547.73,235.99C547.85,236.004 547.97,236.004 548.09,235.99C548.534,236.05 548.985,236.054 549.43,236Z" style="fill:rgb(38,50,56);fill-rule:nonzero;"/>
            </g>
            <g transform="matrix(1,0,0,1,0,-2.40326)">
                <path d="M566.57,235.71C566.469,234.699 566.578,233.677 566.89,232.71C567.211,231.744 568.038,231.029 569.04,230.85C570.239,230.795 571.298,231.664 571.48,232.85C571.615,234.019 571.029,235.16 570,235.73C568.961,236.271 567.73,236.308 566.66,235.83" style="fill:rgb(255,190,157);fill-rule:nonzero;"/>
            </g>
            <g transform="matrix(1,0,0,1,0,-2.40326)">
                <path d="M568.31,234.84C568.31,234.77 568.64,234.92 569.06,234.79C569.601,234.605 569.965,234.092 569.96,233.52C570.009,233.236 569.932,232.944 569.75,232.72C569.564,232.571 569.327,232.5 569.09,232.52C568.64,232.52 568.33,232.68 568.3,232.61C568.27,232.54 568.5,232.33 569.04,232.17C569.386,232.085 569.753,232.158 570.04,232.37C570.357,232.675 570.509,233.114 570.45,233.55C570.427,233.963 570.269,234.356 570,234.67C569.774,234.929 569.461,235.097 569.12,235.14C568.54,235.2 568.27,234.88 568.31,234.84Z" style="fill:rgb(235,153,110);fill-rule:nonzero;"/>
            </g>
            <g transform="matrix(1,0,0,1,0,-2.40326)">
                <path d="M570.11,235.66C570.11,235.66 570.56,235.97 570.56,236.77C570.539,237.237 570.338,237.678 570,238C569.563,238.396 568.974,238.579 568.39,238.5C567.804,238.389 567.298,238.022 567.01,237.5C566.784,237.08 566.737,236.585 566.88,236.13C567.13,235.36 567.64,235.13 567.66,235.21C567.68,235.29 567.34,235.56 567.22,236.21C567.202,236.305 567.192,236.401 567.192,236.498C567.192,237.326 567.874,238.008 568.702,238.008C569.065,238.008 569.416,237.877 569.69,237.64C569.977,237.405 570.163,237.068 570.21,236.7C570.222,236.35 570.189,236.001 570.11,235.66Z" style="fill:rgb(38,50,56);fill-rule:nonzero;"/>
            </g>
            <g transform="matrix(1,0,0,1,0,-2.40326)">
                <path d="M566.59,231.53C566.368,231.737 566.106,231.897 565.82,232C565.054,232.334 564.226,232.504 563.39,232.5C562.142,232.494 560.913,232.185 559.81,231.6C558.48,230.876 557.339,229.848 556.48,228.6C555.004,226.295 554.093,223.674 553.82,220.95C553.68,219.95 553.61,219.09 553.57,218.52C553.519,218.219 553.519,217.911 553.57,217.61C553.826,218.696 554.027,219.794 554.17,220.9C554.54,223.535 555.467,226.061 556.89,228.31C557.696,229.495 558.759,230.483 560,231.2C561.034,231.763 562.183,232.085 563.36,232.14C564.466,232.151 565.564,231.944 566.59,231.53Z" style="fill:rgb(237,50,55);fill-rule:nonzero;"/>
            </g>
            <g transform="matrix(1,0,0,1,0,-2.40326)">
                <path d="M573.32,222.93C573.17,222.93 572.72,221.2 571.55,219.32C570.38,217.44 569,216.25 569.1,216.13C570.312,216.819 571.306,217.834 571.97,219.06C572.777,220.196 573.246,221.538 573.32,222.93Z" style="fill:rgb(38,50,56);fill-rule:nonzero;"/>
            </g>
            <g transform="matrix(1,0,0,1,0,-2.40326)">
                <path d="M518.89,307.46L515.36,307.46C512.15,307.15 510.36,307.1 509.46,306.25C508.26,305.1 509.91,303.98 509.91,303.98C509.91,303.98 507.59,303.18 507.81,301.77C507.95,300.77 509.05,300.7 509.05,300.7C509.05,300.7 507.05,299.9 506.6,299.04C506.05,297.88 507.49,297.26 507.49,297.26C504.7,295.54 504.96,293.83 505.6,293.66C506.24,293.49 508.42,294.5 508.42,294.5C510.26,295.02 515.28,296.55 513.42,293.78C511.56,291.01 511.18,288.19 511.6,287.35C511.755,286.977 512.12,286.733 512.524,286.733C513.072,286.733 513.524,287.184 513.524,287.733C513.524,287.762 513.523,287.791 513.52,287.82C513.807,288.91 514.249,289.954 514.83,290.92C515.272,291.698 515.836,292.4 516.5,293C517.29,293.7 517.99,294.26 518.59,294.73L521.73,297.73L518.89,307.46Z" style="fill:rgb(255,190,157);fill-rule:nonzero;"/>
            </g>
            <g transform="matrix(1,0,0,1,0,-2.40326)">
                <path d="M496.92,272.23C497.18,271.47 497.81,270.93 498.49,271.29C498.765,271.613 498.849,272.059 498.71,272.46L496.53,279.55L498.59,274.55C498.85,273.79 499.54,273.33 500.01,273.74C500.247,274.074 500.311,274.502 500.18,274.89L498.3,280.78L499.83,277.1C500.15,276.26 500.52,276.03 500.95,276.22C501.38,276.41 501.39,277.02 501.29,277.36L500,281.7C500.28,282.54 501.24,285.17 500.31,286.65C500.31,286.72 500.41,286.97 500.4,287.05L500.84,287.55L498,290.16C498,290.16 495.33,283.41 494.82,281.38C494.506,280.212 494.562,278.975 494.98,277.84L496.92,272.23Z" style="fill:rgb(255,190,157);fill-rule:nonzero;"/>
            </g>
        </g>
    </g>
</svg>
